{
.appVersion = "1230";
copyright = "Copyright 2019 The Tomorrow Project Authors (https://github.com/MonicaRizzolli/Tomorrow)";
customParameters = (
{
name = panose;
value = (
0,
0,
7,
0,
0,
0,
0,
0,
0,
0
);
},
{
name = unicodeRanges;
value = (
0,
1,
2,
29
);
},
{
name = codePageRanges;
value = (
1252,
1250,
1257
);
},
{
name = blueScale;
value = 0.037;
},
{
name = glyphOrder;
value = (
.notdef,
CR,
space,
A,
Aacute,
Abreve,
uni1EAE,
uni1EB6,
uni1EB0,
uni1EB2,
uni1EB4,
Acircumflex,
uni1EA4,
uni1EAC,
uni1EA6,
uni1EA8,
uni1EAA,
uni0200,
Adieresis,
uni1EA0,
Agrave,
uni1EA2,
uni0202,
Amacron,
Aogonek,
Aring,
Aringacute,
Atilde,
AE,
AEacute,
B,
C,
Cacute,
Ccaron,
Ccedilla,
Ccircumflex,
Cdotaccent,
D,
uni01C4,
Eth,
Dcaron,
Dcroat,
uni01C5,
E,
Eacute,
Ebreve,
Ecaron,
Ecircumflex,
uni1EBE,
uni1EC6,
uni1EC0,
uni1EC2,
uni1EC4,
uni0204,
Edieresis,
Edotaccent,
uni1EB8,
Egrave,
uni1EBA,
uni0206,
Emacron,
Eogonek,
uni1EBC,
F,
G,
Gbreve,
Gcaron,
Gcircumflex,
uni0122,
Gdotaccent,
H,
Hbar,
Hcircumflex,
I,
Iacute,
Ibreve,
Icircumflex,
uni0208,
Idieresis,
Idotaccent,
uni1ECA,
Igrave,
uni1EC8,
uni020A,
Imacron,
Iogonek,
Itilde,
J,
Jcircumflex,
K,
uni0136,
L,
uni01C7,
Lacute,
Lcaron,
uni013B,
Ldot,
uni01C8,
Lslash,
M,
N,
uni01CA,
Nacute,
Ncaron,
uni0145,
Eng,
uni01CB,
Ntilde,
O,
Oacute,
Obreve,
Ocircumflex,
uni1ED0,
uni1ED8,
uni1ED2,
uni1ED4,
uni1ED6,
uni020C,
Odieresis,
uni022A,
uni0230,
uni1ECC,
Ograve,
uni1ECE,
Ohorn,
uni1EDA,
uni1EE2,
uni1EDC,
uni1EDE,
uni1EE0,
Ohungarumlaut,
uni020E,
Omacron,
uni01EA,
Oslash,
Oslashacute,
Otilde,
uni022C,
OE,
P,
Thorn,
Q,
R,
Racute,
Rcaron,
uni0156,
uni0210,
uni0212,
S,
Sacute,
Scaron,
Scedilla,
Scircumflex,
uni0218,
uni1E9E,
uni018F,
T,
Tbar,
Tcaron,
uni0162,
uni021A,
U,
Uacute,
Ubreve,
Ucircumflex,
uni0214,
Udieresis,
uni1EE4,
Ugrave,
uni1EE6,
Uhorn,
uni1EE8,
uni1EF0,
uni1EEA,
uni1EEC,
uni1EEE,
Uhungarumlaut,
uni0216,
Umacron,
Uogonek,
Uring,
Utilde,
V,
W,
Wacute,
Wcircumflex,
Wdieresis,
Wgrave,
X,
Y,
Yacute,
Ycircumflex,
Ydieresis,
uni1EF4,

glyphs = (
{
glyphname = .notdef;
lastChange = "2019-09-30 19:56:34 +0000";
layers = (
{
hints = (
{
horizontal = 1;
place = "{137.5, 101.25}";
type = Stem;
},
{
horizontal = 1;
place = "{347.94, 174.31}";
type = Stem;
},
{
place = "{183.62, 111}";
type = Stem;
},
{
place = "{414.37, 111}";
type = Stem;
},
{
place = "{70, 115}";
type = Stem;
},
{
place = "{525, 114.5}";
type = Stem;
}
);
layerId = "37B3F0A2-20CC-4AE3-B6A0-1D169A898E63";
paths = (
{
closed = 1;
nodes = (
"193 46 LINE",
"201 92 LINE",
"253 138 LINE",
"506 138 LINE",
"541 93 LINE",
"533 46 LINE",
"648 46 LINE",
"664 140 LINE",
"580 239 LINE",
"215 239 LINE",
"95 140 LINE",
"78 46 LINE"
);
},
{
closed = 1;
nodes = (
"356 348 LINE",
"387 522 LINE",
"276 522 LINE",
"245 348 LINE"
);
},
{
closed = 1;
nodes = (
"587 348 LINE",
"617 522 LINE",
"506 522 LINE",
"476 348 LINE"
);
}
);
width = 710;
}
);
note = .notdef;
},
{
glyphname = A;
lastChange = "2019-09-30 19:56:48 +0000";
layers = (
{
hints = (
{
horizontal = 1;
place = "{163.12, 127}";
type = Stem;
},
{
horizontal = 1;
place = "{607.12, 129.88}";
type = Stem;
},
{
place = "{5, 701.25}";
type = Stem;
}
);
layerId = "37B3F0A2-20CC-4AE3-B6A0-1D169A898E63";
paths = (
{
closed = 1;
nodes = (
"170.5 0 LINE",
"245 163 LINE",
"524 163 LINE",
"540.75 0 LINE",
"701 0 LINE",
"606 737 LINE",
"355 737 LINE",
"-6 0 LINE"
);
},
{
closed = 1;
nodes = (
"448 607 LINE",
"478 607 LINE",
"511 290 LINE",
"303 290 LINE"
);
}
);
width = 711;
}
);
leftKerningGroup = A;
note = A;
rightKerningGroup = A;
unicode = 0041;
},
{
glyphname = Aacute;
lastChange = "2019-09-30 19:56:48 +0000";
layers = (
{
hints = (
{
horizontal = 1;
place = "{163.12, 127}";
type = Stem;
},
{
horizontal = 1;
place = "{607.12, 129.88}";
type = Stem;
},
{
horizontal = 1;
place = "{794.62, 155.5}";
type = Stem;
},
{
place = "{5, 701.25}";
type = Stem;
},
{
horizontal = 1;
place = "{163.12, 127}";
type = Stem;
},
{
horizontal = 1;
place = "{607.12, 129.88}";
type = Stem;
},
{
place = "{5, 701.25}";
type = Stem;
},
{
horizontal = 1;
place = "{794.62, 155.5}";
type = Stem;
},
{
place = "{445.753, 263.37}";
type = Stem;
}
);
layerId = "37B3F0A2-20CC-4AE3-B6A0-1D169A898E63";
paths = (
{
closed = 1;
nodes = (
"170.5 0 LINE",
"245 163 LINE",
"524 163 LINE",
"540.75 0 LINE",
"701 0 LINE",
"606 737 LINE",
"355 737 LINE",
"-6 0 LINE"
);
},
{
closed = 1;
nodes = (
"448 607 LINE",
"478 607 LINE",
"511 290 LINE",
"303 290 LINE"
);
},
{
closed = 1;
nodes = (
"555.203 795 LINE",
"727.203 950 LINE",
"556.753 950 LINE",
"425.753 795 LINE"
);
}
);
width = 711;
}
);
leftKerningGroup = A;
note = Aacute;
rightKerningGroup = A;
unicode = 00C1;
},
{
glyphname = Abreve;
lastChange = "2019-09-30 19:56:48 +0000";
layers = (
{
hints = (
{
horizontal = 1;
place = "{163.12, 127}";
type = Stem;
},
{
horizontal = 1;
place = "{607.12, 129.88}";
type = Stem;
},
{
horizontal = 1;
place = "{794.62, 86}";
type = Stem;
},
{
place = "{180.94, 106.18}";
type = Stem;
},
{
place = "{419, 106.19}";
type = Stem;
},
{
horizontal = 1;
place = "{868.25, 73.87}";
type = Stem;
},
{
horizontal = 1;
place = "{163.12, 127}";
type = Stem;
},
{
horizontal = 1;
place = "{607.12, 129.88}";
type = Stem;
},
{
place = "{5, 701.25}";
type = Stem;
},
{
horizontal = 1;
place = "{794.62, 86}";
type = Stem;
},
{
place = "{348, 106.19}";
type = Stem;
},
{
place = "{586.06, 106.19}";
type = Stem;
},
{
horizontal = 1;
place = "{868.25, 73.87}";
type = Stem;
}
);
layerId = "37B3F0A2-20CC-4AE3-B6A0-1D169A898E63";
paths = (
{
closed = 1;
nodes = (
"170.5 0 LINE",
"245 163 LINE",
"524 163 LINE",
"540.75 0 LINE",
"701 0 LINE",
"606 737 LINE",
"355 737 LINE",
"-6 0 LINE"
);
},
{
closed = 1;
nodes = (
"448 607 LINE",
"478 607 LINE",
"511 290 LINE",
"303 290 LINE"
);
},
{
closed = 1;
nodes = (
"383.5 795 LINE",
"576.5 795 LINE",
"667.5 868 LINE",
"680.5 942 LINE",
"572.5 942 LINE",
"564.5 898 LINE",
"543.5 881 LINE",
"446.5 881 LINE",
"432.5 898 LINE",
"440.5 942 LINE",
"332.5 942 LINE",
"319.5 868 LINE"
);
}
);
width = 711;
}
);
leftKerningGroup = A;
note = Abreve;
rightKerningGroup = A;
unicode = 0102;
},
{
glyphname = uni1EAE;
lastChange = "2019-09-30 19:56:48 +0000";
layers = (
{
hints = (
{
horizontal = 1;
place = "{163.12, 127}";
type = Stem;
},
{
horizontal = 1;
place = "{607.12, 129.88}";
type = Stem;
},
{
horizontal = 1;
place = "{794.62, 86}";
type = Stem;
},
{
horizontal = 1;
place = "{973.31, 155.5}";
type = Stem;
},
{
place = "{180.94, 106.18}";
type = Stem;
},
{
place = "{419, 106.19}";
type = Stem;
},
{
horizontal = 1;
place = "{868.25, 73.87}";
type = Stem;
},
{
horizontal = 1;
place = "{163.12, 127}";
type = Stem;
},
{
horizontal = 1;
place = "{607.12, 129.88}";
type = Stem;
},
{
place = "{5, 701.25}";
type = Stem;
},
{
horizontal = 1;
place = "{794.62, 86}";
type = Stem;
},
{
horizontal = 1;
place = "{973.31, 155.5}";
type = Stem;
},
{
place = "{-111.57, 106.19}";
type = Stem;
},
{
place = "{126.5, 106.18}";
type = Stem;
},
{
horizontal = 1;
place = "{868.25, 73.87}";
type = Stem;
},
{
horizontal = 1;
place = "{794.62, 86}";
type = Stem;
},
{
place = "{348, 106.19}";
type = Stem;
},
{
place = "{586.06, 106.19}";
type = Stem;
},
{
horizontal = 1;
place = "{868.25, 73.87}";
type = Stem;
},
{
horizontal = 1;
place = "{972.62, 155.5}";
type = Stem;
},
{
place = "{466.5, 263.37}";
type = Stem;
}
);
layerId = "37B3F0A2-20CC-4AE3-B6A0-1D169A898E63";
paths = (
{
closed = 1;
nodes = (
"170.5 0 LINE",
"245 163 LINE",
"524 163 LINE",
"540.75 0 LINE",
"701 0 LINE",
"606 737 LINE",
"355 737 LINE",
"-6 0 LINE"
);
},
{
closed = 1;
nodes = (
"448 607 LINE",
"478 607 LINE",
"511 290 LINE",
"303 290 LINE"
);
},
{
closed = 1;
nodes = (
"576.5 795 LINE",
"667.5 868 LINE",
"680.5 942 LINE",
"572.5 942 LINE",
"564.5 898 LINE",
"543.5 881 LINE",
"446.5 881 LINE",
"432.5 898 LINE",
"440.5 942 LINE",
"332.5 942 LINE",
"319.5 868 LINE",
"383.5 795 LINE"
);
},
{
closed = 1;
nodes = (
"575.95 973 LINE",
"747.95 1128 LINE",
"577.5 1128 LINE",
"446.5 973 LINE"
);
}
);
width = 711;
}
);
leftKerningGroup = A;
note = uni1EAE;
rightKerningGroup = A;
unicode = 1EAE;
},
{
glyphname = uni1EB6;
lastChange = "2019-09-30 19:56:48 +0000";
layers = (
{
hints = (
{
horizontal = 1;
place = "{-189.81, 132.68}";
type = Stem;
},
{
horizontal = 1;
place = "{163.12, 127}";
type = Stem;
},
{
horizontal = 1;
place = "{607.12, 129.88}";
type = Stem;
},
{
horizontal = 1;
place = "{794.62, 86}";
type = Stem;
},
{
place = "{419, 106.19}";
type = Stem;
},
{
horizontal = 1;
place = "{868.25, 73.87}";
type = Stem;
},
{
place = "{180.94, 106.18}";
type = Stem;
},
{
place = "{276.06, 154}";
type = Stem;
},
{
horizontal = 1;
place = "{163.12, 127}";
type = Stem;
},
{
horizontal = 1;
place = "{607.12, 129.88}";
type = Stem;
},
{
place = "{5, 701.25}";
type = Stem;
},
{
horizontal = 1;
place = "{794.62, 86}";
type = Stem;
},
{
place = "{348, 106.19}";
type = Stem;
},
{
place = "{586.06, 106.19}";
type = Stem;
},
{
horizontal = 1;
place = "{868.25, 73.87}";
type = Stem;
},
{
horizontal = 1;
place = "{-189.81, 132.68}";
type = Stem;
},
{
place = "{16.625, 154}";
type = Stem;
},
{
horizontal = 1;
place = "{-190.38, 132.69}";
type = Stem;
},
{
place = "{315.625, 154}";
type = Stem;
},
{
horizontal = 1;
place = "{-190.38, 132.69}";
type = Stem;
},
{
place = "{315.625, 154}";
type = Stem;
},
{
horizontal = 1;
place = "{-190.38, 132.69}";
type = Stem;
},
{
place = "{315.625, 154}";
type = Stem;
}
);
layerId = "37B3F0A2-20CC-4AE3-B6A0-1D169A898E63";
paths = (
{
closed = 1;
nodes = (
"170.5 0 LINE",
"245 163 LINE",
"524 163 LINE",
"540.75 0 LINE",
"701 0 LINE",
"606 737 LINE",
"355 737 LINE",
"-6 0 LINE"
);
},
{
closed = 1;
nodes = (
"448 607 LINE",
"478 607 LINE",
"511 290 LINE",
"303 290 LINE"
);
},
{
closed = 1;
nodes = (
"576.5 795 LINE",
"667.5 868 LINE",
"680.5 942 LINE",
"572.5 942 LINE",
"564.5 898 LINE",
"543.5 881 LINE",
"446.5 881 LINE",
"432.5 898 LINE",
"440.5 942 LINE",
"332.5 942 LINE",
"319.5 868 LINE",
"383.5 795 LINE"
);
},
{
closed = 1;
nodes = (
"400.625 -190 LINE",
"424.022 -57.31 LINE",
"268.022 -57.31 LINE",
"244.625 -190 LINE"
);
}
);
width = 711;
}
);
leftKerningGroup = A;
note = uni1EB6;
rightKerningGroup = A;
unicode = 1EB6;
},
{
glyphname = uni1EB0;
lastChange = "2019-09-30 19:56:48 +0000";
layers = (
{
hints = (
{
horizontal = 1;
place = "{163.12, 127}";
type = Stem;
},
{
horizontal = 1;
place = "{607.12, 129.88}";
type = Stem;
},
{
horizontal = 1;
place = "{794.62, 86}";
type = Stem;
},
{
horizontal = 1;
place = "{973.31, 155.5}";
type = Stem;
},
{
place = "{180.94, 106.18}";
type = Stem;
},
{
place = "{419, 106.19}";
type = Stem;
},
{
horizontal = 1;
place = "{868.25, 73.87}";
type = Stem;
},
{
horizontal = 1;
place = "{163.12, 127}";
type = Stem;
},
{
horizontal = 1;
place = "{607.12, 129.88}";
type = Stem;
},
{
place = "{5, 701.25}";
type = Stem;
},
{
horizontal = 1;
place = "{794.62, 86}";
type = Stem;
},
{
horizontal = 1;
place = "{973.31, 155.5}";
type = Stem;
},
{
place = "{-78.25, 106.19}";
type = Stem;
},
{
place = "{159.81, 106.19}";
type = Stem;
},
{
horizontal = 1;
place = "{868.25, 73.87}";
type = Stem;
},
{
horizontal = 1;
place = "{794.62, 86}";
type = Stem;
},
{
place = "{348, 106.19}";
type = Stem;
},
{
place = "{586.06, 106.19}";
type = Stem;
},
{
horizontal = 1;
place = "{868.25, 73.87}";
type = Stem;
},
{
horizontal = 1;
place = "{964.12, 155.5}";
type = Stem;
},
{
place = "{346.947, 263.37}";
type = Stem;
}
);
layerId = "37B3F0A2-20CC-4AE3-B6A0-1D169A898E63";
paths = (
{
closed = 1;
nodes = (
"170.5 0 LINE",
"245 163 LINE",
"524 163 LINE",
"540.75 0 LINE",
"701 0 LINE",
"606 737 LINE",
"355 737 LINE",
"-6 0 LINE"
);
},
{
closed = 1;
nodes = (
"448 607 LINE",
"478 607 LINE",
"511 290 LINE",
"303 290 LINE"
);
},
{
closed = 1;
nodes = (
"576.5 795 LINE",
"667.5 868 LINE",
"680.5 942 LINE",
"572.5 942 LINE",
"564.5 898 LINE",
"543.5 881 LINE",
"446.5 881 LINE",
"432.5 898 LINE",
"440.5 942 LINE",
"332.5 942 LINE",
"319.5 868 LINE",
"383.5 795 LINE"
);
},
{
closed = 1;
nodes = (
"452.443 973 LINE",
"561.557 973 LINE",
"485.557 1128 LINE",
"335.443 1128 LINE"
);
}
);
width = 711;
}
);
leftKerningGroup = A;
note = uni1EB0;
rightKerningGroup = A;
unicode = 1EB0;
},
{
glyphname = uni1EB2;
lastChange = "2019-09-30 19:56:48 +0000";
layers = (
{
hints = (
{
horizontal = 1;
place = "{163.12, 127}";
type = Stem;
},
{
horizontal = 1;
place = "{607.12, 129.88}";
type = Stem;
},
{
horizontal = 1;
place = "{794.62, 86}";
type = Stem;
},
{
horizontal = 1;
place = "{1100.3, 95.65}";
type = Stem;
},
{
place = "{293.27, 103.65}";
type = Stem;
},
{
place = "{419, 106.19}";
type = Stem;
},
{
horizontal = 1;
place = "{973.5, 76.3}";
type = Stem;
},
{
place = "{180.94, 106.18}";
type = Stem;
},
{
place = "{363.22, 106.5}";
type = Stem;
},
{
place = "{225.82, 102.15}";
type = Stem;
},
{
horizontal = 1;
place = "{868.25, 73.87}";
type = Stem;
},
{
horizontal = 1;
place = "{163.12, 127}";
type = Stem;
},
{
horizontal = 1;
place = "{607.12, 129.88}";
type = Stem;
},
{
place = "{5, 701.25}";
type = Stem;
},
{
horizontal = 1;
place = "{794.62, 86}";
type = Stem;
},
{
horizontal = 1;
place = "{973.5, 76.3}";
type = Stem;
},
{
horizontal = 1;
place = "{1100.3, 95.65}";
type = Stem;
},
{
place = "{33.08, 103.65}";
type = Stem;
},
{
place = "{158.81, 106.19}";
type = Stem;
},
{
place = "{-34.37, 102.15}";
type = Stem;
},
{
place = "{103.03, 106.5}";
type = Stem;
},
{
place = "{-79.25, 106.19}";
type = Stem;
},
{
horizontal = 1;
place = "{868.25, 73.87}";
type = Stem;
},
{
horizontal = 1;
place = "{794.62, 86}";
type = Stem;
},
{
place = "{348, 106.19}";
type = Stem;
},
{
place = "{586.06, 106.19}";
type = Stem;
},
{
horizontal = 1;
place = "{868.25, 73.87}";
type = Stem;
},
{
horizontal = 1;
place = "{973.135, 76.3}";
type = Stem;
},
{
horizontal = 1;
place = "{1099.935, 95.65}";
type = Stem;
},
{
place = "{170.322, 103.65}";
type = Stem;
},
{
place = "{102.872, 102.15}";
type = Stem;
},
{
place = "{240.272, 106.5}";
type = Stem;
}
);
layerId = "37B3F0A2-20CC-4AE3-B6A0-1D169A898E63";
paths = (
{
closed = 1;
nodes = (
"170.5 0 LINE",
"245 163 LINE",
"524 163 LINE",
"540.75 0 LINE",
"701 0 LINE",
"606 737 LINE",
"355 737 LINE",
"-6 0 LINE"
);
},
{
closed = 1;
nodes = (
"448 607 LINE",
"478 607 LINE",
"511 290 LINE",
"303 290 LINE"
);
},
{
closed = 1;
nodes = (
"576.5 795 LINE",
"667.5 868 LINE",
"680.5 942 LINE",
"572.5 942 LINE",
"564.5 898 LINE",
"543.5 881 LINE",
"446.5 881 LINE",
"432.5 898 LINE",
"440.5 942 LINE",
"332.5 942 LINE",
"319.5 868 LINE",
"383.5 795 LINE"
);
},
{
closed = 1;
nodes = (
"510.432 1100.135 LINE",
"515.432 1125.135 LINE",
"550.432 1125.135 LINE",
"545.432 1098.135 LINE",
"466.432 1049.135 LINE",
"452.432 973.135 LINE",
"558.432 973.135 LINE",
"565.432 1013.135 LINE",
"647.432 1061.135 LINE",
"663.432 1151.135 LINE",
"624.432 1195.135 LINE",
"470.432 1195.135 LINE",
"415.432 1150.135 LINE",
"406.432 1100.135 LINE"
);
}
);
width = 711;
}
);
leftKerningGroup = A;
note = uni1EB2;
rightKerningGroup = A;
unicode = 1EB2;
},
{
glyphname = uni1EB4;
lastChange = "2019-09-30 19:56:48 +0000";
layers = (
{
hints = (
{
horizontal = 1;
place = "{163.12, 127}";
type = Stem;
},
{
horizontal = 1;
place = "{607.12, 129.88}";
type = Stem;
},
{
horizontal = 1;
place = "{794.62, 86}";
type = Stem;
},
{
horizontal = 1;
place = "{1037.75, 84.94}";
type = Stem;
},
{
place = "{148.31, 97.44}";
type = Stem;
},
{
place = "{419, 106.19}";
type = Stem;
},
{
horizontal = 1;
place = "{973.25, 86.94}";
type = Stem;
},
{
place = "{180.94, 106.18}";
type = Stem;
},
{
place = "{469.37, 97.69}";
type = Stem;
},
{
horizontal = 1;
place = "{868.25, 73.87}";
type = Stem;
},
{
horizontal = 1;
place = "{163.12, 127}";
type = Stem;
},
{
horizontal = 1;
place = "{607.12, 129.88}";
type = Stem;
},
{
place = "{5, 701.25}";
type = Stem;
},
{
horizontal = 1;
place = "{794.62, 86}";
type = Stem;
},
{
horizontal = 1;
place = "{1037.75, 84.94}";
type = Stem;
},
{
place = "{-155.25, 97.44}";
type = Stem;
},
{
place = "{115.44, 106.18}";
type = Stem;
},
{
horizontal = 1;
place = "{973.25, 86.94}";
type = Stem;
},
{
place = "{-122.63, 106.19}";
type = Stem;
},
{
place = "{165.81, 97.69}";
type = Stem;
},
{
horizontal = 1;
place = "{868.25, 73.87}";
type = Stem;
},
{
horizontal = 1;
place = "{794.62, 86}";
type = Stem;
},
{
place = "{348, 106.19}";
type = Stem;
},
{
place = "{586.06, 106.19}";
type = Stem;
},
{
horizontal = 1;
place = "{868.25, 73.87}";
type = Stem;
},
{
horizontal = 1;
place = "{1037.12, 84.94}";
type = Stem;
},
{
place = "{332.25, 97.44}";
type = Stem;
},
{
place = "{653.31, 97.69}";
type = Stem;
},
{
horizontal = 1;
place = "{972.62, 86.94}";
type = Stem;
}
);
layerId = "37B3F0A2-20CC-4AE3-B6A0-1D169A898E63";
paths = (
{
closed = 1;
nodes = (
"170.5 0 LINE",
"245 163 LINE",
"524 163 LINE",
"540.75 0 LINE",
"701 0 LINE",
"606 737 LINE",
"355 737 LINE",
"-6 0 LINE"
);
},
{
closed = 1;
nodes = (
"448 607 LINE",
"478 607 LINE",
"511 290 LINE",
"303 290 LINE"
);
},
{
closed = 1;
nodes = (
"576.5 795 LINE",
"667.5 868 LINE",
"680.5 942 LINE",
"572.5 942 LINE",
"564.5 898 LINE",
"543.5 881 LINE",
"446.5 881 LINE",
"432.5 898 LINE",
"440.5 942 LINE",
"332.5 942 LINE",
"319.5 868 LINE",
"383.5 795 LINE"
);
},
{
closed = 1;
nodes = (
"398.5 978 LINE",
"403.5 1003 LINE",
"433.5 1037 LINE",
"459.5 1037 LINE",
"505.5 973 LINE",
"653.5 973 LINE",
"732.5 1042 LINE",
"747.5 1117 LINE",
"646.5 1117 LINE",
"642.5 1091 LINE",
"612.5 1060 LINE",
"586.5 1060 LINE",
"539.5 1122 LINE",
"391.5 1122 LINE",
"313.5 1054 LINE",
"298.5 978 LINE"
);
}
);
width = 711;
}
);
leftKerningGroup = A;
note = uni1EB4;
rightKerningGroup = A;
unicode = 1EB4;
},
{
glyphname = Acircumflex;
lastChange = "2019-09-30 19:56:48 +0000";
layers = (
{
hints = (
{
horizontal = 1;
place = "{163.12, 127}";
type = Stem;
},
{
horizontal = 1;
place = "{607.12, 129.88}";
type = Stem;
},
{
horizontal = 1;
place = "{794.62, 147.5}";
type = Stem;
},
{
place = "{5, 701.25}";
type = Stem;
},
{
horizontal = 1;
place = "{163.12, 127}";
type = Stem;
},
{
horizontal = 1;
place = "{607.12, 129.88}";
type = Stem;
},
{
place = "{5, 701.25}";
type = Stem;
},
{
horizontal = 1;
place = "{794.62, 147.5}";
type = Stem;
},
{
place = "{315.5, 380.25}";
type = Stem;
}
);
layerId = "37B3F0A2-20CC-4AE3-B6A0-1D169A898E63";
paths = (
{
closed = 1;
nodes = (
"170.5 0 LINE",
"245 163 LINE",
"524 163 LINE",
"540.75 0 LINE",
"701 0 LINE",
"606 737 LINE",
"355 737 LINE",
"-6 0 LINE"
);
},
{
closed = 1;
nodes = (
"448 607 LINE",
"478 607 LINE",
"511 290 LINE",
"303 290 LINE"
);
},
{
closed = 1;
nodes = (
"412 795 LINE",
"493 865 LINE",
"549 795 LINE",
"669 795 LINE",
"586 942 LINE",
"423 942 LINE",
"289 795 LINE"
);
}
);
width = 711;
}
);
leftKerningGroup = A;
note = Acircumflex;
rightKerningGroup = A;
unicode = 00C2;
},
{
glyphname = uni1EA4;
lastChange = "2019-09-30 19:56:48 +0000";
layers = (
{
hints = (
{
horizontal = 1;
place = "{163.12, 127}";
type = Stem;
},
{
horizontal = 1;
place = "{607.12, 129.88}";
type = Stem;
},
{
horizontal = 1;
place = "{876.74, 155.5}";
type = Stem;
},
{
place = "{5, 785.87}";
type = Stem;
},
{
horizontal = 1;
place = "{794.62, 147.5}";
type = Stem;
},
{
horizontal = 1;
place = "{163.12, 127}";
type = Stem;
},
{
horizontal = 1;
place = "{607.12, 129.88}";
type = Stem;
},
{
place = "{5, 701.25}";
type = Stem;
},
{
horizontal = 1;
place = "{876.74, 155.5}";
type = Stem;
},
{
place = "{-391.44, 627.94}";
type = Stem;
},
{
horizontal = 1;
place = "{794.62, 147.5}";
type = Stem;
},
{
horizontal = 1;
place = "{794.62, 147.5}";
type = Stem;
},
{
place = "{315.5, 380.25}";
type = Stem;
},
{
horizontal = 1;
place = "{876.62, 155.5}";
type = Stem;
},
{
place = "{688, 263.37}";
type = Stem;
}
);
layerId = "37B3F0A2-20CC-4AE3-B6A0-1D169A898E63";
paths = (
{
closed = 1;
nodes = (
"170.5 0 LINE",
"245 163 LINE",
"524 163 LINE",
"540.75 0 LINE",
"701 0 LINE",
"606 737 LINE",
"355 737 LINE",
"-6 0 LINE"
);
},
{
closed = 1;
nodes = (
"448 607 LINE",
"478 607 LINE",
"511 290 LINE",
"303 290 LINE"
);
},
{
closed = 1;
nodes = (
"412 795 LINE",
"493 865 LINE",
"549 795 LINE",
"669 795 LINE",
"586 942 LINE",
"423 942 LINE",
"289 795 LINE"
);
},
{
closed = 1;
nodes = (
"797.45 877 LINE",
"969.45 1032 LINE",
"799 1032 LINE",
"668 877 LINE"
);
}
);
width = 711;
}
);
leftKerningGroup = A;
note = uni1EA4;
rightKerningGroup = A;
unicode = 1EA4;
},
{
glyphname = uni1EAC;
lastChange = "2019-09-30 19:56:48 +0000";
layers = (
{
hints = (
{
horizontal = 1;
place = "{-189.81, 132.68}";
type = Stem;
},
{
horizontal = 1;
place = "{163.12, 127}";
type = Stem;
},
{
horizontal = 1;
place = "{607.12, 129.88}";
type = Stem;
},
{
horizontal = 1;
place = "{794.62, 147.5}";
type = Stem;
},
{
place = "{276.06, 154}";
type = Stem;
},
{
horizontal = 1;
place = "{163.12, 127}";
type = Stem;
},
{
horizontal = 1;
place = "{607.12, 129.88}";
type = Stem;
},
{
place = "{5, 701.25}";
type = Stem;
},
{
horizontal = 1;
place = "{794.62, 147.5}";
type = Stem;
},
{
place = "{315.5, 380.25}";
type = Stem;
},
{
horizontal = 1;
place = "{-189.81, 132.68}";
type = Stem;
},
{
place = "{16.625, 154}";
type = Stem;
},
{
horizontal = 1;
place = "{-190.38, 132.69}";
type = Stem;
},
{
place = "{315.625, 154}";
type = Stem;
},
{
horizontal = 1;
place = "{-190.38, 132.69}";
type = Stem;
},
{
place = "{315.625, 154}";
type = Stem;
},
{
horizontal = 1;
place = "{-190.38, 132.69}";
type = Stem;
},
{
place = "{315.625, 154}";
type = Stem;
}
);
layerId = "37B3F0A2-20CC-4AE3-B6A0-1D169A898E63";
paths = (
{
closed = 1;
nodes = (
"170.5 0 LINE",
"245 163 LINE",
"524 163 LINE",
"540.75 0 LINE",
"701 0 LINE",
"606 737 LINE",
"355 737 LINE",
"-6 0 LINE"
);
},
{
closed = 1;
nodes = (
"448 607 LINE",
"478 607 LINE",
"511 290 LINE",
"303 290 LINE"
);
},
{
closed = 1;
nodes = (
"412 795 LINE",
"493 865 LINE",
"549 795 LINE",
"669 795 LINE",
"586 942 LINE",
"423 942 LINE",
"289 795 LINE"
);
},
{
closed = 1;
nodes = (
"400.625 -190 LINE",
"424.022 -57.31 LINE",
"268.022 -57.31 LINE",
"244.625 -190 LINE"
);
}
);
width = 711;
}
);
leftKerningGroup = A;
note = uni1EAC;
rightKerningGroup = A;
unicode = 1EAC;
},
{
glyphname = uni1EA6;
lastChange = "2019-09-30 19:56:48 +0000";
layers = (
{
hints = (
{
horizontal = 1;
place = "{163.12, 127}";
type = Stem;
},
{
horizontal = 1;
place = "{607.12, 129.88}";
type = Stem;
},
{
horizontal = 1;
place = "{876.76, 155.5}";
type = Stem;
},
{
place = "{-84.75, 791}";
type = Stem;
},
{
horizontal = 1;
place = "{794.62, 147.5}";
type = Stem;
},
{
horizontal = 1;
place = "{163.12, 127}";
type = Stem;
},
{
horizontal = 1;
place = "{607.12, 129.88}";
type = Stem;
},
{
place = "{5, 701.25}";
type = Stem;
},
{
horizontal = 1;
place = "{876.76, 155.5}";
type = Stem;
},
{
place = "{-600.073, 627.94}";
type = Stem;
},
{
horizontal = 1;
place = "{794.62, 147.5}";
type = Stem;
},
{
horizontal = 1;
place = "{794.62, 147.5}";
type = Stem;
},
{
place = "{315.5, 380.25}";
type = Stem;
},
{
horizontal = 1;
place = "{868.12, 155.5}";
type = Stem;
},
{
place = "{105.757, 263.37}";
type = Stem;
}
);
layerId = "37B3F0A2-20CC-4AE3-B6A0-1D169A898E63";
paths = (
{
closed = 1;
nodes = (
"170.5 0 LINE",
"245 163 LINE",
"524 163 LINE",
"540.75 0 LINE",
"701 0 LINE",
"606 737 LINE",
"355 737 LINE",
"-6 0 LINE"
);
},
{
closed = 1;
nodes = (
"448 607 LINE",
"478 607 LINE",
"511 290 LINE",
"303 290 LINE"
);
},
{
closed = 1;
nodes = (
"412 795 LINE",
"493 865 LINE",
"549 795 LINE",
"669 795 LINE",
"586 942 LINE",
"423 942 LINE",
"289 795 LINE"
);
},
{
closed = 1;
nodes = (
"211.253 877 LINE",
"320.367 877 LINE",
"244.367 1032 LINE",
"94.253 1032 LINE"
);
}
);
width = 711;
}
);
leftKerningGroup = A;
note = uni1EA6;
rightKerningGroup = A;
unicode = 1EA6;
},
{
glyphname = uni1EA8;
lastChange = "2019-09-30 19:56:48 +0000";
layers = (
{
hints = (
{
horizontal = 1;
place = "{163.12, 127}";
type = Stem;
},
{
horizontal = 1;
place = "{607.12, 129.88}";
type = Stem;
},
{
horizontal = 1;
place = "{794.62, 147.5}";
type = Stem;
},
{
horizontal = 1;
place = "{1003.89, 95.65}";
type = Stem;
},
{
place = "{511.14, 103.65}";
type = Stem;
},
{
place = "{581.09, 106.5}";
type = Stem;
},
{
place = "{443.69, 102.15}";
type = Stem;
},
{
horizontal = 1;
place = "{163.12, 127}";
type = Stem;
},
{
horizontal = 1;
place = "{607.12, 129.88}";
type = Stem;
},
{
place = "{5, 701.25}";
type = Stem;
},
{
horizontal = 1;
place = "{794.62, 147.5}";
type = Stem;
},
{
horizontal = 1;
place = "{1003.89, 95.65}";
type = Stem;
},
{
place = "{49.89, 103.65}";
type = Stem;
},
{
place = "{-17.56, 102.15}";
type = Stem;
},
{
place = "{119.84, 106.5}";
type = Stem;
},
{
horizontal = 1;
place = "{794.62, 147.5}";
type = Stem;
},
{
place = "{315.5, 380.25}";
type = Stem;
},
{
horizontal = 1;
place = "{877, 76.3}";
type = Stem;
},
{
horizontal = 1;
place = "{1003.8, 95.65}";
type = Stem;
},
{
place = "{369.89, 103.65}";
type = Stem;
},
{
place = "{302.44, 102.15}";
type = Stem;
},
{
place = "{439.84, 106.5}";
type = Stem;
}
);
layerId = "37B3F0A2-20CC-4AE3-B6A0-1D169A898E63";
paths = (
{
closed = 1;
nodes = (
"170.5 0 LINE",
"245 163 LINE",
"524 163 LINE",
"540.75 0 LINE",
"701 0 LINE",
"606 737 LINE",
"355 737 LINE",
"-6 0 LINE"
);
},
{
closed = 1;
nodes = (
"448 607 LINE",
"478 607 LINE",
"511 290 LINE",
"303 290 LINE"
);
},
{
closed = 1;
nodes = (
"412 795 LINE",
"493 865 LINE",
"549 795 LINE",
"669 795 LINE",
"586 942 LINE",
"423 942 LINE",
"289 795 LINE"
);
},
{
closed = 1;
nodes = (
"710 1004 LINE",
"715 1029 LINE",
"750 1029 LINE",
"745 1002 LINE",
"666 953 LINE",
"652 877 LINE",
"758 877 LINE",
"765 917 LINE",
"847 965 LINE",
"863 1055 LINE",
"824 1099 LINE",
"670 1099 LINE",
"615 1054 LINE",
"606 1004 LINE"
);
}
);
width = 711;
}
);
leftKerningGroup = A;
note = uni1EA8;
rightKerningGroup = A;
unicode = 1EA8;
},
{
glyphname = uni1EAA;
lastChange = "2019-09-30 19:56:48 +0000";
layers = (
{
hints = (
{
horizontal = 1;
place = "{163.12, 127}";
type = Stem;
},
{
horizontal = 1;
place = "{607.12, 129.88}";
type = Stem;
},
{
horizontal = 1;
place = "{794.62, 147.5}";
type = Stem;
},
{
horizontal = 1;
place = "{1037.44, 84.93}";
type = Stem;
},
{
place = "{148.31, 97.44}";
type = Stem;
},
{
place = "{469.37, 97.69}";
type = Stem;
},
{
horizontal = 1;
place = "{972.94, 86.93}";
type = Stem;
},
{
horizontal = 1;
place = "{163.12, 127}";
type = Stem;
},
{
horizontal = 1;
place = "{607.12, 129.88}";
type = Stem;
},
{
place = "{5, 701.25}";
type = Stem;
},
{
horizontal = 1;
place = "{794.62, 147.5}";
type = Stem;
},
{
horizontal = 1;
place = "{1037.44, 84.93}";
type = Stem;
},
{
place = "{-186.75, 97.44}";
type = Stem;
},
{
place = "{134.31, 97.69}";
type = Stem;
},
{
horizontal = 1;
place = "{972.94, 86.93}";
type = Stem;
},
{
horizontal = 1;
place = "{794.62, 147.5}";
type = Stem;
},
{
place = "{315.5, 380.25}";
type = Stem;
},
{
horizontal = 1;
place = "{1037.12, 84.94}";
type = Stem;
},
{
place = "{335.75, 97.44}";
type = Stem;
},
{
place = "{656.81, 97.69}";
type = Stem;
},
{
horizontal = 1;
place = "{972.62, 86.94}";
type = Stem;
}
);
layerId = "37B3F0A2-20CC-4AE3-B6A0-1D169A898E63";
paths = (
{
closed = 1;
nodes = (
"170.5 0 LINE",
"245 163 LINE",
"524 163 LINE",
"540.75 0 LINE",
"701 0 LINE",
"606 737 LINE",
"355 737 LINE",
"-6 0 LINE"
);
},
{
closed = 1;
nodes = (
"448 607 LINE",
"478 607 LINE",
"511 290 LINE",
"303 290 LINE"
);
},
{
closed = 1;
nodes = (
"412 795 LINE",
"493 865 LINE",
"549 795 LINE",
"669 795 LINE",
"586 942 LINE",
"423 942 LINE",
"289 795 LINE"
);
},
{
closed = 1;
nodes = (
"402 978 LINE",
"407 1003 LINE",
"437 1037 LINE",
"463 1037 LINE",
"509 973 LINE",
"657 973 LINE",
"736 1042 LINE",
"751 1117 LINE",
"650 1117 LINE",
"646 1091 LINE",
"616 1060 LINE",
"590 1060 LINE",
"543 1122 LINE",
"395 1122 LINE",
"317 1054 LINE",
"302 978 LINE"
);
}
);
width = 711;
}
);
leftKerningGroup = A;
note = uni1EAA;
rightKerningGroup = A;
unicode = 1EAA;
},
{
glyphname = uni0200;
lastChange = "2019-09-30 19:56:48 +0000";
layers = (
{
hints = (
{
horizontal = 1;
place = "{163.12, 127}";
type = Stem;
},
{
horizontal = 1;
place = "{607.12, 129.88}";
type = Stem;
},
{
horizontal = 1;
place = "{794.62, 155.5}";
type = Stem;
},
{
place = "{5, 701.25}";
type = Stem;
},
{
horizontal = 1;
place = "{163.12, 127}";
type = Stem;
},
{
horizontal = 1;
place = "{607.12, 129.88}";
type = Stem;
},
{
place = "{5, 701.25}";
type = Stem;
},
{
horizontal = 1;
place = "{794.62, 155.5}";
type = Stem;
},
{
place = "{-309.978, 459.75}";
type = Stem;
},
{
horizontal = 1;
place = "{786.12, 155.5}";
type = Stem;
},
{
place = "{414.886, 263.37}";
type = Stem;
},
{
horizontal = 1;
place = "{786.12, 155.5}";
type = Stem;
},
{
place = "{217.772, 263.37}";
type = Stem;
}
);
layerId = "37B3F0A2-20CC-4AE3-B6A0-1D169A898E63";
paths = (
{
closed = 1;
nodes = (
"170.5 0 LINE",
"245 163 LINE",
"524 163 LINE",
"540.75 0 LINE",
"701 0 LINE",
"606 737 LINE",
"355 737 LINE",
"-6 0 LINE"
);
},
{
closed = 1;
nodes = (
"448 607 LINE",
"478 607 LINE",
"511 290 LINE",
"303 290 LINE"
);
},
{
closed = 1;
nodes = (
"629.496 795 LINE",
"553.496 950 LINE",
"403.382 950 LINE",
"520.382 795 LINE"
);
},
{
closed = 1;
nodes = (
"323.268 795 LINE",
"432.382 795 LINE",
"356.382 950 LINE",
"206.268 950 LINE"
);
}
);
width = 711;
}
);
leftKerningGroup = A;
note = uni0200;
rightKerningGroup = A;
unicode = 0200;
},
{
glyphname = Adieresis;
lastChange = "2019-09-30 19:56:48 +0000";
layers = (
{
hints = (
{
horizontal = 1;
place = "{163.12, 127}";
type = Stem;
},
{
horizontal = 1;
place = "{607.12, 129.88}";
type = Stem;
},
{
horizontal = 1;
place = "{794.62, 132.75}";
type = Stem;
},
{
place = "{141.56, 148}";
type = Stem;
},
{
place = "{416.56, 148}";
type = Stem;
},
{
horizontal = 1;
place = "{163.12, 127}";
type = Stem;
},
{
horizontal = 1;
place = "{607.12, 129.88}";
type = Stem;
},
{
place = "{5, 701.25}";
type = Stem;
},
{
horizontal = 1;
place = "{794.62, 132.75}";
type = Stem;
},
{
place = "{305.5, 148}";
type = Stem;
},
{
place = "{580.5, 148}";
type = Stem;
}
);
layerId = "37B3F0A2-20CC-4AE3-B6A0-1D169A898E63";
paths = (
{
closed = 1;
nodes = (
"170.5 0 LINE",
"245 163 LINE",
"524 163 LINE",
"540.75 0 LINE",
"701 0 LINE",
"606 737 LINE",
"355 737 LINE",
"-6 0 LINE"
);
},
{
closed = 1;
nodes = (
"448 607 LINE",
"478 607 LINE",
"511 290 LINE",
"303 290 LINE"
);
},
{
closed = 1;
nodes = (
"703 795 LINE",
"726 927 LINE",
"576 927 LINE",
"553 795 LINE"
);
},
{
closed = 1;
nodes = (
"428 795 LINE",
"451 927 LINE",
"301 927 LINE",
"278 795 LINE"
);
}
);
width = 711;
}
);
leftKerningGroup = A;
note = Adieresis;
rightKerningGroup = A;
unicode = 00C4;
},
{
glyphname = uni1EA0;
lastChange = "2019-09-30 19:56:48 +0000";
layers = (
{
hints = (
{
horizontal = 1;
place = "{-189.81, 132.68}";
type = Stem;
},
{
horizontal = 1;
place = "{163.12, 127}";
type = Stem;
},
{
horizontal = 1;
place = "{607.12, 129.88}";
type = Stem;
},
{
place = "{276.06, 154}";
type = Stem;
},
{
horizontal = 1;
place = "{163.12, 127}";
type = Stem;
},
{
horizontal = 1;
place = "{607.12, 129.88}";
type = Stem;
},
{
place = "{5, 701.25}";
type = Stem;
},
{
horizontal = 1;
place = "{-189.81, 132.68}";
type = Stem;
},
{
place = "{16.625, 154}";
type = Stem;
},
{
horizontal = 1;
place = "{-190.38, 132.69}";
type = Stem;
},
{
place = "{315.625, 154}";
type = Stem;
},
{
horizontal = 1;
place = "{-190.38, 132.69}";
type = Stem;
},
{
place = "{315.625, 154}";
type = Stem;
},
{
horizontal = 1;
place = "{-190.38, 132.69}";
type = Stem;
},
{
place = "{315.625, 154}";
type = Stem;
}
);
layerId = "37B3F0A2-20CC-4AE3-B6A0-1D169A898E63";
paths = (
{
closed = 1;
nodes = (
"170.5 0 LINE",
"245 163 LINE",
"524 163 LINE",
"540.75 0 LINE",
"701 0 LINE",
"606 737 LINE",
"355 737 LINE",
"-6 0 LINE"
);
},
{
closed = 1;
nodes = (
"448 607 LINE",
"478 607 LINE",
"511 290 LINE",
"303 290 LINE"
);
},
{
closed = 1;
nodes = (
"400.625 -190 LINE",
"424.022 -57.31 LINE",
"268.022 -57.31 LINE",
"244.625 -190 LINE"
);
}
);
width = 711;
}
);
leftKerningGroup = A;
note = uni1EA0;
rightKerningGroup = A;
unicode = 1EA0;
},
{
glyphname = Agrave;
lastChange = "2019-09-30 19:56:48 +0000";
layers = (
{
hints = (
{
horizontal = 1;
place = "{163.12, 127}";
type = Stem;
},
{
horizontal = 1;
place = "{607.12, 129.88}";
type = Stem;
},
{
horizontal = 1;
place = "{794.62, 155.5}";
type = Stem;
},
{
place = "{5, 701.25}";
type = Stem;
},
{
horizontal = 1;
place = "{163.12, 127}";
type = Stem;
},
{
horizontal = 1;
place = "{607.12, 129.88}";
type = Stem;
},
{
place = "{5, 701.25}";
type = Stem;
},
{
horizontal = 1;
place = "{786.12, 155.5}";
type = Stem;
},
{
place = "{320.5, 263.37}";
type = Stem;
}
);
layerId = "37B3F0A2-20CC-4AE3-B6A0-1D169A898E63";
paths = (
{
closed = 1;
nodes = (
"170.5 0 LINE",
"245 163 LINE",
"524 163 LINE",
"540.75 0 LINE",
"701 0 LINE",
"606 737 LINE",
"355 737 LINE",
"-6 0 LINE"
);
},
{
closed = 1;
nodes = (
"448 607 LINE",
"478 607 LINE",
"511 290 LINE",
"303 290 LINE"
);
},
{
closed = 1;
nodes = (
"425.996 795 LINE",
"535.11 795 LINE",
"459.11 950 LINE",
"308.996 950 LINE"
);
}
);
width = 711;
}
);
leftKerningGroup = A;
note = Agrave;
rightKerningGroup = A;
unicode = 00C0;
},
{
glyphname = uni1EA2;
lastChange = "2019-09-30 19:56:48 +0000";
layers = (
{
hints = (
{
horizontal = 1;
place = "{163.12, 127}";
type = Stem;
},
{
horizontal = 1;
place = "{607.12, 129.88}";
type = Stem;
},
{
horizontal = 1;
place = "{921.8, 95.65}";
type = Stem;
},
{
place = "{299.7, 103.65}";
type = Stem;
},
{
horizontal = 1;
place = "{795, 76.3}";
type = Stem;
},
{
place = "{369.65, 106.5}";
type = Stem;
},
{
place = "{232.25, 102.15}";
type = Stem;
},
{
horizontal = 1;
place = "{163.12, 127}";
type = Stem;
},
{
horizontal = 1;
place = "{607.12, 129.88}";
type = Stem;
},
{
place = "{5, 701.25}";
type = Stem;
},
{
horizontal = 1;
place = "{795, 76.3}";
type = Stem;
},
{
horizontal = 1;
place = "{921.8, 95.65}";
type = Stem;
},
{
place = "{144.89, 103.65}";
type = Stem;
},
{
place = "{77.44, 102.15}";
type = Stem;
},
{
place = "{214.84, 106.5}";
type = Stem;
}
);
layerId = "37B3F0A2-20CC-4AE3-B6A0-1D169A898E63";
paths = (
{
closed = 1;
nodes = (
"170.5 0 LINE",
"245 163 LINE",
"524 163 LINE",
"540.75 0 LINE",
"701 0 LINE",
"606 737 LINE",
"355 737 LINE",
"-6 0 LINE"
);
},
{
closed = 1;
nodes = (
"448 607 LINE",
"478 607 LINE",
"511 290 LINE",
"303 290 LINE"
);
},
{
closed = 1;
nodes = (
"485 922 LINE",
"490 947 LINE",
"525 947 LINE",
"520 920 LINE",
"441 871 LINE",
"427 795 LINE",
"533 795 LINE",
"540 835 LINE",
"622 883 LINE",
"638 973 LINE",
"599 1017 LINE",
"445 1017 LINE",
"390 972 LINE",
"381 922 LINE"
);
}
);
width = 711;
}
);
leftKerningGroup = A;
note = uni1EA2;
rightKerningGroup = A;
unicode = 1EA2;
},
{
glyphname = uni0202;
lastChange = "2019-09-30 19:56:48 +0000";
layers = (
{
hints = (
{
horizontal = 1;
place = "{163.12, 127}";
type = Stem;
},
{
horizontal = 1;
place = "{607.12, 129.88}";
type = Stem;
},
{
horizontal = 1;
place = "{856.44, 85.56}";
type = Stem;
},
{
place = "{180.94, 106.18}";
type = Stem;
},
{
place = "{419, 106.19}";
type = Stem;
},
{
horizontal = 1;
place = "{795, 73.31}";
type = Stem;
},
{
horizontal = 1;
place = "{163.12, 127}";
type = Stem;
},
{
horizontal = 1;
place = "{607.12, 129.88}";
type = Stem;
},
{
place = "{5, 701.25}";
type = Stem;
},
{
horizontal = 1;
place = "{795, 73.31}";
type = Stem;
},
{
place = "{-85.161, 106.19}";
type = Stem;
},
{
place = "{152.899, 106.19}";
type = Stem;
},
{
horizontal = 1;
place = "{856.44, 85.56}";
type = Stem;
},
{
horizontal = 1;
place = "{942.38, -86}";
type = Stem;
},
{
place = "{648.093, -106.19}";
type = Stem;
},
{
place = "{410.033, -106.19}";
type = Stem;
},
{
horizontal = 1;
place = "{868.75, -73.87}";
type = Stem;
}
);
layerId = "37B3F0A2-20CC-4AE3-B6A0-1D169A898E63";
paths = (
{
closed = 1;
nodes = (
"170.5 0 LINE",
"245 163 LINE",
"524 163 LINE",
"540.75 0 LINE",
"701 0 LINE",
"606 737 LINE",
"355 737 LINE",
"-6 0 LINE"
);
},
{
closed = 1;
nodes = (
"448 607 LINE",
"478 607 LINE",
"511 290 LINE",
"303 290 LINE"
);
},
{
closed = 1;
nodes = (
"423.593 795 LINE",
"431.593 839 LINE",
"452.593 856 LINE",
"549.593 856 LINE",
"563.593 839 LINE",
"555.593 795 LINE",
"663.593 795 LINE",
"676.593 869 LINE",
"612.593 942 LINE",
"419.593 942 LINE",
"328.593 869 LINE",
"315.593 795 LINE"
);
}
);
width = 711;
}
);
leftKerningGroup = A;
note = uni0202;
rightKerningGroup = A;
unicode = 0202;
},
{
glyphname = Amacron;
lastChange = "2019-09-30 19:56:48 +0000";
layers = (
{
hints = (
{
horizontal = 1;
place = "{163.12, 127}";
type = Stem;
},
{
horizontal = 1;
place = "{607.12, 129.88}";
type = Stem;
},
{
horizontal = 1;
place = "{794.62, 104.07}";
type = Stem;
},
{
place = "{5, 701.25}";
type = Stem;
},
{
horizontal = 1;
place = "{163.12, 127}";
type = Stem;
},
{
horizontal = 1;
place = "{607.12, 129.88}";
type = Stem;
},
{
place = "{5, 701.25}";
type = Stem;
},
{
horizontal = 1;
place = "{794.62, 104.07}";
type = Stem;
},
{
place = "{290.532, 423}";
type = Stem;
}
);
layerId = "37B3F0A2-20CC-4AE3-B6A0-1D169A898E63";
paths = (
{
closed = 1;
nodes = (
"170.5 0 LINE",
"245 163 LINE",
"524 163 LINE",
"540.75 0 LINE",
"701 0 LINE",
"606 737 LINE",
"355 737 LINE",
"-6 0 LINE"
);
},
{
closed = 1;
nodes = (
"448 607 LINE",
"478 607 LINE",
"511 290 LINE",
"303 290 LINE"
);
},
{
closed = 1;
nodes = (
"702.532 795 LINE",
"720.532 899 LINE",
"295.532 899 LINE",
"277.532 795 LINE"
);
}
);
width = 711;
}
);
leftKerningGroup = A;
note = Amacron;
rightKerningGroup = A;
unicode = 0100;
},
{
glyphname = Aogonek;
lastChange = "2019-09-30 19:56:48 +0000";
layers = (
{
hints = (
{
horizontal = 1;
place = "{-175.81, 91.68}";
type = Stem;
},
{
horizontal = 1;
place = "{163.12, 127}";
type = Stem;
},
{
horizontal = 1;
place = "{607.12, 129.88}";
type = Stem;
},
{
place = "{495.62, 89.44}";
type = Stem;
},
{
horizontal = 1;
place = "{163.12, 127}";
type = Stem;
},
{
horizontal = 1;
place = "{607.12, 129.88}";
type = Stem;
},
{
place = "{5, 701.25}";
type = Stem;
},
{
horizontal = 1;
place = "{-175.81, 91.68}";
type = Stem;
},
{
horizontal = 1;
place = "{-35.75, 35.75}";
type = Stem;
},
{
place = "{497.721, 89.94}";
type = Stem;
}
);
layerId = "37B3F0A2-20CC-4AE3-B6A0-1D169A898E63";
paths = (
{
closed = 1;
nodes = (
"170.5 0 LINE",
"245 163 LINE",
"524 163 LINE",
"540.75 0 LINE",
"701 0 LINE",
"606 737 LINE",
"355 737 LINE",
"-6 0 LINE"
);
},
{
closed = 1;
nodes = (
"448 607 LINE",
"478 607 LINE",
"511 290 LINE",
"303 290 LINE"
);
},
{
closed = 1;
nodes = (
"532.721 -176 LINE",
"603.721 -176 LINE",
"620.721 -84 LINE",
"590.721 -84 LINE",
"574.721 -65 LINE",
"579.721 -36 LINE",
"629.091 0 LINE",
"540.781 0 LINE",
"489.721 -33 LINE",
"475.721 -111 LINE"
);
}
);
width = 711;
}
);
leftKerningGroup = A;
note = Aogonek;
rightKerningGroup = A;
unicode = 0104;
},
{
glyphname = Aring;
lastChange = "2019-09-30 19:56:48 +0000";
layers = (
{
hints = (
{
horizontal = 1;
place = "{163.12, 127}";
type = Stem;
},
{
horizontal = 1;
place = "{607.12, 129.88}";
type = Stem;
},
{
horizontal = 1;
place = "{794.62, 71.94}";
type = Stem;
},
{
horizontal = 1;
place = "{940.25, 72.44}";
type = Stem;
},
{
place = "{227, 89.19}";
type = Stem;
},
{
place = "{389.94, 89.18}";
type = Stem;
},
{
horizontal = 1;
place = "{163.12, 127}";
type = Stem;
},
{
horizontal = 1;
place = "{607.12, 129.88}";
type = Stem;
},
{
place = "{5, 701.25}";
type = Stem;
},
{
horizontal = 1;
place = "{794.62, 71.94}";
type = Stem;
},
{
horizontal = 1;
place = "{940.25, 72.44}";
type = Stem;
},
{
place = "{403.288, 89.19}";
type = Stem;
},
{
place = "{566.228, 89.18}";
type = Stem;
}
);
layerId = "37B3F0A2-20CC-4AE3-B6A0-1D169A898E63";
paths = (
{
closed = 1;
nodes = (
"170.5 0 LINE",
"245 163 LINE",
"524 163 LINE",
"540.75 0 LINE",
"701 0 LINE",
"606 737 LINE",
"355 737 LINE",
"-6 0 LINE"
);
},
{
closed = 1;
nodes = (
"448 607 LINE",
"478 607 LINE",
"511 290 LINE",
"303 290 LINE"
);
},
{
closed = 1;
nodes = (
"548.788 795 LINE",
"630.788 864 LINE",
"644.788 943 LINE",
"587.788 1013 LINE",
"470.788 1013 LINE",
"388.788 943 LINE",
"374.788 864 LINE",
"431.788 795 LINE"
);
},
{
closed = 1;
nodes = (
"474.788 917 LINE",
"502.788 940 LINE",
"528.788 940 LINE",
"548.788 917 LINE",
"543.788 890 LINE",
"515.788 867 LINE",
"489.788 867 LINE",
"470.788 890 LINE"
);
}
);
width = 711;
}
);
leftKerningGroup = A;
note = Aring;
rightKerningGroup = A;
unicode = 00C5;
},
{
glyphname = Aringacute;
lastChange = "2019-09-30 19:56:48 +0000";
layers = (
{
hints = (
{
horizontal = 1;
place = "{163.12, 127}";
type = Stem;
},
{
horizontal = 1;
place = "{607.12, 129.88}";
type = Stem;
},
{
horizontal = 1;
place = "{794.62, 71.94}";
type = Stem;
},
{
horizontal = 1;
place = "{940.25, 72.44}";
type = Stem;
},
{
horizontal = 1;
place = "{1043.62, 155.5}";
type = Stem;
},
{
place = "{227, 89.19}";
type = Stem;
},
{
place = "{389.94, 89.18}";
type = Stem;
},
{
horizontal = 1;
place = "{163.12, 127}";
type = Stem;
},
{
horizontal = 1;
place = "{607.12, 129.88}";
type = Stem;
},
{
place = "{5, 701.25}";
type = Stem;
},
{
horizontal = 1;
place = "{794.62, 71.94}";
type = Stem;
},
{
horizontal = 1;
place = "{940.25, 72.44}";
type = Stem;
},
{
place = "{403.288, 89.19}";
type = Stem;
},
{
place = "{566.228, 89.18}";
type = Stem;
},
{
horizontal = 1;
place = "{1043.62, 155.5}";
type = Stem;
},
{
place = "{486, 263.37}";
type = Stem;
}
);
layerId = "37B3F0A2-20CC-4AE3-B6A0-1D169A898E63";
paths = (
{
closed = 1;
nodes = (
"170.5 0 LINE",
"245 163 LINE",
"524 163 LINE",
"540.75 0 LINE",
"701 0 LINE",
"606 737 LINE",
"355 737 LINE",
"-6 0 LINE"
);
},
{
closed = 1;
nodes = (
"448 607 LINE",
"478 607 LINE",
"511 290 LINE",
"303 290 LINE"
);
},
{
closed = 1;
nodes = (
"548.788 795 LINE",
"630.788 864 LINE",
"644.788 943 LINE",
"587.788 1013 LINE",
"470.788 1013 LINE",
"388.788 943 LINE",
"374.788 864 LINE",
"431.788 795 LINE"
);
},
{
closed = 1;
nodes = (
"470.788 890 LINE",
"474.788 917 LINE",
"502.788 940 LINE",
"528.788 940 LINE",
"548.788 917 LINE",
"543.788 890 LINE",
"515.788 867 LINE",
"489.788 867 LINE"
);
},
{
closed = 1;
nodes = (
"595.45 1044 LINE",
"767.45 1199 LINE",
"597 1199 LINE",
"466 1044 LINE"
);
}
);
width = 711;
}
);
leftKerningGroup = A;
note = Aringacute;
rightKerningGroup = A;
unicode = 01FA;
},
{
glyphname = Atilde;
lastChange = "2019-09-30 19:56:48 +0000";
layers = (
{
hints = (
{
horizontal = 1;
place = "{163.12, 127}";
type = Stem;
},
{
horizontal = 1;
place = "{607.12, 129.88}";
type = Stem;
},
{
horizontal = 1;
place = "{859.12, 84.94}";
type = Stem;
},
{
place = "{147.19, 97.43}";
type = Stem;
},
{
place = "{468.25, 97.69}";
type = Stem;
},
{
horizontal = 1;
place = "{794.62, 86.94}";
type = Stem;
},
{
horizontal = 1;
place = "{163.12, 127}";
type = Stem;
},
{
horizontal = 1;
place = "{607.12, 129.88}";
type = Stem;
},
{
place = "{5, 701.25}";
type = Stem;
},
{
horizontal = 1;
place = "{859.12, 84.94}";
type = Stem;
},
{
place = "{313.057, 97.44}";
type = Stem;
},
{
place = "{634.117, 97.69}";
type = Stem;
},
{
horizontal = 1;
place = "{794.62, 86.94}";
type = Stem;
}
);
layerId = "37B3F0A2-20CC-4AE3-B6A0-1D169A898E63";
paths = (
{
closed = 1;
nodes = (
"170.5 0 LINE",
"245 163 LINE",
"524 163 LINE",
"540.75 0 LINE",
"701 0 LINE",
"606 737 LINE",
"355 737 LINE",
"-6 0 LINE"
);
},
{
closed = 1;
nodes = (
"448 607 LINE",
"478 607 LINE",
"511 290 LINE",
"303 290 LINE"
);
},
{
closed = 1;
nodes = (
"379.307 800 LINE",
"384.307 825 LINE",
"414.307 859 LINE",
"440.307 859 LINE",
"486.307 795 LINE",
"634.307 795 LINE",
"713.307 864 LINE",
"728.307 939 LINE",
"627.307 939 LINE",
"623.307 913 LINE",
"593.307 882 LINE",
"567.307 882 LINE",
"520.307 944 LINE",
"372.307 944 LINE",
"294.307 876 LINE",
"279.307 800 LINE"
);
}
);
width = 711;
}
);
leftKerningGroup = A;
note = Atilde;
rightKerningGroup = A;
unicode = 00C3;
},
{
glyphname = AE;
lastChange = "2019-09-30 19:56:48 +0000";
layers = (
{
background = {
paths = (
{
closed = 1;
nodes = (
"170.5 0 LINE",
"245 163 LINE",
"524 163 LINE",
"540.75 0 LINE",
"981.37 0 LINE",
"1006 139 LINE",
"688 139 LINE",
"664 315 LINE",
"1001 315 LINE",
"1025 449 LINE",
"647 449 LINE",
"627 598 LINE",
"1087 598 LINE",
"1111 737 LINE",
"363 737 LINE",
"5 0 LINE"
);
}
);
};
hints = (
{
horizontal = 1;
place = "{0, 138.69}";
type = Stem;
},
{
horizontal = 1;
place = "{315.44, 133.18}";
type = Stem;
},
{
horizontal = 1;
place = "{598.31, 138.69}";
type = Stem;
},
{
place = "{5, 976.37}";
type = Stem;
},
{
horizontal = 1;
place = "{163.12, 127}";
type = Stem;
},
{
horizontal = 1;
place = "{163.12, 127}";
type = Stem;
},
{
horizontal = 1;
place = "{607.12, 129.88}";
type = Stem;
},
{
place = "{5, 701.25}";
type = Stem;
},
{
horizontal = 1;
place = "{0, 133.19}";
type = Stem;
},
{
horizontal = 1;
place = "{318.44, 127.68}";
type = Stem;
},
{
horizontal = 1;
place = "{603.81, 133.19}";
type = Stem;
},
{
place = "{447.121, 156.2}";
type = Stem;
}
);
layerId = "37B3F0A2-20CC-4AE3-B6A0-1D169A898E63";
paths = (
{
closed = 1;
nodes = (
"170.5 0 LINE",
"245 163 LINE",
"524 163 LINE",
"540.75 0 LINE",
"981.091 0 LINE",
"1004.121 133 LINE",
"683.856 133 LINE",
"660.009 318 LINE",
"1002.121 318 LINE",
"1025.121 446 LINE",
"643.51 446 LINE",
"623.144 604 LINE",
"1087.121 604 LINE",
"1111.121 737 LINE",
"355 737 LINE",
"-6 0 LINE"
);
},
{
closed = 1;
nodes = (
"448 607 LINE",
"478 607 LINE",
"511 290 LINE",
"303 290 LINE"
);
}
);
width = 1368;
}
);
leftKerningGroup = A;
note = AE;
rightKerningGroup = AE;
unicode = 00C6;
},
{
glyphname = AEacute;
lastChange = "2019-09-30 19:56:48 +0000";
layers = (
{
hints = (
{
horizontal = 1;
place = "{0, 138.69}";
type = Stem;
},
{
horizontal = 1;
place = "{315.44, 133.18}";
type = Stem;
},
{
horizontal = 1;
place = "{598.31, 138.69}";
type = Stem;
},
{
horizontal = 1;
place = "{794.62, 155.5}";
type = Stem;
},
{
place = "{5, 976.37}";
type = Stem;
},
{
horizontal = 1;
place = "{163.12, 127}";
type = Stem;
},
{
horizontal = 1;
place = "{0, 138.69}";
type = Stem;
},
{
horizontal = 1;
place = "{315.44, 133.18}";
type = Stem;
},
{
horizontal = 1;
place = "{598.31, 138.69}";
type = Stem;
},
{
place = "{5, 976.37}";
type = Stem;
},
{
horizontal = 1;
place = "{163.12, 127}";
type = Stem;
},
{
horizontal = 1;
place = "{163.12, 127}";
type = Stem;
},
{
horizontal = 1;
place = "{607.12, 129.88}";
type = Stem;
},
{
place = "{5, 701.25}";
type = Stem;
},
{
horizontal = 1;
place = "{0, 133.19}";
type = Stem;
},
{
horizontal = 1;
place = "{318.44, 127.68}";
type = Stem;
},
{
horizontal = 1;
place = "{603.81, 133.19}";
type = Stem;
},
{
place = "{447.121, 156.2}";
type = Stem;
},
{
horizontal = 1;
place = "{794.62, 155.5}";
type = Stem;
},
{
place = "{445.753, 263.37}";
type = Stem;
}
);
layerId = "37B3F0A2-20CC-4AE3-B6A0-1D169A898E63";
paths = (
{
closed = 1;
nodes = (
"170.5 0 LINE",
"245 163 LINE",
"524 163 LINE",
"540.75 0 LINE",
"981.091 0 LINE",
"1004.121 133 LINE",
"683.856 133 LINE",
"660.009 318 LINE",
"1002.121 318 LINE",
"1025.121 446 LINE",
"643.51 446 LINE",
"623.144 604 LINE",
"1087.121 604 LINE",
"1111.121 737 LINE",
"355 737 LINE",
"-6 0 LINE"
);
},
{
closed = 1;
nodes = (
"448 607 LINE",
"478 607 LINE",
"511 290 LINE",
"303 290 LINE"
);
},
{
closed = 1;
nodes = (
"555.203 795 LINE",
"727.203 950 LINE",
"556.753 950 LINE",
"425.753 795 LINE"
);
}
);
width = 1368;
}
);
leftKerningGroup = A;
note = AEacute;
rightKerningGroup = AE;
unicode = 01FC;
},
{
glyphname = B;
lastChange = "2019-09-30 19:56:34 +0000";
layers = (
{
hints = (
{
horizontal = 1;
place = "{0, 126.08}";
type = Stem;
},
{
horizontal = 1;
place = "{326.14, 119.92}";
type = Stem;
},
{
horizontal = 1;
place = "{611.08, 125.92}";
type = Stem;
},
{
place = "{75, 156.2}";
type = Stem;
},
{
place = "{491.6, 152.25}";
type = Stem;
},
{
place = "{518.75, 156.1}";
type = Stem;
}
);
layerId = "37B3F0A2-20CC-4AE3-B6A0-1D169A898E63";
paths = (
{
closed = 1;
nodes = (
"566 0 LINE",
"696 111 LINE",
"734 322 LINE",
"668 399 LINE",
"725 451 LINE",
"756 626 LINE",
"665 737 LINE",
"203 737 LINE",
"73 0 LINE"
);
},
{
closed = 1;
nodes = (
"289 326 LINE",
"537 326 LINE",
"569 287 LINE",
"548 166 LINE",
"501 126 LINE",
"253 126 LINE"
);
},
{
closed = 1;
nodes = (
"339 611 LINE",
"560 611 LINE",
"592 572 LINE",
"578 488 LINE",
"531 446 LINE",
"310 446 LINE"
);
}
);
width = 727;
}
);
leftKerningGroup = B;
note = B;
rightKerningGroup = B;
unicode = 0042;
},
{
glyphname = C;
lastChange = "2019-09-30 19:56:48 +0000";
layers = (
{
hints = (
{
horizontal = 1;
place = "{0, 125.94}";
type = Stem;
},
{
horizontal = 1;
place = "{610.94, 126.06}";
type = Stem;
},
{
place = "{55, 156.18}";
type = Stem;
}
);
layerId = "37B3F0A2-20CC-4AE3-B6A0-1D169A898E63";
paths = (
{
closed = 1;
nodes = (
"164 0 LINE",
"555.425 0 LINE",
"669.414 97.41 LINE",
"580 201 LINE",
"490 126 LINE",
"273 126 LINE",
"240 166 LINE",
"312 572 LINE",
"358 611 LINE",
"568 611 LINE",
"631 536 LINE",
"737.289 623.047 LINE",
"642 737 LINE",
"294 737 LINE",
"163 626 LINE",
"73 111 LINE"
);
}
);
width = 673;
}
);
leftKerningGroup = C;
note = C;
rightKerningGroup = C;
unicode = 0043;
},
{
glyphname = Cacute;
lastChange = "2019-09-30 19:56:48 +0000";
layers = (
{
hints = (
{
horizontal = 1;
place = "{0, 125.94}";
type = Stem;
},
{
horizontal = 1;
place = "{610.94, 126.06}";
type = Stem;
},
{
horizontal = 1;
place = "{794.62, 155.5}";
type = Stem;
},
{
place = "{55, 156.18}";
type = Stem;
},
{
horizontal = 1;
place = "{0, 125.94}";
type = Stem;
},
{
horizontal = 1;
place = "{610.94, 126.06}";
type = Stem;
},
{
place = "{55, 156.18}";
type = Stem;
},
{
horizontal = 1;
place = "{794.62, 155.5}";
type = Stem;
},
{
place = "{433.753, 263.37}";
type = Stem;
}
);
layerId = "37B3F0A2-20CC-4AE3-B6A0-1D169A898E63";
paths = (
{
closed = 1;
nodes = (
"555.425 0 LINE",
"669.414 97.41 LINE",
"580 201 LINE",
"490 126 LINE",
"273 126 LINE",
"240 166 LINE",
"312 572 LINE",
"358 611 LINE",
"568 611 LINE",
"631 536 LINE",
"737.289 623.047 LINE",
"642 737 LINE",
"294 737 LINE",
"163 626 LINE",
"73 111 LINE",
"164 0 LINE"
);
},
{
closed = 1;
nodes = (
"543.203 795 LINE",
"715.203 950 LINE",
"544.753 950 LINE",
"413.753 795 LINE"
);
}
);
width = 673;
}
);
leftKerningGroup = C;
note = Cacute;
rightKerningGroup = C;
unicode = 0106;
},
{
glyphname = Ccaron;
lastChange = "2019-09-30 19:56:48 +0000";
layers = (
{
hints = (
{
horizontal = 1;
place = "{0, 125.94}";
type = Stem;
},
{
horizontal = 1;
place = "{610.94, 126.06}";
type = Stem;
},
{
horizontal = 1;
place = "{794.62, 147.5}";
type = Stem;
},
{
place = "{55, 156.18}";
type = Stem;
},
{
horizontal = 1;
place = "{0, 125.94}";
type = Stem;
},
{
horizontal = 1;
place = "{610.94, 126.06}";
type = Stem;
},
{
place = "{55, 156.18}";
type = Stem;
},
{
horizontal = 1;
place = "{794.62, 147.5}";
type = Stem;
},
{
place = "{343.5, 380.25}";
type = Stem;
}
);
layerId = "37B3F0A2-20CC-4AE3-B6A0-1D169A898E63";
paths = (
{
closed = 1;
nodes = (
"555.425 0 LINE",
"669.414 97.41 LINE",
"580 201 LINE",
"490 126 LINE",
"273 126 LINE",
"240 166 LINE",
"312 572 LINE",
"358 611 LINE",
"568 611 LINE",
"631 536 LINE",
"737.289 623.047 LINE",
"642 737 LINE",
"294 737 LINE",
"163 626 LINE",
"73 111 LINE",
"164 0 LINE"
);
},
{
closed = 1;
nodes = (
"386.5 795 LINE",
"549.5 795 LINE",
"683.5 942 LINE",
"558.5 942 LINE",
"477.5 872 LINE",
"420.5 942 LINE",
"303.5 942 LINE"
);
}
);
width = 673;
}
);
leftKerningGroup = C;
note = Ccaron;
rightKerningGroup = C;
unicode = 010C;
},
{
glyphname = Ccedilla;
lastChange = "2019-09-30 19:56:48 +0000";
layers = (
{
hints = (
{
horizontal = 1;
place = "{0, 125.94}";
type = Stem;
},
{
horizontal = 1;
place = "{610.94, 126.06}";
type = Stem;
},
{
place = "{55, 156.18}";
type = Stem;
},
{
horizontal = 1;
place = "{0, 125.94}";
type = Stem;
},
{
horizontal = 1;
place = "{610.94, 126.06}";
type = Stem;
},
{
place = "{55, 156.18}";
type = Stem;
},
{
horizontal = 1;
place = "{-125.19, 125.19}";
type = Stem;
},
{
place = "{269.5, 147.12}";
type = Stem;
}
);
layerId = "37B3F0A2-20CC-4AE3-B6A0-1D169A898E63";
paths = (
{
closed = 1;
nodes = (
"555.425 0 LINE",
"669.414 97.41 LINE",
"580 201 LINE",
"490 126 LINE",
"273 126 LINE",
"240 166 LINE",
"312 572 LINE",
"358 611 LINE",
"568 611 LINE",
"631 536 LINE",
"737.289 623.047 LINE",
"642 737 LINE",
"294 737 LINE",
"163 626 LINE",
"73 111 LINE",
"164 0 LINE"
);
},
{
closed = 1;
nodes = (
"357 -125 LINE",
"423.62 0 LINE",
"294.44 0 LINE",
"252 -125 LINE"
);
}
);
width = 673;
}
);
leftKerningGroup = C;
note = Ccedilla;
rightKerningGroup = C;
unicode = 00C7;
},
{
glyphname = Ccircumflex;
lastChange = "2019-09-30 19:56:48 +0000";
layers = (
{
hints = (
{
horizontal = 1;
place = "{0, 125.94}";
type = Stem;
},
{
horizontal = 1;
place = "{610.94, 126.06}";
type = Stem;
},
{
horizontal = 1;
place = "{794.62, 147.5}";
type = Stem;
},
{
place = "{55, 156.18}";
type = Stem;
},
{
horizontal = 1;
place = "{0, 125.94}";
type = Stem;
},
{
horizontal = 1;
place = "{610.94, 126.06}";
type = Stem;
},
{
place = "{55, 156.18}";
type = Stem;
},
{
horizontal = 1;
place = "{794.62, 147.5}";
type = Stem;
},
{
place = "{303.5, 380.25}";
type = Stem;
}
);
layerId = "37B3F0A2-20CC-4AE3-B6A0-1D169A898E63";
paths = (
{
closed = 1;
nodes = (
"555.425 0 LINE",
"669.414 97.41 LINE",
"580 201 LINE",
"490 126 LINE",
"273 126 LINE",
"240 166 LINE",
"312 572 LINE",
"358 611 LINE",
"568 611 LINE",
"631 536 LINE",
"737.289 623.047 LINE",
"642 737 LINE",
"294 737 LINE",
"163 626 LINE",
"73 111 LINE",
"164 0 LINE"
);
},
{
closed = 1;
nodes = (
"400 795 LINE",
"481 865 LINE",
"537 795 LINE",
"657 795 LINE",
"574 942 LINE",
"411 942 LINE",
"277 795 LINE"
);
}
);
width = 673;
}
);
leftKerningGroup = C;
note = Ccircumflex;
rightKerningGroup = C;
unicode = 0108;
},
{
glyphname = Cdotaccent;
lastChange = "2019-09-30 19:56:48 +0000";
layers = (
{
hints = (
{
horizontal = 1;
place = "{0, 125.94}";
type = Stem;
},
{
horizontal = 1;
place = "{610.94, 126.06}";
type = Stem;
},
{
horizontal = 1;
place = "{794.62, 132.69}";
type = Stem;
},
{
place = "{55, 156.18}";
type = Stem;
},
{
place = "{270.6, 154}";
type = Stem;
},
{
horizontal = 1;
place = "{0, 125.94}";
type = Stem;
},
{
horizontal = 1;
place = "{610.94, 126.06}";
type = Stem;
},
{
place = "{55, 156.18}";
type = Stem;
},
{
horizontal = 1;
place = "{794.62, 132.69}";
type = Stem;
},
{
place = "{471, 154}";
type = Stem;
}
);
layerId = "37B3F0A2-20CC-4AE3-B6A0-1D169A898E63";
paths = (
{
closed = 1;
nodes = (
"555.425 0 LINE",
"669.414 97.41 LINE",
"580 201 LINE",
"490 126 LINE",
"273 126 LINE",
"240 166 LINE",
"312 572 LINE",
"358 611 LINE",
"568 611 LINE",
"631 536 LINE",
"737.289 623.047 LINE",
"642 737 LINE",
"294 737 LINE",
"163 626 LINE",
"73 111 LINE",
"164 0 LINE"
);
},
{
closed = 1;
nodes = (
"556 795 LINE",
"579.397 927.69 LINE",
"423.397 927.69 LINE",
"400 795 LINE"
);
}
);
width = 673;
}
);
leftKerningGroup = C;
note = Cdotaccent;
rightKerningGroup = C;
unicode = 010A;
},
{
glyphname = D;
lastChange = "2019-09-30 19:56:48 +0000";
layers = (
{
hints = (
{
horizontal = 1;
place = "{0, 126}";
type = Stem;
},
{
horizontal = 1;
place = "{611, 126}";
type = Stem;
},
{
place = "{75, 156.2}";
type = Stem;
},
{
place = "{528.79, 153.18}";
type = Stem;
}
);
layerId = "37B3F0A2-20CC-4AE3-B6A0-1D169A898E63";
paths = (
{
closed = 1;
nodes = (
"529.91 0 LINE",
"711 154 LINE",
"787 583 LINE",
"660 737 LINE",
"203 737 LINE",
"73 0 LINE"
);
},
{
closed = 1;
nodes = (
"339 611 LINE",
"566 611 LINE",
"624 541 LINE",
"563 197 LINE",
"481 126 LINE",
"253 126 LINE"
);
}
);
width = 732;
}
);
leftKerningGroup = B;
note = D;
rightKerningGroup = D;
unicode = 0044;
},
{
glyphname = uni01C4;
lastChange = "2019-09-30 19:56:48 +0000";
layers = (
{
background = {
paths = (
{
closed = 1;
nodes = (
"1343.31 0 LINE",
"1367 133 LINE",
"1012 133 LINE",
"1017 163 LINE",
"1449 601 LINE",
"1473 737 LINE",
"932 737 LINE",
"909 604 LINE",
"1242 604 LINE",
"1237 574 LINE",
"803 136 LINE",
"779.31 0 LINE"
);
},
{
closed = 1;
nodes = (
"1302 795 LINE",
"1436 942 LINE",
"1315 942 LINE",
"1234 872 LINE",
"1177 942 LINE",
"1056 942 LINE",
"1139 795 LINE"
);
}
);
};
hints = (
{
horizontal = 1;
place = "{0, 133.19}";
type = Stem;
},
{
horizontal = 1;
place = "{603.81, 133.19}";
type = Stem;
},
{
horizontal = 1;
place = "{794.62, 147.5}";
type = Stem;
},
{
place = "{75, 156.2}";
type = Stem;
},
{
place = "{528.79, 153.18}";
type = Stem;
},
{
horizontal = 1;
place = "{0, 126}";
type = Stem;
},
{
horizontal = 1;
place = "{611, 126}";
type = Stem;
},
{
place = "{779.31, 209.13}";
type = Stem;
},
{
horizontal = 1;
place = "{0, 126}";
type = Stem;
},
{
horizontal = 1;
place = "{611, 126}";
type = Stem;
},
{
place = "{75, 156.2}";
type = Stem;
},
{
place = "{528.79, 153.18}";
type = Stem;
},
{
horizontal = 1;
place = "{0, 133.19}";
type = Stem;
},
{
horizontal = 1;
place = "{603.81, 133.19}";
type = Stem;
},
{
horizontal = 1;
place = "{794.62, 147.5}";
type = Stem;
},
{
place = "{779.5, 564}";
type = Stem;
},
{
place = "{779.5, 209.12}";
type = Stem;
},
{
place = "{1136, 207.5}";
type = Stem;
},
{
horizontal = 1;
place = "{0, 133.19}";
type = Stem;
},
{
horizontal = 1;
place = "{603.81, 133.19}";
type = Stem;
},
{
place = "{779.5, 209.12}";
type = Stem;
},
{
place = "{1136, 207.5}";
type = Stem;
},
{
horizontal = 1;
place = "{794.62, 147.5}";
type = Stem;
},
{
place = "{1078, 380.25}";
type = Stem;
}
);
layerId = "37B3F0A2-20CC-4AE3-B6A0-1D169A898E63";
paths = (
{
closed = 1;
nodes = (
"529.91 0 LINE",
"711 154 LINE",
"787 583 LINE",
"660 737 LINE",
"203 737 LINE",
"73 0 LINE"
);
},
{
closed = 1;
nodes = (
"339 611 LINE",
"566 611 LINE",
"624 541 LINE",
"563 197 LINE",
"481 126 LINE",
"253 126 LINE"
);
},
{
closed = 1;
nodes = (
"1345.5 0 LINE",
"1369 133 LINE",
"1018 133 LINE",
"1023 163 LINE",
"1450.733 591.297 LINE",
"1475 737 LINE",
"930 737 LINE",
"907 604 LINE",
"1235 604 LINE",
"1230 574 LINE",
"802.641 147.034 LINE",
"777.5 0 LINE"
);
},
{
closed = 1;
nodes = (
"1121 795 LINE",
"1284 795 LINE",
"1418 942 LINE",
"1293 942 LINE",
"1212 872 LINE",
"1155 942 LINE",
"1038 942 LINE"
);
}
);
width = 1379;
}
);
leftKerningGroup = B;
note = uni01C4;
rightKerningGroup = uni01C4;
unicode = 01C4;
},
{
glyphname = Eth;
lastChange = "2019-09-30 19:56:34 +0000";
layers = (
{
hints = (
{
horizontal = 1;
place = "{0, 126}";
type = Stem;
},
{
horizontal = 1;
place = "{320.25, 108.5}";
type = Stem;
},
{
horizontal = 1;
place = "{611, 126}";
type = Stem;
},
{
place = "{75, 156.2}";
type = Stem;
},
{
place = "{528.79, 153.18}";
type = Stem;
}
);
layerId = "37B3F0A2-20CC-4AE3-B6A0-1D169A898E63";
paths = (
{
closed = 1;
nodes = (
"529.91 0 LINE",
"711 154 LINE",
"787 583 LINE",
"660 737 LINE",
"203 737 LINE",
"149 429 LINE",
"77 429 LINE",
"58 320 LINE",
"129 320 LINE",
"73 0 LINE"
);
},
{
closed = 1;
nodes = (
"288 320 LINE",
"400 320 LINE",
"419 429 LINE",
"307 429 LINE",
"339 611 LINE",
"566 611 LINE",
"624 541 LINE",
"563 197 LINE",
"481 126 LINE",
"253 126 LINE"
);
}
);
width = 732;
}
);
leftKerningGroup = B;
note = Eth;
rightKerningGroup = D;
unicode = 00D0;
},
{
glyphname = Dcaron;
lastChange = "2019-09-30 19:56:48 +0000";
layers = (
{
hints = (
{
horizontal = 1;
place = "{0, 126}";
type = Stem;
},
{
horizontal = 1;
place = "{611, 126}";
type = Stem;
},
{
horizontal = 1;
place = "{794.62, 147.5}";
type = Stem;
},
{
place = "{75, 156.2}";
type = Stem;
},
{
place = "{528.79, 153.18}";
type = Stem;
},
{
horizontal = 1;
place = "{0, 126}";
type = Stem;
},
{
horizontal = 1;
place = "{611, 126}";
type = Stem;
},
{
place = "{75, 156.2}";
type = Stem;
},
{
place = "{528.79, 153.18}";
type = Stem;
},
{
horizontal = 1;
place = "{794.62, 147.5}";
type = Stem;
},
{
place = "{347.5, 380.25}";
type = Stem;
}
);
layerId = "37B3F0A2-20CC-4AE3-B6A0-1D169A898E63";
paths = (
{
closed = 1;
nodes = (
"529.91 0 LINE",
"711 154 LINE",
"787 583 LINE",
"660 737 LINE",
"203 737 LINE",
"73 0 LINE"
);
},
{
closed = 1;
nodes = (
"339 611 LINE",
"566 611 LINE",
"624 541 LINE",
"563 197 LINE",
"481 126 LINE",
"253 126 LINE"
);
},
{
closed = 1;
nodes = (
"390.5 795 LINE",
"553.5 795 LINE",
"687.5 942 LINE",
"562.5 942 LINE",
"481.5 872 LINE",
"424.5 942 LINE",
"307.5 942 LINE"
);
}
);
width = 732;
}
);
leftKerningGroup = B;
note = Dcaron;
rightKerningGroup = D;
unicode = 010E;
},
{
glyphname = Dcroat;
lastChange = "2019-09-30 19:56:48 +0000";
layers = (
{
hints = (
{
horizontal = 1;
place = "{0, 126}";
type = Stem;
},
{
horizontal = 1;
place = "{320.25, 108.5}";
type = Stem;
},
{
horizontal = 1;
place = "{611, 126}";
type = Stem;
},
{
place = "{75, 156.2}";
type = Stem;
},
{
place = "{528.79, 153.18}";
type = Stem;
},
{
horizontal = 1;
place = "{0, 126}";
type = Stem;
},
{
horizontal = 1;
place = "{320.25, 108.5}";
type = Stem;
},
{
horizontal = 1;
place = "{611, 126}";
type = Stem;
},
{
place = "{75, 156.2}";
type = Stem;
},
{
place = "{528.79, 153.18}";
type = Stem;
}
);
layerId = "37B3F0A2-20CC-4AE3-B6A0-1D169A898E63";
paths = (
{
closed = 1;
nodes = (
"529.91 0 LINE",
"711 154 LINE",
"787 583 LINE",
"660 737 LINE",
"203 737 LINE",
"149 429 LINE",
"77 429 LINE",
"58 320 LINE",
"129 320 LINE",
"73 0 LINE"
);
},
{
closed = 1;
nodes = (
"288 320 LINE",
"400 320 LINE",
"419 429 LINE",
"307 429 LINE",
"339 611 LINE",
"566 611 LINE",
"624 541 LINE",
"563 197 LINE",
"481 126 LINE",
"253 126 LINE"
);
}
);
width = 732;
}
);
leftKerningGroup = B;
note = Dcroat;
rightKerningGroup = D;
unicode = 0110;
},
{
glyphname = uni01C5;
lastChange = "2019-09-30 19:56:48 +0000";
layers = (
{
background = {
paths = (
{
closed = 1;
nodes = (
"527.91 0 LINE",
"709 154 LINE",
"785 583 LINE",
"658 737 LINE",
"205 737 LINE",
"75 0 LINE"
);
},
{
closed = 1;
nodes = (
"339 611 LINE",
"566 611 LINE",
"624 541 LINE",
"563 197 LINE",
"481 126 LINE",
"253 126 LINE"
);
},
{
closed = 1;
nodes = (
"1278.87 0 LINE",
"1299 114 LINE",
"1019 114 LINE",
"1343 403 LINE",
"1364 522 LINE",
"912 522 LINE",
"892 409 LINE",
"1143 409 LINE",
"818 118 LINE",
"797.62 0 LINE"
);
},
{
closed = 1;
nodes = (
"1224 580 LINE",
"1358 727 LINE",
"1237 727 LINE",
"1156 657 LINE",
"1099 727 LINE",
"978 727 LINE",
"1061 580 LINE"
);
}
);
};
hints = (
{
horizontal = 1;
place = "{0, 113.5}";
type = Stem;
},
{
horizontal = 1;
place = "{409.25, 113}";
type = Stem;
},
{
horizontal = 1;
place = "{611, 126}";
type = Stem;
},
{
place = "{75, 156.2}";
type = Stem;
},
{
place = "{528.79, 153.18}";
type = Stem;
},
{
horizontal = 1;
place = "{0, 126}";
type = Stem;
},
{
horizontal = 1;
place = "{579.87, 147.5}";
type = Stem;
},
{
horizontal = 1;
place = "{0, 126}";
type = Stem;
},
{
horizontal = 1;
place = "{611, 126}";
type = Stem;
},
{
place = "{75, 156.2}";
type = Stem;
},
{
place = "{528.79, 153.18}";
type = Stem;
},
{
horizontal = 1;
place = "{0, 113.5}";
type = Stem;
},
{
horizontal = 1;
place = "{409.25, 113}";
type = Stem;
},
{
horizontal = 1;
place = "{579.87, 147.5}";
type = Stem;
},
{
place = "{798, 481.25}";
type = Stem;
},
{
horizontal = 1;
place = "{0, 113.5}";
type = Stem;
},
{
horizontal = 1;
place = "{409.25, 113}";
type = Stem;
},
{
place = "{798, 481.25}";
type = Stem;
},
{
horizontal = 1;
place = "{579.62, 147.5}";
type = Stem;
},
{
place = "{1004.875, 380.25}";
type = Stem;
}
);
layerId = "37B3F0A2-20CC-4AE3-B6A0-1D169A898E63";
paths = (
{
closed = 1;
nodes = (
"529.91 0 LINE",
"711 154 LINE",
"787 583 LINE",
"660 737 LINE",
"203 737 LINE",
"73 0 LINE"
);
},
{
closed = 1;
nodes = (
"339 611 LINE",
"566 611 LINE",
"624 541 LINE",
"563 197 LINE",
"481 126 LINE",
"253 126 LINE"
);
},
{
closed = 1;
nodes = (
"1278.67 0 LINE",
"1299 114 LINE",
"1029.257 114 LINE",
"1341.229 392.962 LINE",
"1364 522 LINE",
"912 522 LINE",
"892 409 LINE",
"1134.217 409 LINE",
"820.691 127.5 LINE",
"797.42 0 LINE"
);
},
{
closed = 1;
nodes = (
"1047.875 580 LINE",
"1210.875 580 LINE",
"1344.875 727 LINE",
"1219.875 727 LINE",
"1138.875 657 LINE",
"1081.875 727 LINE",
"964.875 727 LINE"
);
}
);
width = 1318;
}
);
leftKerningGroup = B;
note = uni01C5;
unicode = 01C5;
},
{
glyphname = E;
lastChange = "2019-09-30 19:56:48 +0000";
layers = (
{
hints = (
{
horizontal = 1;
place = "{0, 133.19}";
type = Stem;
},
{
horizontal = 1;
place = "{318.44, 127.68}";
type = Stem;
},
{
horizontal = 1;
place = "{603.81, 133.19}";
type = Stem;
},
{
place = "{75, 156.2}";
type = Stem;
}
);
layerId = "37B3F0A2-20CC-4AE3-B6A0-1D169A898E63";
paths = (
{
closed = 1;
nodes = (
"608.97 0 LINE",
"632 133 LINE",
"255 133 LINE",
"287 318 LINE",
"630 318 LINE",
"653 446 LINE",
"310 446 LINE",
"338 604 LINE",
"715 604 LINE",
"739 737 LINE",
"203 737 LINE",
"73 0 LINE"
);
}
);
width = 657;
}
);
leftKerningGroup = B;
note = E;
rightKerningGroup = AE;
unicode = 0045;
},
{
glyphname = Eacute;
lastChange = "2019-09-30 19:56:48 +0000";
layers = (
{
hints = (
{
horizontal = 1;
place = "{0, 133.19}";
type = Stem;
},
{
horizontal = 1;
place = "{318.44, 127.68}";
type = Stem;
},
{
horizontal = 1;
place = "{603.81, 133.19}";
type = Stem;
},
{
horizontal = 1;
place = "{794.62, 155.5}";
type = Stem;
},
{
place = "{75, 156.2}";
type = Stem;
},
{
horizontal = 1;
place = "{0, 133.19}";
type = Stem;
},
{
horizontal = 1;
place = "{318.44, 127.68}";
type = Stem;
},
{
horizontal = 1;
place = "{603.81, 133.19}";
type = Stem;
},
{
place = "{75, 156.2}";
type = Stem;
},
{
horizontal = 1;
place = "{794.62, 155.5}";
type = Stem;
},
{
place = "{436.753, 263.37}";
type = Stem;
}
);
layerId = "37B3F0A2-20CC-4AE3-B6A0-1D169A898E63";
paths = (
{
closed = 1;
nodes = (
"608.97 0 LINE",
"632 133 LINE",
"255 133 LINE",
"287 318 LINE",
"630 318 LINE",
"653 446 LINE",
"310 446 LINE",
"338 604 LINE",
"715 604 LINE",
"739 737 LINE",
"203 737 LINE",
"73 0 LINE"
);
},
{
closed = 1;
nodes = (
"546.203 795 LINE",
"718.203 950 LINE",
"547.753 950 LINE",
"416.753 795 LINE"
);
}
);
width = 657;
}
);
leftKerningGroup = B;
note = Eacute;
rightKerningGroup = AE;
unicode = 00C9;
},
{
glyphname = Ebreve;
lastChange = "2019-09-30 19:56:48 +0000";
layers = (
{
hints = (
{
horizontal = 1;
place = "{0, 133.19}";
type = Stem;
},
{
horizontal = 1;
place = "{318.44, 127.68}";
type = Stem;
},
{
horizontal = 1;
place = "{603.81, 133.19}";
type = Stem;
},
{
horizontal = 1;
place = "{794.62, 86}";
type = Stem;
},
{
place = "{75, 156.2}";
type = Stem;
},
{
place = "{406.35, 106.19}";
type = Stem;
},
{
horizontal = 1;
place = "{868.25, 73.87}";
type = Stem;
},
{
place = "{168.28, 106.19}";
type = Stem;
},
{
horizontal = 1;
place = "{0, 133.19}";
type = Stem;
},
{
horizontal = 1;
place = "{318.44, 127.68}";
type = Stem;
},
{
horizontal = 1;
place = "{603.81, 133.19}";
type = Stem;
},
{
place = "{75, 156.2}";
type = Stem;
},
{
horizontal = 1;
place = "{794.62, 86}";
type = Stem;
},
{
place = "{339, 106.19}";
type = Stem;
},
{
place = "{577.06, 106.19}";
type = Stem;
},
{
horizontal = 1;
place = "{868.25, 73.87}";
type = Stem;
}
);
layerId = "37B3F0A2-20CC-4AE3-B6A0-1D169A898E63";
paths = (
{
closed = 1;
nodes = (
"608.97 0 LINE",
"632 133 LINE",
"255 133 LINE",
"287 318 LINE",
"630 318 LINE",
"653 446 LINE",
"310 446 LINE",
"338 604 LINE",
"715 604 LINE",
"739 737 LINE",
"203 737 LINE",
"73 0 LINE"
);
},
{
closed = 1;
nodes = (
"374.5 795 LINE",
"567.5 795 LINE",
"658.5 868 LINE",
"671.5 942 LINE",
"563.5 942 LINE",
"555.5 898 LINE",
"534.5 881 LINE",
"437.5 881 LINE",
"423.5 898 LINE",
"431.5 942 LINE",
"323.5 942 LINE",
"310.5 868 LINE"
);
}
);
width = 657;
}
);
leftKerningGroup = B;
note = Ebreve;
rightKerningGroup = AE;
unicode = 0114;
},
{
glyphname = Ecaron;
lastChange = "2019-09-30 19:56:48 +0000";
layers = (
{
hints = (
{
horizontal = 1;
place = "{0, 133.19}";
type = Stem;
},
{
horizontal = 1;
place = "{318.44, 127.68}";
type = Stem;
},
{
horizontal = 1;
place = "{603.81, 133.19}";
type = Stem;
},
{
horizontal = 1;
place = "{794.62, 147.5}";
type = Stem;
},
{
place = "{75, 156.2}";
type = Stem;
},
{
horizontal = 1;
place = "{0, 133.19}";
type = Stem;
},
{
horizontal = 1;
place = "{318.44, 127.68}";
type = Stem;
},
{
horizontal = 1;
place = "{603.81, 133.19}";
type = Stem;
},
{
place = "{75, 156.2}";
type = Stem;
},
{
horizontal = 1;
place = "{794.62, 147.5}";
type = Stem;
},
{
place = "{346.5, 380.25}";
type = Stem;
}
);
layerId = "37B3F0A2-20CC-4AE3-B6A0-1D169A898E63";
paths = (
{
closed = 1;
nodes = (
"608.97 0 LINE",
"632 133 LINE",
"255 133 LINE",
"287 318 LINE",
"630 318 LINE",
"653 446 LINE",
"310 446 LINE",
"338 604 LINE",
"715 604 LINE",
"739 737 LINE",
"203 737 LINE",
"73 0 LINE"
);
},
{
closed = 1;
nodes = (
"389.5 795 LINE",
"552.5 795 LINE",
"686.5 942 LINE",
"561.5 942 LINE",
"480.5 872 LINE",
"423.5 942 LINE",
"306.5 942 LINE"
);
}
);
width = 657;
}
);
leftKerningGroup = B;
note = Ecaron;
rightKerningGroup = AE;
unicode = 011A;
},
{
glyphname = Ecircumflex;
lastChange = "2019-09-30 19:56:48 +0000";
layers = (
{
hints = (
{
horizontal = 1;
place = "{0, 133.19}";
type = Stem;
},
{
horizontal = 1;
place = "{318.44, 127.68}";
type = Stem;
},
{
horizontal = 1;
place = "{603.81, 133.19}";
type = Stem;
},
{
horizontal = 1;
place = "{794.62, 147.5}";
type = Stem;
},
{
place = "{75, 156.2}";
type = Stem;
},
{
horizontal = 1;
place = "{0, 133.19}";
type = Stem;
},
{
horizontal = 1;
place = "{318.44, 127.68}";
type = Stem;
},
{
horizontal = 1;
place = "{603.81, 133.19}";
type = Stem;
},
{
place = "{75, 156.2}";
type = Stem;
},
{
horizontal = 1;
place = "{794.62, 147.5}";
type = Stem;
},
{
place = "{306.5, 380.25}";
type = Stem;
}
);
layerId = "37B3F0A2-20CC-4AE3-B6A0-1D169A898E63";
paths = (
{
closed = 1;
nodes = (
"608.97 0 LINE",
"632 133 LINE",
"255 133 LINE",
"287 318 LINE",
"630 318 LINE",
"653 446 LINE",
"310 446 LINE",
"338 604 LINE",
"715 604 LINE",
"739 737 LINE",
"203 737 LINE",
"73 0 LINE"
);
},
{
closed = 1;
nodes = (
"403 795 LINE",
"484 865 LINE",
"540 795 LINE",
"660 795 LINE",
"577 942 LINE",
"414 942 LINE",
"280 795 LINE"
);
}
);
width = 657;
}
);
leftKerningGroup = B;
note = Ecircumflex;
rightKerningGroup = AE;
unicode = 00CA;
},
{
glyphname = uni1EBE;
lastChange = "2019-09-30 19:56:48 +0000";
layers = (
{
hints = (
{
horizontal = 1;
place = "{0, 133.19}";
type = Stem;
},
{
horizontal = 1;
place = "{318.44, 127.68}";
type = Stem;
},
{
horizontal = 1;
place = "{603.81, 133.19}";
type = Stem;
},
{
horizontal = 1;
place = "{876.74, 155.5}";
type = Stem;
},
{
place = "{75, 156.2}";
type = Stem;
},
{
horizontal = 1;
place = "{794.62, 147.5}";
type = Stem;
},
{
horizontal = 1;
place = "{0, 133.19}";
type = Stem;
},
{
horizontal = 1;
place = "{318.44, 127.68}";
type = Stem;
},
{
horizontal = 1;
place = "{603.81, 133.19}";
type = Stem;
},
{
place = "{75, 156.2}";
type = Stem;
},
{
horizontal = 1;
place = "{876.74, 155.5}";
type = Stem;
},
{
place = "{-400.44, 627.94}";
type = Stem;
},
{
horizontal = 1;
place = "{794.62, 147.5}";
type = Stem;
},
{
horizontal = 1;
place = "{794.62, 147.5}";
type = Stem;
},
{
place = "{306.5, 380.25}";
type = Stem;
},
{
horizontal = 1;
place = "{876.62, 155.5}";
type = Stem;
},
{
place = "{679, 263.37}";
type = Stem;
}
);
layerId = "37B3F0A2-20CC-4AE3-B6A0-1D169A898E63";
paths = (
{
closed = 1;
nodes = (
"608.97 0 LINE",
"632 133 LINE",
"255 133 LINE",
"287 318 LINE",
"630 318 LINE",
"653 446 LINE",
"310 446 LINE",
"338 604 LINE",
"715 604 LINE",
"739 737 LINE",
"203 737 LINE",
"73 0 LINE"
);
},
{
closed = 1;
nodes = (
"403 795 LINE",
"484 865 LINE",
"540 795 LINE",
"660 795 LINE",
"577 942 LINE",
"414 942 LINE",
"280 795 LINE"
);
},
{
closed = 1;
nodes = (
"788.45 877 LINE",
"960.45 1032 LINE",
"790 1032 LINE",
"659 877 LINE"
);
}
);
width = 657;
}
);
leftKerningGroup = B;
note = uni1EBE;
rightKerningGroup = AE;
unicode = 1EBE;
},
{
glyphname = uni1EC6;
lastChange = "2019-09-30 19:56:48 +0000";
layers = (
{
hints = (
{
horizontal = 1;
place = "{-189.81, 132.68}";
type = Stem;
},
{
horizontal = 1;
place = "{0, 133.19}";
type = Stem;
},
{
horizontal = 1;
place = "{318.44, 127.68}";
type = Stem;
},
{
horizontal = 1;
place = "{603.81, 133.19}";
type = Stem;
},
{
horizontal = 1;
place = "{794.62, 147.5}";
type = Stem;
},
{
place = "{75, 156.2}";
type = Stem;
},
{
place = "{263.41, 154}";
type = Stem;
},
{
horizontal = 1;
place = "{0, 133.19}";
type = Stem;
},
{
horizontal = 1;
place = "{318.44, 127.68}";
type = Stem;
},
{
horizontal = 1;
place = "{603.81, 133.19}";
type = Stem;
},
{
place = "{75, 156.2}";
type = Stem;
},
{
horizontal = 1;
place = "{794.62, 147.5}";
type = Stem;
},
{
place = "{306.5, 380.25}";
type = Stem;
},
{
horizontal = 1;
place = "{-189.81, 132.68}";
type = Stem;
},
{
place = "{2, 154}";
type = Stem;
},
{
horizontal = 1;
place = "{-190.38, 132.69}";
type = Stem;
},
{
place = "{301, 154}";
type = Stem;
},
{
horizontal = 1;
place = "{-190.38, 132.69}";
type = Stem;
},
{
place = "{301, 154}";
type = Stem;
},
{
horizontal = 1;
place = "{-190.38, 132.69}";
type = Stem;
},
{
place = "{301, 154}";
type = Stem;
}
);
layerId = "37B3F0A2-20CC-4AE3-B6A0-1D169A898E63";
paths = (
{
closed = 1;
nodes = (
"608.97 0 LINE",
"632 133 LINE",
"255 133 LINE",
"287 318 LINE",
"630 318 LINE",
"653 446 LINE",
"310 446 LINE",
"338 604 LINE",
"715 604 LINE",
"739 737 LINE",
"203 737 LINE",
"73 0 LINE"
);
},
{
closed = 1;
nodes = (
"403 795 LINE",
"484 865 LINE",
"540 795 LINE",
"660 795 LINE",
"577 942 LINE",
"414 942 LINE",
"280 795 LINE"
);
},
{
closed = 1;
nodes = (
"386 -190 LINE",
"409.397 -57.31 LINE",
"253.397 -57.31 LINE",
"230 -190 LINE"
);
}
);
width = 657;
}
);
leftKerningGroup = B;
note = uni1EC6;
rightKerningGroup = AE;
unicode = 1EC6;
},
{
glyphname = uni1EC0;
lastChange = "2019-09-30 19:56:48 +0000";
layers = (
{
hints = (
{
horizontal = 1;
place = "{0, 133.19}";
type = Stem;
},
{
horizontal = 1;
place = "{318.44, 127.68}";
type = Stem;
},
{
horizontal = 1;
place = "{603.81, 133.19}";
type = Stem;
},
{
horizontal = 1;
place = "{876.76, 155.5}";
type = Stem;
},
{
place = "{75, 156.2}";
type = Stem;
},
{
horizontal = 1;
place = "{794.62, 147.5}";
type = Stem;
},
{
horizontal = 1;
place = "{0, 133.19}";
type = Stem;
},
{
horizontal = 1;
place = "{318.44, 127.68}";
type = Stem;
},
{
horizontal = 1;
place = "{603.81, 133.19}";
type = Stem;
},
{
place = "{75, 156.2}";
type = Stem;
},
{
horizontal = 1;
place = "{876.76, 155.5}";
type = Stem;
},
{
place = "{-609.073, 627.94}";
type = Stem;
},
{
horizontal = 1;
place = "{794.62, 147.5}";
type = Stem;
},
{
horizontal = 1;
place = "{794.62, 147.5}";
type = Stem;
},
{
place = "{306.5, 380.25}";
type = Stem;
},
{
horizontal = 1;
place = "{868.12, 155.5}";
type = Stem;
},
{
place = "{96.757, 263.37}";
type = Stem;
}
);
layerId = "37B3F0A2-20CC-4AE3-B6A0-1D169A898E63";
paths = (
{
closed = 1;
nodes = (
"608.97 0 LINE",
"632 133 LINE",
"255 133 LINE",
"287 318 LINE",
"630 318 LINE",
"653 446 LINE",
"310 446 LINE",
"338 604 LINE",
"715 604 LINE",
"739 737 LINE",
"203 737 LINE",
"73 0 LINE"
);
},
{
closed = 1;
nodes = (
"403 795 LINE",
"484 865 LINE",
"540 795 LINE",
"660 795 LINE",
"577 942 LINE",
"414 942 LINE",
"280 795 LINE"
);
},
{
closed = 1;
nodes = (
"202.253 877 LINE",
"311.367 877 LINE",
"235.367 1032 LINE",
"85.253 1032 LINE"
);
}
);
width = 657;
}
);
leftKerningGroup = B;
note = uni1EC0;
rightKerningGroup = AE;
unicode = 1EC0;
},
{
glyphname = uni1EC2;
lastChange = "2019-09-30 19:56:48 +0000";
layers = (
{
hints = (
{
horizontal = 1;
place = "{0, 133.19}";
type = Stem;
},
{
horizontal = 1;
place = "{318.44, 127.68}";
type = Stem;
},
{
horizontal = 1;
place = "{603.81, 133.19}";
type = Stem;
},
{
horizontal = 1;
place = "{794.62, 147.5}";
type = Stem;
},
{
horizontal = 1;
place = "{1003.89, 95.65}";
type = Stem;
},
{
place = "{75, 156.2}";
type = Stem;
},
{
place = "{498.49, 103.65}";
type = Stem;
},
{
place = "{431.04, 102.15}";
type = Stem;
},
{
place = "{568.44, 106.5}";
type = Stem;
},
{
horizontal = 1;
place = "{0, 133.19}";
type = Stem;
},
{
horizontal = 1;
place = "{318.44, 127.68}";
type = Stem;
},
{
horizontal = 1;
place = "{603.81, 133.19}";
type = Stem;
},
{
place = "{75, 156.2}";
type = Stem;
},
{
horizontal = 1;
place = "{794.62, 147.5}";
type = Stem;
},
{
horizontal = 1;
place = "{1003.89, 95.65}";
type = Stem;
},
{
place = "{40.89, 103.65}";
type = Stem;
},
{
place = "{-26.56, 102.15}";
type = Stem;
},
{
place = "{110.84, 106.5}";
type = Stem;
},
{
horizontal = 1;
place = "{794.62, 147.5}";
type = Stem;
},
{
place = "{306.5, 380.25}";
type = Stem;
},
{
horizontal = 1;
place = "{877, 76.3}";
type = Stem;
},
{
horizontal = 1;
place = "{1003.8, 95.65}";
type = Stem;
},
{
place = "{360.89, 103.65}";
type = Stem;
},
{
place = "{293.44, 102.15}";
type = Stem;
},
{
place = "{430.84, 106.5}";
type = Stem;
}
);
layerId = "37B3F0A2-20CC-4AE3-B6A0-1D169A898E63";
paths = (
{
closed = 1;
nodes = (
"608.97 0 LINE",
"632 133 LINE",
"255 133 LINE",
"287 318 LINE",
"630 318 LINE",
"653 446 LINE",
"310 446 LINE",
"338 604 LINE",
"715 604 LINE",
"739 737 LINE",
"203 737 LINE",
"73 0 LINE"
);
},
{
closed = 1;
nodes = (
"403 795 LINE",
"484 865 LINE",
"540 795 LINE",
"660 795 LINE",
"577 942 LINE",
"414 942 LINE",
"280 795 LINE"
);
},
{
closed = 1;
nodes = (
"701 1004 LINE",
"706 1029 LINE",
"741 1029 LINE",
"736 1002 LINE",
"657 953 LINE",
"643 877 LINE",
"749 877 LINE",
"756 917 LINE",
"838 965 LINE",
"854 1055 LINE",
"815 1099 LINE",
"661 1099 LINE",
"606 1054 LINE",
"597 1004 LINE"
);
}
);
width = 657;
}
);
leftKerningGroup = B;
note = uni1EC2;
rightKerningGroup = AE;
unicode = 1EC2;
},
{
glyphname = uni1EC4;
lastChange = "2019-09-30 19:56:48 +0000";
layers = (
{
hints = (
{
horizontal = 1;
place = "{0, 133.19}";
type = Stem;
},
{
horizontal = 1;
place = "{318.44, 127.68}";
type = Stem;
},
{
horizontal = 1;
place = "{603.81, 133.19}";
type = Stem;
},
{
horizontal = 1;
place = "{794.62, 147.5}";
type = Stem;
},
{
horizontal = 1;
place = "{1037.44, 84.93}";
type = Stem;
},
{
place = "{135.66, 97.44}";
type = Stem;
},
{
horizontal = 1;
place = "{972.94, 86.93}";
type = Stem;
},
{
place = "{75, 156.2}";
type = Stem;
},
{
place = "{456.72, 97.69}";
type = Stem;
},
{
horizontal = 1;
place = "{0, 133.19}";
type = Stem;
},
{
horizontal = 1;
place = "{318.44, 127.68}";
type = Stem;
},
{
horizontal = 1;
place = "{603.81, 133.19}";
type = Stem;
},
{
place = "{75, 156.2}";
type = Stem;
},
{
horizontal = 1;
place = "{794.62, 147.5}";
type = Stem;
},
{
horizontal = 1;
place = "{1037.44, 84.93}";
type = Stem;
},
{
place = "{-195.75, 97.44}";
type = Stem;
},
{
place = "{125.31, 97.69}";
type = Stem;
},
{
horizontal = 1;
place = "{972.94, 86.93}";
type = Stem;
},
{
horizontal = 1;
place = "{794.62, 147.5}";
type = Stem;
},
{
place = "{306.5, 380.25}";
type = Stem;
},
{
horizontal = 1;
place = "{1037.12, 84.94}";
type = Stem;
},
{
place = "{326.75, 97.44}";
type = Stem;
},
{
place = "{647.81, 97.69}";
type = Stem;
},
{
horizontal = 1;
place = "{972.62, 86.94}";
type = Stem;
}
);
layerId = "37B3F0A2-20CC-4AE3-B6A0-1D169A898E63";
paths = (
{
closed = 1;
nodes = (
"608.97 0 LINE",
"632 133 LINE",
"255 133 LINE",
"287 318 LINE",
"630 318 LINE",
"653 446 LINE",
"310 446 LINE",
"338 604 LINE",
"715 604 LINE",
"739 737 LINE",
"203 737 LINE",
"73 0 LINE"
);
},
{
closed = 1;
nodes = (
"403 795 LINE",
"484 865 LINE",
"540 795 LINE",
"660 795 LINE",
"577 942 LINE",
"414 942 LINE",
"280 795 LINE"
);
},
{
closed = 1;
nodes = (
"393 978 LINE",
"398 1003 LINE",
"428 1037 LINE",
"454 1037 LINE",
"500 973 LINE",
"648 973 LINE",
"727 1042 LINE",
"742 1117 LINE",
"641 1117 LINE",
"637 1091 LINE",
"607 1060 LINE",
"581 1060 LINE",
"534 1122 LINE",
"386 1122 LINE",
"308 1054 LINE",
"293 978 LINE"
);
}
);
width = 657;
}
);
leftKerningGroup = B;
note = uni1EC4;
rightKerningGroup = AE;
unicode = 1EC4;
},
{
glyphname = uni0204;
lastChange = "2019-09-30 19:56:48 +0000";
layers = (
{
hints = (
{
horizontal = 1;
place = "{0, 133.19}";
type = Stem;
},
{
horizontal = 1;
place = "{318.44, 127.68}";
type = Stem;
},
{
horizontal = 1;
place = "{603.81, 133.19}";
type = Stem;
},
{
horizontal = 1;
place = "{794.62, 155.5}";
type = Stem;
},
{
place = "{75, 156.2}";
type = Stem;
},
{
horizontal = 1;
place = "{0, 133.19}";
type = Stem;
},
{
horizontal = 1;
place = "{318.44, 127.68}";
type = Stem;
},
{
horizontal = 1;
place = "{603.81, 133.19}";
type = Stem;
},
{
place = "{75, 156.2}";
type = Stem;
},
{
horizontal = 1;
place = "{794.62, 155.5}";
type = Stem;
},
{
place = "{-318.978, 459.75}";
type = Stem;
},
{
horizontal = 1;
place = "{786.12, 155.5}";
type = Stem;
},
{
place = "{405.886, 263.37}";
type = Stem;
},
{
horizontal = 1;
place = "{786.12, 155.5}";
type = Stem;
},
{
place = "{208.772, 263.37}";
type = Stem;
}
);
layerId = "37B3F0A2-20CC-4AE3-B6A0-1D169A898E63";
paths = (
{
closed = 1;
nodes = (
"608.97 0 LINE",
"632 133 LINE",
"255 133 LINE",
"287 318 LINE",
"630 318 LINE",
"653 446 LINE",
"310 446 LINE",
"338 604 LINE",
"715 604 LINE",
"739 737 LINE",
"203 737 LINE",
"73 0 LINE"
);
},
{
closed = 1;
nodes = (
"620.496 795 LINE",
"544.496 950 LINE",
"394.382 950 LINE",
"511.382 795 LINE"
);
},
{
closed = 1;
nodes = (
"314.268 795 LINE",
"423.382 795 LINE",
"347.382 950 LINE",
"197.268 950 LINE"
);
}
);
width = 657;
}
);
leftKerningGroup = B;
note = uni0204;
rightKerningGroup = AE;
unicode = 0204;
},
{
glyphname = Edieresis;
lastChange = "2019-09-30 19:56:48 +0000";
layers = (
{
hints = (
{
horizontal = 1;
place = "{0, 133.19}";
type = Stem;
},
{
horizontal = 1;
place = "{318.44, 127.68}";
type = Stem;
},
{
horizontal = 1;
place = "{603.81, 133.19}";
type = Stem;
},
{
horizontal = 1;
place = "{794.62, 132.75}";
type = Stem;
},
{
place = "{128.91, 148}";
type = Stem;
},
{
place = "{403.91, 148}";
type = Stem;
},
{
place = "{75, 156.2}";
type = Stem;
},
{
horizontal = 1;
place = "{0, 133.19}";
type = Stem;
},
{
horizontal = 1;
place = "{318.44, 127.68}";
type = Stem;
},
{
horizontal = 1;
place = "{603.81, 133.19}";
type = Stem;
},
{
place = "{75, 156.2}";
type = Stem;
},
{
horizontal = 1;
place = "{794.62, 132.75}";
type = Stem;
},
{
place = "{296.5, 148}";
type = Stem;
},
{
place = "{571.5, 148}";
type = Stem;
}
);
layerId = "37B3F0A2-20CC-4AE3-B6A0-1D169A898E63";
paths = (
{
closed = 1;
nodes = (
"608.97 0 LINE",
"632 133 LINE",
"255 133 LINE",
"287 318 LINE",
"630 318 LINE",
"653 446 LINE",
"310 446 LINE",
"338 604 LINE",
"715 604 LINE",
"739 737 LINE",
"203 737 LINE",
"73 0 LINE"
);
},
{
closed = 1;
nodes = (
"694 795 LINE",
"717 927 LINE",
"567 927 LINE",
"544 795 LINE"
);
},
{
closed = 1;
nodes = (
"419 795 LINE",
"442 927 LINE",
"292 927 LINE",
"269 795 LINE"
);
}
);
width = 657;
}
);
leftKerningGroup = B;
note = Edieresis;
rightKerningGroup = AE;
unicode = 00CB;
},
{
glyphname = Edotaccent;
lastChange = "2019-09-30 19:56:48 +0000";
layers = (
{
hints = (
{
horizontal = 1;
place = "{0, 133.19}";
type = Stem;
},
{
horizontal = 1;
place = "{318.44, 127.68}";
type = Stem;
},
{
horizontal = 1;
place = "{603.81, 133.19}";
type = Stem;
},
{
horizontal = 1;
place = "{794.62, 132.69}";
type = Stem;
},
{
place = "{75, 156.2}";
type = Stem;
},
{
place = "{263.41, 154}";
type = Stem;
},
{
horizontal = 1;
place = "{0, 133.19}";
type = Stem;
},
{
horizontal = 1;
place = "{318.44, 127.68}";
type = Stem;
},
{
horizontal = 1;
place = "{603.81, 133.19}";
type = Stem;
},
{
place = "{75, 156.2}";
type = Stem;
},
{
horizontal = 1;
place = "{794.62, 132.69}";
type = Stem;
},
{
place = "{474, 154}";
type = Stem;
}
);
layerId = "37B3F0A2-20CC-4AE3-B6A0-1D169A898E63";
paths = (
{
closed = 1;
nodes = (
"608.97 0 LINE",
"632 133 LINE",
"255 133 LINE",
"287 318 LINE",
"630 318 LINE",
"653 446 LINE",
"310 446 LINE",
"338 604 LINE",
"715 604 LINE",
"739 737 LINE",
"203 737 LINE",
"73 0 LINE"
);
},
{
closed = 1;
nodes = (
"559 795 LINE",
"582.397 927.69 LINE",
"426.397 927.69 LINE",
"403 795 LINE"
);
}
);
width = 657;
}
);
leftKerningGroup = B;
note = Edotaccent;
rightKerningGroup = AE;
unicode = 0116;
},
{
glyphname = uni1EB8;
lastChange = "2019-09-30 19:56:48 +0000";
layers = (
{
hints = (
{
horizontal = 1;
place = "{-189.81, 132.68}";
type = Stem;
},
{
horizontal = 1;
place = "{0, 133.19}";
type = Stem;
},
{
horizontal = 1;
place = "{318.44, 127.68}";
type = Stem;
},
{
horizontal = 1;
place = "{603.81, 133.19}";
type = Stem;
},
{
place = "{75, 156.2}";
type = Stem;
},
{
place = "{263.41, 154}";
type = Stem;
},
{
horizontal = 1;
place = "{0, 133.19}";
type = Stem;
},
{
horizontal = 1;
place = "{318.44, 127.68}";
type = Stem;
},
{
horizontal = 1;
place = "{603.81, 133.19}";
type = Stem;
},
{
place = "{75, 156.2}";
type = Stem;
},
{
horizontal = 1;
place = "{-189.81, 132.68}";
type = Stem;
},
{
place = "{2, 154}";
type = Stem;
},
{
horizontal = 1;
place = "{-190.38, 132.69}";
type = Stem;
},
{
place = "{301, 154}";
type = Stem;
},
{
horizontal = 1;
place = "{-190.38, 132.69}";
type = Stem;
},
{
place = "{301, 154}";
type = Stem;
},
{
horizontal = 1;
place = "{-190.38, 132.69}";
type = Stem;
},
{
place = "{301, 154}";
type = Stem;
}
);
layerId = "37B3F0A2-20CC-4AE3-B6A0-1D169A898E63";
paths = (
{
closed = 1;
nodes = (
"608.97 0 LINE",
"632 133 LINE",
"255 133 LINE",
"287 318 LINE",
"630 318 LINE",
"653 446 LINE",
"310 446 LINE",
"338 604 LINE",
"715 604 LINE",
"739 737 LINE",
"203 737 LINE",
"73 0 LINE"
);
},
{
closed = 1;
nodes = (
"386 -190 LINE",
"409.397 -57.31 LINE",
"253.397 -57.31 LINE",
"230 -190 LINE"
);
}
);
width = 657;
}
);
leftKerningGroup = B;
note = uni1EB8;
rightKerningGroup = AE;
unicode = 1EB8;
},
{
glyphname = Egrave;
lastChange = "2019-09-30 19:56:48 +0000";
layers = (
{
hints = (
{
horizontal = 1;
place = "{0, 133.19}";
type = Stem;
},
{
horizontal = 1;
place = "{318.44, 127.68}";
type = Stem;
},
{
horizontal = 1;
place = "{603.81, 133.19}";
type = Stem;
},
{
horizontal = 1;
place = "{794.62, 155.5}";
type = Stem;
},
{
place = "{75, 156.2}";
type = Stem;
},
{
horizontal = 1;
place = "{0, 133.19}";
type = Stem;
},
{
horizontal = 1;
place = "{318.44, 127.68}";
type = Stem;
},
{
horizontal = 1;
place = "{603.81, 133.19}";
type = Stem;
},
{
place = "{75, 156.2}";
type = Stem;
},
{
horizontal = 1;
place = "{786.12, 155.5}";
type = Stem;
},
{
place = "{311.5, 263.37}";
type = Stem;
}
);
layerId = "37B3F0A2-20CC-4AE3-B6A0-1D169A898E63";
paths = (
{
closed = 1;
nodes = (
"608.97 0 LINE",
"632 133 LINE",
"255 133 LINE",
"287 318 LINE",
"630 318 LINE",
"653 446 LINE",
"310 446 LINE",
"338 604 LINE",
"715 604 LINE",
"739 737 LINE",
"203 737 LINE",
"73 0 LINE"
);
},
{
closed = 1;
nodes = (
"416.996 795 LINE",
"526.11 795 LINE",
"450.11 950 LINE",
"299.996 950 LINE"
);
}
);
width = 657;
}
);
leftKerningGroup = B;
note = Egrave;
rightKerningGroup = AE;
unicode = 00C8;
},
{
glyphname = uni1EBA;
lastChange = "2019-09-30 19:56:48 +0000";
layers = (
{
hints = (
{
horizontal = 1;
place = "{0, 133.19}";
type = Stem;
},
{
horizontal = 1;
place = "{318.44, 127.68}";
type = Stem;
},
{
horizontal = 1;
place = "{603.81, 133.19}";
type = Stem;
},
{
horizontal = 1;
place = "{921.8, 95.65}";
type = Stem;
},
{
place = "{75, 156.2}";
type = Stem;
},
{
place = "{287.05, 103.65}";
type = Stem;
},
{
horizontal = 1;
place = "{795, 76.3}";
type = Stem;
},
{
place = "{357, 106.5}";
type = Stem;
},
{
place = "{219.6, 102.15}";
type = Stem;
},
{
horizontal = 1;
place = "{0, 133.19}";
type = Stem;
},
{
horizontal = 1;
place = "{318.44, 127.68}";
type = Stem;
},
{
horizontal = 1;
place = "{603.81, 133.19}";
type = Stem;
},
{
place = "{75, 156.2}";
type = Stem;
},
{
horizontal = 1;
place = "{795, 76.3}";
type = Stem;
},
{
horizontal = 1;
place = "{921.8, 95.65}";
type = Stem;
},
{
place = "{135.89, 103.65}";
type = Stem;
},
{
place = "{68.44, 102.15}";
type = Stem;
},
{
place = "{205.84, 106.5}";
type = Stem;
}
);
layerId = "37B3F0A2-20CC-4AE3-B6A0-1D169A898E63";
paths = (
{
closed = 1;
nodes = (
"608.97 0 LINE",
"632 133 LINE",
"255 133 LINE",
"287 318 LINE",
"630 318 LINE",
"653 446 LINE",
"310 446 LINE",
"338 604 LINE",
"715 604 LINE",
"739 737 LINE",
"203 737 LINE",
"73 0 LINE"
);
},
{
closed = 1;
nodes = (
"476 922 LINE",
"481 947 LINE",
"516 947 LINE",
"511 920 LINE",
"432 871 LINE",
"418 795 LINE",
"524 795 LINE",
"531 835 LINE",
"613 883 LINE",
"629 973 LINE",
"590 1017 LINE",
"436 1017 LINE",
"381 972 LINE",
"372 922 LINE"
);
}
);
width = 657;
}
);
leftKerningGroup = B;
note = uni1EBA;
rightKerningGroup = AE;
unicode = 1EBA;
},
{
glyphname = uni0206;
lastChange = "2019-09-30 19:56:48 +0000";
layers = (
{
hints = (
{
horizontal = 1;
place = "{0, 133.19}";
type = Stem;
},
{
horizontal = 1;
place = "{318.44, 127.68}";
type = Stem;
},
{
horizontal = 1;
place = "{603.81, 133.19}";
type = Stem;
},
{
horizontal = 1;
place = "{856.44, 85.56}";
type = Stem;
},
{
place = "{168.28, 106.19}";
type = Stem;
},
{
place = "{406.35, 106.19}";
type = Stem;
},
{
horizontal = 1;
place = "{795, 73.31}";
type = Stem;
},
{
place = "{75, 156.2}";
type = Stem;
},
{
horizontal = 1;
place = "{0, 133.19}";
type = Stem;
},
{
horizontal = 1;
place = "{318.44, 127.68}";
type = Stem;
},
{
horizontal = 1;
place = "{603.81, 133.19}";
type = Stem;
},
{
place = "{75, 156.2}";
type = Stem;
},
{
horizontal = 1;
place = "{795, 73.31}";
type = Stem;
},
{
place = "{-94.161, 106.19}";
type = Stem;
},
{
place = "{143.899, 106.19}";
type = Stem;
},
{
horizontal = 1;
place = "{856.44, 85.56}";
type = Stem;
},
{
horizontal = 1;
place = "{942.38, -86}";
type = Stem;
},
{
place = "{639.093, -106.19}";
type = Stem;
},
{
place = "{401.033, -106.19}";
type = Stem;
},
{
horizontal = 1;
place = "{868.75, -73.87}";
type = Stem;
}
);
layerId = "37B3F0A2-20CC-4AE3-B6A0-1D169A898E63";
paths = (
{
closed = 1;
nodes = (
"608.97 0 LINE",
"632 133 LINE",
"255 133 LINE",
"287 318 LINE",
"630 318 LINE",
"653 446 LINE",
"310 446 LINE",
"338 604 LINE",
"715 604 LINE",
"739 737 LINE",
"203 737 LINE",
"73 0 LINE"
);
},
{
closed = 1;
nodes = (
"414.593 795 LINE",
"422.593 839 LINE",
"443.593 856 LINE",
"540.593 856 LINE",
"554.593 839 LINE",
"546.593 795 LINE",
"654.593 795 LINE",
"667.593 869 LINE",
"603.593 942 LINE",
"410.593 942 LINE",
"319.593 869 LINE",
"306.593 795 LINE"
);
}
);
width = 657;
}
);
leftKerningGroup = B;
note = uni0206;
rightKerningGroup = AE;
unicode = 0206;
},
{
glyphname = Emacron;
lastChange = "2019-09-30 19:56:48 +0000";
layers = (
{
hints = (
{
horizontal = 1;
place = "{0, 133.19}";
type = Stem;
},
{
horizontal = 1;
place = "{318.44, 127.68}";
type = Stem;
},
{
horizontal = 1;
place = "{603.81, 133.19}";
type = Stem;
},
{
horizontal = 1;
place = "{794.62, 104.07}";
type = Stem;
},
{
place = "{75, 156.2}";
type = Stem;
},
{
horizontal = 1;
place = "{0, 133.19}";
type = Stem;
},
{
horizontal = 1;
place = "{318.44, 127.68}";
type = Stem;
},
{
horizontal = 1;
place = "{603.81, 133.19}";
type = Stem;
},
{
place = "{75, 156.2}";
type = Stem;
},
{
horizontal = 1;
place = "{794.62, 104.07}";
type = Stem;
},
{
place = "{281.532, 423}";
type = Stem;
}
);
layerId = "37B3F0A2-20CC-4AE3-B6A0-1D169A898E63";
paths = (
{
closed = 1;
nodes = (
"608.97 0 LINE",
"632 133 LINE",
"255 133 LINE",
"287 318 LINE",
"630 318 LINE",
"653 446 LINE",
"310 446 LINE",
"338 604 LINE",
"715 604 LINE",
"739 737 LINE",
"203 737 LINE",
"73 0 LINE"
);
},
{
closed = 1;
nodes = (
"693.532 795 LINE",
"711.532 899 LINE",
"286.532 899 LINE",
"268.532 795 LINE"
);
}
);
width = 657;
}
);
leftKerningGroup = B;
note = Emacron;
rightKerningGroup = AE;
unicode = 0112;
},
{
glyphname = Eogonek;
lastChange = "2019-09-30 19:56:48 +0000";
layers = (
{
hints = (
{
horizontal = 1;
place = "{-175.81, 91.68}";
type = Stem;
},
{
horizontal = 1;
place = "{0, 133.19}";
type = Stem;
},
{
horizontal = 1;
place = "{318.44, 127.68}";
type = Stem;
},
{
horizontal = 1;
place = "{603.81, 133.19}";
type = Stem;
},
{
place = "{75, 156.2}";
type = Stem;
},
{
place = "{474.1, 132.87}";
type = Stem;
},
{
horizontal = 1;
place = "{0, 133.19}";
type = Stem;
},
{
horizontal = 1;
place = "{318.44, 127.68}";
type = Stem;
},
{
horizontal = 1;
place = "{603.81, 133.19}";
type = Stem;
},
{
place = "{75, 156.2}";
type = Stem;
},
{
horizontal = 1;
place = "{-175.81, 91.68}";
type = Stem;
},
{
horizontal = 1;
place = "{-35.75, 35.75}";
type = Stem;
},
{
place = "{477.65, 89.94}";
type = Stem;
}
);
layerId = "37B3F0A2-20CC-4AE3-B6A0-1D169A898E63";
paths = (
{
closed = 1;
nodes = (
"608.97 0 LINE",
"632 133 LINE",
"255 133 LINE",
"287 318 LINE",
"630 318 LINE",
"653 446 LINE",
"310 446 LINE",
"338 604 LINE",
"715 604 LINE",
"739 737 LINE",
"203 737 LINE",
"73 0 LINE"
);
},
{
closed = 1;
nodes = (
"512.65 -176 LINE",
"583.65 -176 LINE",
"600.65 -84 LINE",
"570.65 -84 LINE",
"554.65 -65 LINE",
"559.65 -36 LINE",
"609.02 0 LINE",
"520.71 0 LINE",
"469.65 -33 LINE",
"455.65 -111 LINE"
);
}
);
width = 657;
}
);
leftKerningGroup = B;
note = Eogonek;
rightKerningGroup = AE;
unicode = 0118;
},
{
glyphname = uni1EBC;
lastChange = "2019-09-30 19:56:48 +0000";
layers = (
{
hints = (
{
horizontal = 1;
place = "{0, 133.19}";
type = Stem;
},
{
horizontal = 1;
place = "{318.44, 127.68}";
type = Stem;
},
{
horizontal = 1;
place = "{603.81, 133.19}";
type = Stem;
},
{
horizontal = 1;
place = "{859.12, 84.94}";
type = Stem;
},
{
place = "{134.53, 97.44}";
type = Stem;
},
{
horizontal = 1;
place = "{794.62, 86.94}";
type = Stem;
},
{
place = "{75, 156.2}";
type = Stem;
},
{
place = "{455.6, 97.69}";
type = Stem;
},
{
horizontal = 1;
place = "{0, 133.19}";
type = Stem;
},
{
horizontal = 1;
place = "{318.44, 127.68}";
type = Stem;
},
{
horizontal = 1;
place = "{603.81, 133.19}";
type = Stem;
},
{
place = "{75, 156.2}";
type = Stem;
},
{
horizontal = 1;
place = "{859.12, 84.94}";
type = Stem;
},
{
place = "{304.057, 97.44}";
type = Stem;
},
{
place = "{625.117, 97.69}";
type = Stem;
},
{
horizontal = 1;
place = "{794.62, 86.94}";
type = Stem;
}
);
layerId = "37B3F0A2-20CC-4AE3-B6A0-1D169A898E63";
paths = (
{
closed = 1;
nodes = (
"608.97 0 LINE",
"632 133 LINE",
"255 133 LINE",
"287 318 LINE",
"630 318 LINE",
"653 446 LINE",
"310 446 LINE",
"338 604 LINE",
"715 604 LINE",
"739 737 LINE",
"203 737 LINE",
"73 0 LINE"
);
},
{
closed = 1;
nodes = (
"370.307 800 LINE",
"375.307 825 LINE",
"405.307 859 LINE",
"431.307 859 LINE",
"477.307 795 LINE",
"625.307 795 LINE",
"704.307 864 LINE",
"719.307 939 LINE",
"618.307 939 LINE",
"614.307 913 LINE",
"584.307 882 LINE",
"558.307 882 LINE",
"511.307 944 LINE",
"363.307 944 LINE",
"285.307 876 LINE",
"270.307 800 LINE"
);
}
);
width = 657;
}
);
leftKerningGroup = B;
note = uni1EBC;
rightKerningGroup = AE;
unicode = 1EBC;
},
{
glyphname = F;
lastChange = "2019-09-30 19:56:34 +0000";
layers = (
{
hints = (
{
horizontal = 1;
place = "{301.87, 127.69}";
type = Stem;
},
{
horizontal = 1;
place = "{603.81, 133.19}";
type = Stem;
},
{
place = "{75, 156.2}";
type = Stem;
}
);
layerId = "37B3F0A2-20CC-4AE3-B6A0-1D169A898E63";
paths = (
{
closed = 1;
nodes = (
"231.2 0 LINE",
"284 302 LINE",
"609 302 LINE",
"631 430 LINE",
"307 430 LINE",
"338 604 LINE",
"707 604 LINE",
"730 737 LINE",
"203 737 LINE",
"73 0 LINE"
);
}
);
width = 611;
}
);
leftKerningGroup = B;
note = F;
rightKerningGroup = F;
unicode = 0046;
},
{
glyphname = G;
lastChange = "2019-09-30 19:56:48 +0000";
layers = (
{
hints = (
{
horizontal = 1;
place = "{0, 125.94}";
type = Stem;
},
{
horizontal = 1;
place = "{273.87, 126.5}";
type = Stem;
},
{
horizontal = 1;
place = "{610.94, 126.06}";
type = Stem;
},
{
place = "{55, 156.11}";
type = Stem;
},
{
place = "{536.44, 130.69}";
type = Stem;
}
);
layerId = "37B3F0A2-20CC-4AE3-B6A0-1D169A898E63";
paths = (
{
closed = 1;
nodes = (
"164.02 0 LINE",
"457.15 0 LINE",
"549 70 LINE",
"536.44 0 LINE",
"669.13 0 LINE",
"740 400 LINE",
"450 400 LINE",
"428 274 LINE",
"579 274 LINE",
"570 219 LINE",
"448 126 LINE",
"273 126 LINE",
"240 166 LINE",
"312 572 LINE",
"358 611 LINE",
"594 611 LINE",
"662.7 529.285 LINE",
"769.167 617.236 LINE",
"669.13 737 LINE",
"294 737 LINE",
"163 626 LINE",
"73 111 LINE"
);
}
);
width = 737;
}
);
leftKerningGroup = C;
note = G;
rightKerningGroup = G;
unicode = 0047;
},
{
glyphname = Gbreve;
lastChange = "2019-09-30 19:56:48 +0000";
layers = (
{
hints = (
{
horizontal = 1;
place = "{0, 125.94}";
type = Stem;
},
{
horizontal = 1;
place = "{273.87, 126.5}";
type = Stem;
},
{
horizontal = 1;
place = "{610.94, 126.06}";
type = Stem;
},
{
horizontal = 1;
place = "{794.62, 86}";
type = Stem;
},
{
place = "{55, 156.11}";
type = Stem;
},
{
place = "{426.3, 106.19}";
type = Stem;
},
{
horizontal = 1;
place = "{868.25, 73.87}";
type = Stem;
},
{
place = "{188.24, 106.19}";
type = Stem;
},
{
place = "{536.44, 130.69}";
type = Stem;
},
{
horizontal = 1;
place = "{0, 125.94}";
type = Stem;
},
{
horizontal = 1;
place = "{273.87, 126.5}";
type = Stem;
},
{
horizontal = 1;
place = "{610.94, 126.06}";
type = Stem;
},
{
place = "{55, 156.11}";
type = Stem;
},
{
place = "{536.44, 130.69}";
type = Stem;
},
{
horizontal = 1;
place = "{794.62, 86}";
type = Stem;
},
{
place = "{358, 106.19}";
type = Stem;
},
{
place = "{596.06, 106.19}";
type = Stem;
},
{
horizontal = 1;
place = "{868.25, 73.87}";
type = Stem;
}
);
layerId = "37B3F0A2-20CC-4AE3-B6A0-1D169A898E63";
paths = (
{
closed = 1;
nodes = (
"457.15 0 LINE",
"549 70 LINE",
"536.44 0 LINE",
"669.13 0 LINE",
"740 400 LINE",
"450 400 LINE",
"428 274 LINE",
"579 274 LINE",
"570 219 LINE",
"448 126 LINE",
"273 126 LINE",
"240 166 LINE",
"312 572 LINE",
"358 611 LINE",
"594 611 LINE",
"662.7 529.285 LINE",
"769.167 617.236 LINE",
"669.13 737 LINE",
"294 737 LINE",
"163 626 LINE",
"73 111 LINE",
"164.02 0 LINE"
);
},
{
closed = 1;
nodes = (
"393.5 795 LINE",
"586.5 795 LINE",
"677.5 868 LINE",
"690.5 942 LINE",
"582.5 942 LINE",
"574.5 898 LINE",
"553.5 881 LINE",
"456.5 881 LINE",
"442.5 898 LINE",
"450.5 942 LINE",
"342.5 942 LINE",
"329.5 868 LINE"
);
}
);
width = 737;
}
);
leftKerningGroup = C;
note = Gbreve;
rightKerningGroup = G;
unicode = 011E;
},
{
glyphname = Gcaron;
lastChange = "2019-09-30 19:56:48 +0000";
layers = (
{
hints = (
{
horizontal = 1;
place = "{0, 125.94}";
type = Stem;
},
{
horizontal = 1;
place = "{273.87, 126.5}";
type = Stem;
},
{
horizontal = 1;
place = "{610.94, 126.06}";
type = Stem;
},
{
horizontal = 1;
place = "{794.62, 147.5}";
type = Stem;
},
{
place = "{55, 156.11}";
type = Stem;
},
{
place = "{536.44, 130.69}";
type = Stem;
},
{
horizontal = 1;
place = "{0, 125.94}";
type = Stem;
},
{
horizontal = 1;
place = "{273.87, 126.5}";
type = Stem;
},
{
horizontal = 1;
place = "{610.94, 126.06}";
type = Stem;
},
{
place = "{55, 156.11}";
type = Stem;
},
{
place = "{536.44, 130.69}";
type = Stem;
},
{
horizontal = 1;
place = "{794.62, 147.5}";
type = Stem;
},
{
place = "{365.5, 380.25}";
type = Stem;
}
);
layerId = "37B3F0A2-20CC-4AE3-B6A0-1D169A898E63";
paths = (
{
closed = 1;
nodes = (
"457.15 0 LINE",
"549 70 LINE",
"536.44 0 LINE",
"669.13 0 LINE",
"740 400 LINE",
"450 400 LINE",
"428 274 LINE",
"579 274 LINE",
"570 219 LINE",
"448 126 LINE",
"273 126 LINE",
"240 166 LINE",
"312 572 LINE",
"358 611 LINE",
"594 611 LINE",
"662.7 529.285 LINE",
"769.167 617.236 LINE",
"669.13 737 LINE",
"294 737 LINE",
"163 626 LINE",
"73 111 LINE",
"164.02 0 LINE"
);
},
{
closed = 1;
nodes = (
"408.5 795 LINE",
"571.5 795 LINE",
"705.5 942 LINE",
"580.5 942 LINE",
"499.5 872 LINE",
"442.5 942 LINE",
"325.5 942 LINE"
);
}
);
width = 737;
}
);
leftKerningGroup = C;
note = Gcaron;
rightKerningGroup = G;
unicode = 01E6;
},
{
glyphname = Gcircumflex;
lastChange = "2019-09-30 19:56:48 +0000";
layers = (
{
hints = (
{
horizontal = 1;
place = "{0, 125.94}";
type = Stem;
},
{
horizontal = 1;
place = "{273.87, 126.5}";
type = Stem;
},
{
horizontal = 1;
place = "{610.94, 126.06}";
type = Stem;
},
{
horizontal = 1;
place = "{794.62, 147.5}";
type = Stem;
},
{
place = "{55, 156.11}";
type = Stem;
},
{
place = "{536.44, 130.69}";
type = Stem;
},
{
horizontal = 1;
place = "{0, 125.94}";
type = Stem;
},
{
horizontal = 1;
place = "{273.87, 126.5}";
type = Stem;
},
{
horizontal = 1;
place = "{610.94, 126.06}";
type = Stem;
},
{
place = "{55, 156.11}";
type = Stem;
},
{
place = "{536.44, 130.69}";
type = Stem;
},
{
horizontal = 1;
place = "{794.62, 147.5}";
type = Stem;
},
{
place = "{325.5, 380.25}";
type = Stem;
}
);
layerId = "37B3F0A2-20CC-4AE3-B6A0-1D169A898E63";
paths = (
{
closed = 1;
nodes = (
"457.15 0 LINE",
"549 70 LINE",
"536.44 0 LINE",
"669.13 0 LINE",
"740 400 LINE",
"450 400 LINE",
"428 274 LINE",
"579 274 LINE",
"570 219 LINE",
"448 126 LINE",
"273 126 LINE",
"240 166 LINE",
"312 572 LINE",
"358 611 LINE",
"594 611 LINE",
"662.7 529.285 LINE",
"769.167 617.236 LINE",
"669.13 737 LINE",
"294 737 LINE",
"163 626 LINE",
"73 111 LINE",
"164.02 0 LINE"
);
},
{
closed = 1;
nodes = (
"422 795 LINE",
"503 865 LINE",
"559 795 LINE",
"679 795 LINE",
"596 942 LINE",
"433 942 LINE",
"299 795 LINE"
);
}
);
width = 737;
}
);
leftKerningGroup = C;
note = Gcircumflex;
rightKerningGroup = G;
unicode = 011C;
},
{
glyphname = uni0122;
lastChange = "2019-09-30 19:56:48 +0000";
layers = (
{
hints = (
{
horizontal = 1;
place = "{-239.88, 182.75}";
type = Stem;
},
{
horizontal = 1;
place = "{0, 125.94}";
type = Stem;
},
{
horizontal = 1;
place = "{273.87, 126.5}";
type = Stem;
},
{
horizontal = 1;
place = "{610.94, 126.06}";
type = Stem;
},
{
place = "{55, 156.11}";
type = Stem;
},
{
place = "{536.44, 130.69}";
type = Stem;
},
{
horizontal = 1;
place = "{0, 125.94}";
type = Stem;
},
{
horizontal = 1;
place = "{273.87, 126.5}";
type = Stem;
},
{
horizontal = 1;
place = "{610.94, 126.06}";
type = Stem;
},
{
place = "{55, 156.11}";
type = Stem;
},
{
place = "{536.44, 130.69}";
type = Stem;
},
{
horizontal = 1;
place = "{-239.88, 182.75}";
type = Stem;
},
{
place = "{-47.065, 189.19}";
type = Stem;
}
);
layerId = "37B3F0A2-20CC-4AE3-B6A0-1D169A898E63";
paths = (
{
closed = 1;
nodes = (
"457.15 0 LINE",
"549 70 LINE",
"536.44 0 LINE",
"669.13 0 LINE",
"740 400 LINE",
"450 400 LINE",
"428 274 LINE",
"579 274 LINE",
"570 219 LINE",
"448 126 LINE",
"273 126 LINE",
"240 166 LINE",
"312 572 LINE",
"358 611 LINE",
"594 611 LINE",
"662.7 529.285 LINE",
"769.167 617.236 LINE",
"669.13 737 LINE",
"294 737 LINE",
"163 626 LINE",
"73 111 LINE",
"164.02 0 LINE"
);
},
{
closed = 1;
nodes = (
"287.125 -240 LINE",
"422.125 -57 LINE",
"269.125 -57 LINE",
"193.125 -240 LINE"
);
}
);
width = 737;
}
);
leftKerningGroup = C;
note = uni0122;
rightKerningGroup = G;
unicode = 0122;
},
{
glyphname = Gdotaccent;
lastChange = "2019-09-30 19:56:48 +0000";
layers = (
{
hints = (
{
horizontal = 1;
place = "{0, 125.94}";
type = Stem;
},
{
horizontal = 1;
place = "{273.87, 126.5}";
type = Stem;
},
{
horizontal = 1;
place = "{610.94, 126.06}";
type = Stem;
},
{
horizontal = 1;
place = "{794.62, 132.69}";
type = Stem;
},
{
place = "{55, 156.11}";
type = Stem;
},
{
place = "{283.37, 154}";
type = Stem;
},
{
place = "{536.44, 130.69}";
type = Stem;
},
{
horizontal = 1;
place = "{0, 125.94}";
type = Stem;
},
{
horizontal = 1;
place = "{273.87, 126.5}";
type = Stem;
},
{
horizontal = 1;
place = "{610.94, 126.06}";
type = Stem;
},
{
place = "{55, 156.11}";
type = Stem;
},
{
place = "{536.44, 130.69}";
type = Stem;
},
{
horizontal = 1;
place = "{794.62, 132.69}";
type = Stem;
},
{
place = "{493, 154}";
type = Stem;
}
);
layerId = "37B3F0A2-20CC-4AE3-B6A0-1D169A898E63";
paths = (
{
closed = 1;
nodes = (
"457.15 0 LINE",
"549 70 LINE",
"536.44 0 LINE",
"669.13 0 LINE",
"740 400 LINE",
"450 400 LINE",
"428 274 LINE",
"579 274 LINE",
"570 219 LINE",
"448 126 LINE",
"273 126 LINE",
"240 166 LINE",
"312 572 LINE",
"358 611 LINE",
"594 611 LINE",
"662.7 529.285 LINE",
"769.167 617.236 LINE",
"669.13 737 LINE",
"294 737 LINE",
"163 626 LINE",
"73 111 LINE",
"164.02 0 LINE"
);
},
{
closed = 1;
nodes = (
"578 795 LINE",
"601.397 927.69 LINE",
"445.397 927.69 LINE",
"422 795 LINE"
);
}
);
width = 737;
}
);
leftKerningGroup = C;
note = Gdotaccent;
rightKerningGroup = G;
unicode = 0120;
},
{
glyphname = H;
lastChange = "2019-09-30 19:56:48 +0000";
layers = (
{
hints = (
{
horizontal = 1;
place = "{324.06, 128}";
type = Stem;
},
{
place = "{75, 156.2}";
type = Stem;
},
{
place = "{517.81, 156.2}";
type = Stem;
}
);
layerId = "37B3F0A2-20CC-4AE3-B6A0-1D169A898E63";
paths = (
{
closed = 1;
nodes = (
"231.2 0 LINE",
"288 324 LINE",
"575 324 LINE",
"517.81 0 LINE",
"676 0 LINE",
"806 737 LINE",
"648 737 LINE",
"598 452 LINE",
"311 452 LINE",
"361 737 LINE",
"203 737 LINE",
"73 0 LINE"
);
}
);
width = 749;
}
);
leftKerningGroup = B;
note = H;
rightKerningGroup = H;
unicode = 0048;
},
{
glyphname = Hbar;
lastChange = "2019-09-30 19:56:48 +0000";
layers = (
{
hints = (
{
horizontal = 1;
place = "{324.06, 128}";
type = Stem;
},
{
horizontal = 1;
place = "{535.37, 108}";
type = Stem;
},
{
place = "{75, 156.2}";
type = Stem;
},
{
place = "{517.81, 156.2}";
type = Stem;
},
{
horizontal = 1;
place = "{324.06, 128}";
type = Stem;
},
{
place = "{75, 156.2}";
type = Stem;
},
{
place = "{517.81, 156.2}";
type = Stem;
}
);
layerId = "37B3F0A2-20CC-4AE3-B6A0-1D169A898E63";
paths = (
{
closed = 1;
nodes = (
"830 535 LINE",
"849 643 LINE",
"126 643 LINE",
"107 535 LINE"
);
},
{
closed = 1;
nodes = (
"231.2 0 LINE",
"288 324 LINE",
"575 324 LINE",
"517.81 0 LINE",
"676 0 LINE",
"806 737 LINE",
"648 737 LINE",
"598 452 LINE",
"311 452 LINE",
"361 737 LINE",
"203 737 LINE",
"73 0 LINE"
);
}
);
width = 749;
}
);
leftKerningGroup = B;
note = Hbar;
rightKerningGroup = H;
unicode = 0126;
},
{
glyphname = Hcircumflex;
lastChange = "2019-09-30 19:56:48 +0000";
layers = (
{
hints = (
{
horizontal = 1;
place = "{324.06, 128}";
type = Stem;
},
{
horizontal = 1;
place = "{794.62, 147.5}";
type = Stem;
},
{
place = "{75, 156.2}";
type = Stem;
},
{
place = "{517.81, 156.2}";
type = Stem;
},
{
horizontal = 1;
place = "{324.06, 128}";
type = Stem;
},
{
place = "{75, 156.2}";
type = Stem;
},
{
place = "{517.81, 156.2}";
type = Stem;
},
{
horizontal = 1;
place = "{794.62, 147.5}";
type = Stem;
},
{
place = "{340, 380.25}";
type = Stem;
}
);
layerId = "37B3F0A2-20CC-4AE3-B6A0-1D169A898E63";
paths = (
{
closed = 1;
nodes = (
"231.2 0 LINE",
"288 324 LINE",
"575 324 LINE",
"517.81 0 LINE",
"676 0 LINE",
"806 737 LINE",
"648 737 LINE",
"598 452 LINE",
"311 452 LINE",
"361 737 LINE",
"203 737 LINE",
"73 0 LINE"
);
},
{
closed = 1;
nodes = (
"436.5 795 LINE",
"517.5 865 LINE",
"573.5 795 LINE",
"693.5 795 LINE",
"610.5 942 LINE",
"447.5 942 LINE",
"313.5 795 LINE"
);
}
);
width = 749;
}
);
leftKerningGroup = B;
note = Hcircumflex;
rightKerningGroup = H;
unicode = 0124;
},
{
glyphname = I;
lastChange = "2019-09-30 19:56:48 +0000";
layers = (
{
hints = (
{
horizontal = 1;
place = "{0, 127.69}";
type = Stem;
},
{
horizontal = 1;
place = "{609.31, 127.69}";
type = Stem;
},
{
place = "{127.87, 151.2}";
type = Stem;
}
);
layerId = "37B3F0A2-20CC-4AE3-B6A0-1D169A898E63";
paths = (
{
closed = 1;
nodes = (
"359 0 LINE",
"381 128 LINE",
"302 128 LINE",
"388 609 LINE",
"467 609 LINE",
"489 737 LINE",
"178 737 LINE",
"155 609 LINE",
"234 609 LINE",
"150 128 LINE",
"71 128 LINE",
"48 0 LINE"
);
}
);
width = 408;
}
);
leftKerningGroup = B;
note = I;
rightKerningGroup = H;
unicode = 0049;
},
{
glyphname = Iacute;
lastChange = "2019-09-30 19:56:48 +0000";
layers = (
{
hints = (
{
horizontal = 1;
place = "{0, 127.69}";
type = Stem;
},
{
horizontal = 1;
place = "{609.31, 127.69}";
type = Stem;
},
{
horizontal = 1;
place = "{794.62, 155.5}";
type = Stem;
},
{
place = "{127.87, 151.2}";
type = Stem;
},
{
horizontal = 1;
place = "{0, 127.69}";
type = Stem;
},
{
horizontal = 1;
place = "{609.31, 127.69}";
type = Stem;
},
{
place = "{127.87, 151.2}";
type = Stem;
},
{
horizontal = 1;
place = "{794.62, 155.5}";
type = Stem;
},
{
place = "{298.753, 263.37}";
type = Stem;
}
);
layerId = "37B3F0A2-20CC-4AE3-B6A0-1D169A898E63";
paths = (
{
closed = 1;
nodes = (
"359 0 LINE",
"381 128 LINE",
"302 128 LINE",
"388 609 LINE",
"467 609 LINE",
"489 737 LINE",
"178 737 LINE",
"155 609 LINE",
"234 609 LINE",
"150 128 LINE",
"71 128 LINE",
"48 0 LINE"
);
},
{
closed = 1;
nodes = (
"408.203 795 LINE",
"580.203 950 LINE",
"409.753 950 LINE",
"278.753 795 LINE"
);
}
);
width = 408;
}
);
leftKerningGroup = B;
note = Iacute;
rightKerningGroup = H;
unicode = 00CD;
},
{
glyphname = Ibreve;
lastChange = "2019-09-30 19:56:48 +0000";
layers = (
{
hints = (
{
horizontal = 1;
place = "{0, 127.69}";
type = Stem;
},
{
horizontal = 1;
place = "{609.31, 127.69}";
type = Stem;
},
{
horizontal = 1;
place = "{868.25, 73.87}";
type = Stem;
},
{
place = "{269.69, 106.18}";
type = Stem;
},
{
horizontal = 1;
place = "{794.62, 86}";
type = Stem;
},
{
place = "{31.62, 106.19}";
type = Stem;
},
{
place = "{127.87, 151.2}";
type = Stem;
},
{
horizontal = 1;
place = "{0, 127.69}";
type = Stem;
},
{
horizontal = 1;
place = "{609.31, 127.69}";
type = Stem;
},
{
place = "{127.87, 151.2}";
type = Stem;
},
{
horizontal = 1;
place = "{794.62, 86}";
type = Stem;
},
{
place = "{201, 106.19}";
type = Stem;
},
{
place = "{439.06, 106.19}";
type = Stem;
},
{
horizontal = 1;
place = "{868.25, 73.87}";
type = Stem;
}
);
layerId = "37B3F0A2-20CC-4AE3-B6A0-1D169A898E63";
paths = (
{
closed = 1;
nodes = (
"359 0 LINE",
"381 128 LINE",
"302 128 LINE",
"388 609 LINE",
"467 609 LINE",
"489 737 LINE",
"178 737 LINE",
"155 609 LINE",
"234 609 LINE",
"150 128 LINE",
"71 128 LINE",
"48 0 LINE"
);
},
{
closed = 1;
nodes = (
"236.5 795 LINE",
"429.5 795 LINE",
"520.5 868 LINE",
"533.5 942 LINE",
"425.5 942 LINE",
"417.5 898 LINE",
"396.5 881 LINE",
"299.5 881 LINE",
"285.5 898 LINE",
"293.5 942 LINE",
"185.5 942 LINE",
"172.5 868 LINE"
);
}
);
width = 408;
}
);
leftKerningGroup = B;
note = Ibreve;
rightKerningGroup = H;
unicode = 012C;
},
{
glyphname = Icircumflex;
lastChange = "2019-09-30 19:56:48 +0000";
layers = (
{
hints = (
{
horizontal = 1;
place = "{0, 127.69}";
type = Stem;
},
{
horizontal = 1;
place = "{609.31, 127.69}";
type = Stem;
},
{
horizontal = 1;
place = "{794.62, 147.5}";
type = Stem;
},
{
place = "{127.87, 151.2}";
type = Stem;
},
{
horizontal = 1;
place = "{0, 127.69}";
type = Stem;
},
{
horizontal = 1;
place = "{609.31, 127.69}";
type = Stem;
},
{
place = "{127.87, 151.2}";
type = Stem;
},
{
horizontal = 1;
place = "{794.62, 147.5}";
type = Stem;
},
{
place = "{168.5, 380.25}";
type = Stem;
}
);
layerId = "37B3F0A2-20CC-4AE3-B6A0-1D169A898E63";
paths = (
{
closed = 1;
nodes = (
"359 0 LINE",
"381 128 LINE",
"302 128 LINE",
"388 609 LINE",
"467 609 LINE",
"489 737 LINE",
"178 737 LINE",
"155 609 LINE",
"234 609 LINE",
"150 128 LINE",
"71 128 LINE",
"48 0 LINE"
);
},
{
closed = 1;
nodes = (
"265 795 LINE",
"346 865 LINE",
"402 795 LINE",
"522 795 LINE",
"439 942 LINE",
"276 942 LINE",
"142 795 LINE"
);
}
);
width = 408;
}
);
leftKerningGroup = B;
note = Icircumflex;
rightKerningGroup = H;
unicode = 00CE;
},
{
glyphname = uni0208;
lastChange = "2019-09-30 19:56:48 +0000";
layers = (
{
hints = (
{
horizontal = 1;
place = "{0, 127.69}";
type = Stem;
},
{
horizontal = 1;
place = "{609.31, 127.69}";
type = Stem;
},
{
horizontal = 1;
place = "{794.62, 155.5}";
type = Stem;
},
{
place = "{127.87, 151.2}";
type = Stem;
},
{
horizontal = 1;
place = "{0, 127.69}";
type = Stem;
},
{
horizontal = 1;
place = "{609.31, 127.69}";
type = Stem;
},
{
place = "{127.87, 151.2}";
type = Stem;
},
{
horizontal = 1;
place = "{794.62, 155.5}";
type = Stem;
},
{
place = "{-456.978, 459.75}";
type = Stem;
},
{
horizontal = 1;
place = "{786.12, 155.5}";
type = Stem;
},
{
place = "{267.886, 263.37}";
type = Stem;
},
{
horizontal = 1;
place = "{786.12, 155.5}";
type = Stem;
},
{
place = "{70.772, 263.37}";
type = Stem;
}
);
layerId = "37B3F0A2-20CC-4AE3-B6A0-1D169A898E63";
paths = (
{
closed = 1;
nodes = (
"359 0 LINE",
"381 128 LINE",
"302 128 LINE",
"388 609 LINE",
"467 609 LINE",
"489 737 LINE",
"178 737 LINE",
"155 609 LINE",
"234 609 LINE",
"150 128 LINE",
"71 128 LINE",
"48 0 LINE"
);
},
{
closed = 1;
nodes = (
"482.496 795 LINE",
"406.496 950 LINE",
"256.382 950 LINE",
"373.382 795 LINE"
);
},
{
closed = 1;
nodes = (
"176.268 795 LINE",
"285.382 795 LINE",
"209.382 950 LINE",
"59.268 950 LINE"
);
}
);
width = 408;
}
);
leftKerningGroup = B;
note = uni0208;
rightKerningGroup = H;
unicode = 0208;
},
{
glyphname = Idieresis;
lastChange = "2019-09-30 19:56:48 +0000";
layers = (
{
hints = (
{
horizontal = 1;
place = "{0, 127.69}";
type = Stem;
},
{
horizontal = 1;
place = "{609.31, 127.69}";
type = Stem;
},
{
horizontal = 1;
place = "{794.62, 132.75}";
type = Stem;
},
{
place = "{-7.75, 148}";
type = Stem;
},
{
place = "{267.25, 148}";
type = Stem;
},
{
place = "{127.87, 151.2}";
type = Stem;
},
{
horizontal = 1;
place = "{0, 127.69}";
type = Stem;
},
{
horizontal = 1;
place = "{609.31, 127.69}";
type = Stem;
},
{
place = "{127.87, 151.2}";
type = Stem;
},
{
horizontal = 1;
place = "{794.62, 132.75}";
type = Stem;
},
{
place = "{158.5, 148}";
type = Stem;
},
{
place = "{433.5, 148}";
type = Stem;
}
);
layerId = "37B3F0A2-20CC-4AE3-B6A0-1D169A898E63";
paths = (
{
closed = 1;
nodes = (
"359 0 LINE",
"381 128 LINE",
"302 128 LINE",
"388 609 LINE",
"467 609 LINE",
"489 737 LINE",
"178 737 LINE",
"155 609 LINE",
"234 609 LINE",
"150 128 LINE",
"71 128 LINE",
"48 0 LINE"
);
},
{
closed = 1;
nodes = (
"556 795 LINE",
"579 927 LINE",
"429 927 LINE",
"406 795 LINE"
);
},
{
closed = 1;
nodes = (
"281 795 LINE",
"304 927 LINE",
"154 927 LINE",
"131 795 LINE"
);
}
);
width = 408;
}
);
leftKerningGroup = B;
note = Idieresis;
rightKerningGroup = H;
unicode = 00CF;
},
{
glyphname = Idotaccent;
lastChange = "2019-09-30 19:56:48 +0000";
layers = (
{
hints = (
{
horizontal = 1;
place = "{0, 127.69}";
type = Stem;
},
{
horizontal = 1;
place = "{609.31, 127.69}";
type = Stem;
},
{
horizontal = 1;
place = "{794.62, 132.69}";
type = Stem;
},
{
place = "{127.87, 151.2}";
type = Stem;
},
{
horizontal = 1;
place = "{0, 127.69}";
type = Stem;
},
{
horizontal = 1;
place = "{609.31, 127.69}";
type = Stem;
},
{
place = "{127.87, 151.2}";
type = Stem;
},
{
horizontal = 1;
place = "{794.62, 132.69}";
type = Stem;
},
{
place = "{336, 154}";
type = Stem;
}
);
layerId = "37B3F0A2-20CC-4AE3-B6A0-1D169A898E63";
paths = (
{
closed = 1;
nodes = (
"359 0 LINE",
"381 128 LINE",
"302 128 LINE",
"388 609 LINE",
"467 609 LINE",
"489 737 LINE",
"178 737 LINE",
"155 609 LINE",
"234 609 LINE",
"150 128 LINE",
"71 128 LINE",
"48 0 LINE"
);
},
{
closed = 1;
nodes = (
"421 795 LINE",
"444.397 927.69 LINE",
"288.397 927.69 LINE",
"265 795 LINE"
);
}
);
width = 408;
}
);
leftKerningGroup = B;
note = Idotaccent;
rightKerningGroup = H;
unicode = 0130;
},
{
glyphname = uni1ECA;
lastChange = "2019-09-30 19:56:48 +0000";
layers = (
{
hints = (
{
horizontal = 1;
place = "{-189.81, 132.68}";
type = Stem;
},
{
horizontal = 1;
place = "{0, 127.69}";
type = Stem;
},
{
horizontal = 1;
place = "{609.31, 127.69}";
type = Stem;
},
{
place = "{127.87, 151.2}";
type = Stem;
},
{
horizontal = 1;
place = "{0, 127.69}";
type = Stem;
},
{
horizontal = 1;
place = "{609.31, 127.69}";
type = Stem;
},
{
place = "{127.87, 151.2}";
type = Stem;
},
{
horizontal = 1;
place = "{-189.81, 132.68}";
type = Stem;
},
{
place = "{-135.5, 154}";
type = Stem;
},
{
horizontal = 1;
place = "{-190.38, 132.69}";
type = Stem;
},
{
place = "{163.5, 154}";
type = Stem;
},
{
horizontal = 1;
place = "{-190.38, 132.69}";
type = Stem;
},
{
place = "{163.5, 154}";
type = Stem;
},
{
horizontal = 1;
place = "{-190.38, 132.69}";
type = Stem;
},
{
place = "{163.5, 154}";
type = Stem;
}
);
layerId = "37B3F0A2-20CC-4AE3-B6A0-1D169A898E63";
paths = (
{
closed = 1;
nodes = (
"359 0 LINE",
"381 128 LINE",
"302 128 LINE",
"388 609 LINE",
"467 609 LINE",
"489 737 LINE",
"178 737 LINE",
"155 609 LINE",
"234 609 LINE",
"150 128 LINE",
"71 128 LINE",
"48 0 LINE"
);
},
{
closed = 1;
nodes = (
"248.5 -190 LINE",
"271.897 -57.31 LINE",
"115.897 -57.31 LINE",
"92.5 -190 LINE"
);
}
);
width = 408;
}
);
leftKerningGroup = B;
note = uni1ECA;
rightKerningGroup = H;
unicode = 1ECA;
},
{
glyphname = Igrave;
lastChange = "2019-09-30 19:56:48 +0000";
layers = (
{
hints = (
{
horizontal = 1;
place = "{0, 127.69}";
type = Stem;
},
{
horizontal = 1;
place = "{609.31, 127.69}";
type = Stem;
},
{
horizontal = 1;
place = "{794.62, 155.5}";
type = Stem;
},
{
place = "{127.87, 151.2}";
type = Stem;
},
{
horizontal = 1;
place = "{0, 127.69}";
type = Stem;
},
{
horizontal = 1;
place = "{609.31, 127.69}";
type = Stem;
},
{
place = "{127.87, 151.2}";
type = Stem;
},
{
horizontal = 1;
place = "{786.12, 155.5}";
type = Stem;
},
{
place = "{173.5, 263.37}";
type = Stem;
}
);
layerId = "37B3F0A2-20CC-4AE3-B6A0-1D169A898E63";
paths = (
{
closed = 1;
nodes = (
"359 0 LINE",
"381 128 LINE",
"302 128 LINE",
"388 609 LINE",
"467 609 LINE",
"489 737 LINE",
"178 737 LINE",
"155 609 LINE",
"234 609 LINE",
"150 128 LINE",
"71 128 LINE",
"48 0 LINE"
);
},
{
closed = 1;
nodes = (
"278.996 795 LINE",
"388.11 795 LINE",
"312.11 950 LINE",
"161.996 950 LINE"
);
}
);
width = 408;
}
);
leftKerningGroup = B;
note = Igrave;
rightKerningGroup = H;
unicode = 00CC;
},
{
glyphname = uni1EC8;
lastChange = "2019-09-30 19:56:48 +0000";
layers = (
{
hints = (
{
horizontal = 1;
place = "{0, 127.69}";
type = Stem;
},
{
horizontal = 1;
place = "{609.31, 127.69}";
type = Stem;
},
{
horizontal = 1;
place = "{921.8, 95.65}";
type = Stem;
},
{
place = "{150.39, 103.65}";
type = Stem;
},
{
horizontal = 1;
place = "{795, 76.3}";
type = Stem;
},
{
place = "{220.34, 106.5}";
type = Stem;
},
{
place = "{82.94, 102.15}";
type = Stem;
},
{
place = "{127.87, 151.2}";
type = Stem;
},
{
horizontal = 1;
place = "{0, 127.69}";
type = Stem;
},
{
horizontal = 1;
place = "{609.31, 127.69}";
type = Stem;
},
{
place = "{127.87, 151.2}";
type = Stem;
},
{
horizontal = 1;
place = "{795, 76.3}";
type = Stem;
},
{
horizontal = 1;
place = "{921.8, 95.65}";
type = Stem;
},
{
place = "{-2.11, 103.65}";
type = Stem;
},
{
place = "{-69.56, 102.15}";
type = Stem;
},
{
place = "{67.84, 106.5}";
type = Stem;
}
);
layerId = "37B3F0A2-20CC-4AE3-B6A0-1D169A898E63";
paths = (
{
closed = 1;
nodes = (
"359 0 LINE",
"381 128 LINE",
"302 128 LINE",
"388 609 LINE",
"467 609 LINE",
"489 737 LINE",
"178 737 LINE",
"155 609 LINE",
"234 609 LINE",
"150 128 LINE",
"71 128 LINE",
"48 0 LINE"
);
},
{
closed = 1;
nodes = (
"338 922 LINE",
"343 947 LINE",
"378 947 LINE",
"373 920 LINE",
"294 871 LINE",
"280 795 LINE",
"386 795 LINE",
"393 835 LINE",
"475 883 LINE",
"491 973 LINE",
"452 1017 LINE",
"298 1017 LINE",
"243 972 LINE",
"234 922 LINE"
);
}
);
width = 408;
}
);
leftKerningGroup = B;
note = uni1EC8;
rightKerningGroup = H;
unicode = 1EC8;
},
{
glyphname = uni020A;
lastChange = "2019-09-30 19:56:48 +0000";
layers = (
{
hints = (
{
horizontal = 1;
place = "{0, 127.69}";
type = Stem;
},
{
horizontal = 1;
place = "{609.31, 127.69}";
type = Stem;
},
{
horizontal = 1;
place = "{856.44, 85.56}";
type = Stem;
},
{
place = "{127.87, 151.2}";
type = Stem;
},
{
place = "{31.62, 106.19}";
type = Stem;
},
{
horizontal = 1;
place = "{795, 73.31}";
type = Stem;
},
{
place = "{269.69, 106.18}";
type = Stem;
},
{
horizontal = 1;
place = "{0, 127.69}";
type = Stem;
},
{
horizontal = 1;
place = "{609.31, 127.69}";
type = Stem;
},
{
place = "{127.87, 151.2}";
type = Stem;
},
{
horizontal = 1;
place = "{795, 73.31}";
type = Stem;
},
{
place = "{-232.161, 106.19}";
type = Stem;
},
{
place = "{5.899, 106.19}";
type = Stem;
},
{
horizontal = 1;
place = "{856.44, 85.56}";
type = Stem;
},
{
horizontal = 1;
place = "{942.38, -86}";
type = Stem;
},
{
place = "{501.093, -106.19}";
type = Stem;
},
{
place = "{263.033, -106.19}";
type = Stem;
},
{
horizontal = 1;
place = "{868.75, -73.87}";
type = Stem;
}
);
layerId = "37B3F0A2-20CC-4AE3-B6A0-1D169A898E63";
paths = (
{
closed = 1;
nodes = (
"359 0 LINE",
"381 128 LINE",
"302 128 LINE",
"388 609 LINE",
"467 609 LINE",
"489 737 LINE",
"178 737 LINE",
"155 609 LINE",
"234 609 LINE",
"150 128 LINE",
"71 128 LINE",
"48 0 LINE"
);
},
{
closed = 1;
nodes = (
"276.593 795 LINE",
"284.593 839 LINE",
"305.593 856 LINE",
"402.593 856 LINE",
"416.593 839 LINE",
"408.593 795 LINE",
"516.593 795 LINE",
"529.593 869 LINE",
"465.593 942 LINE",
"272.593 942 LINE",
"181.593 869 LINE",
"168.593 795 LINE"
);
}
);
width = 408;
}
);
leftKerningGroup = B;
note = uni020A;
rightKerningGroup = H;
unicode = 020A;
},
{
glyphname = Imacron;
lastChange = "2019-09-30 19:56:48 +0000";
layers = (
{
hints = (
{
horizontal = 1;
place = "{0, 127.69}";
type = Stem;
},
{
horizontal = 1;
place = "{609.31, 127.69}";
type = Stem;
},
{
horizontal = 1;
place = "{794.62, 104.07}";
type = Stem;
},
{
place = "{127.87, 151.2}";
type = Stem;
},
{
horizontal = 1;
place = "{0, 127.69}";
type = Stem;
},
{
horizontal = 1;
place = "{609.31, 127.69}";
type = Stem;
},
{
place = "{127.87, 151.2}";
type = Stem;
},
{
horizontal = 1;
place = "{794.62, 104.07}";
type = Stem;
},
{
place = "{143.532, 423}";
type = Stem;
}
);
layerId = "37B3F0A2-20CC-4AE3-B6A0-1D169A898E63";
paths = (
{
closed = 1;
nodes = (
"359 0 LINE",
"381 128 LINE",
"302 128 LINE",
"388 609 LINE",
"467 609 LINE",
"489 737 LINE",
"178 737 LINE",
"155 609 LINE",
"234 609 LINE",
"150 128 LINE",
"71 128 LINE",
"48 0 LINE"
);
},
{
closed = 1;
nodes = (
"555.532 795 LINE",
"573.532 899 LINE",
"148.532 899 LINE",
"130.532 795 LINE"
);
}
);
width = 408;
}
);
leftKerningGroup = B;
note = Imacron;
rightKerningGroup = H;
unicode = 012A;
},
{
glyphname = Iogonek;
lastChange = "2019-09-30 19:56:48 +0000";
layers = (
{
hints = (
{
horizontal = 1;
place = "{-175.81, 91.68}";
type = Stem;
},
{
horizontal = 1;
place = "{0, 127.69}";
type = Stem;
},
{
horizontal = 1;
place = "{609.31, 127.69}";
type = Stem;
},
{
place = "{127.87, 151.2}";
type = Stem;
},
{
place = "{224.62, 132.88}";
type = Stem;
},
{
horizontal = 1;
place = "{0, 127.69}";
type = Stem;
},
{
horizontal = 1;
place = "{609.31, 127.69}";
type = Stem;
},
{
place = "{127.87, 151.2}";
type = Stem;
},
{
horizontal = 1;
place = "{-175.81, 91.68}";
type = Stem;
},
{
horizontal = 1;
place = "{-35.75, 35.75}";
type = Stem;
},
{
place = "{227.748, 89.94}";
type = Stem;
}
);
layerId = "37B3F0A2-20CC-4AE3-B6A0-1D169A898E63";
paths = (
{
closed = 1;
nodes = (
"359 0 LINE",
"381 128 LINE",
"302 128 LINE",
"388 609 LINE",
"467 609 LINE",
"489 737 LINE",
"178 737 LINE",
"155 609 LINE",
"234 609 LINE",
"150 128 LINE",
"71 128 LINE",
"48 0 LINE"
);
},
{
closed = 1;
nodes = (
"262.748 -176 LINE",
"333.748 -176 LINE",
"350.748 -84 LINE",
"320.748 -84 LINE",
"304.748 -65 LINE",
"309.748 -36 LINE",
"359.118 0 LINE",
"270.808 0 LINE",
"219.748 -33 LINE",
"205.748 -111 LINE"
);
}
);
width = 408;
}
);
leftKerningGroup = B;
note = Iogonek;
rightKerningGroup = H;
unicode = 012E;
},
{
glyphname = Itilde;
lastChange = "2019-09-30 19:56:48 +0000";
layers = (
{
hints = (
{
horizontal = 1;
place = "{0, 127.69}";
type = Stem;
},
{
horizontal = 1;
place = "{609.31, 127.69}";
type = Stem;
},
{
horizontal = 1;
place = "{794.62, 86.94}";
type = Stem;
},
{
place = "{127.87, 151.2}";
type = Stem;
},
{
place = "{318.94, 97.68}";
type = Stem;
},
{
horizontal = 1;
place = "{859.12, 84.94}";
type = Stem;
},
{
place = "{-2.13, 97.44}";
type = Stem;
},
{
horizontal = 1;
place = "{0, 127.69}";
type = Stem;
},
{
horizontal = 1;
place = "{609.31, 127.69}";
type = Stem;
},
{
place = "{127.87, 151.2}";
type = Stem;
},
{
horizontal = 1;
place = "{859.12, 84.94}";
type = Stem;
},
{
place = "{166.057, 97.44}";
type = Stem;
},
{
place = "{487.117, 97.69}";
type = Stem;
},
{
horizontal = 1;
place = "{794.62, 86.94}";
type = Stem;
}
);
layerId = "37B3F0A2-20CC-4AE3-B6A0-1D169A898E63";
paths = (
{
closed = 1;
nodes = (
"359 0 LINE",
"381 128 LINE",
"302 128 LINE",
"388 609 LINE",
"467 609 LINE",
"489 737 LINE",
"178 737 LINE",
"155 609 LINE",
"234 609 LINE",
"150 128 LINE",
"71 128 LINE",
"48 0 LINE"
);
},
{
closed = 1;
nodes = (
"232.307 800 LINE",
"237.307 825 LINE",
"267.307 859 LINE",
"293.307 859 LINE",
"339.307 795 LINE",
"487.307 795 LINE",
"566.307 864 LINE",
"581.307 939 LINE",
"480.307 939 LINE",
"476.307 913 LINE",
"446.307 882 LINE",
"420.307 882 LINE",
"373.307 944 LINE",
"225.307 944 LINE",
"147.307 876 LINE",
"132.307 800 LINE"
);
}
);
width = 408;
}
);
leftKerningGroup = B;
note = Itilde;
rightKerningGroup = H;
unicode = 0128;
},
{
glyphname = J;
lastChange = "2019-09-30 19:56:48 +0000";
layers = (
{
hints = (
{
horizontal = 1;
place = "{0, 125.97}";
type = Stem;
},
{
place = "{35, 156.25}";
type = Stem;
},
{
place = "{403.62, 156.13}";
type = Stem;
}
);
layerId = "37B3F0A2-20CC-4AE3-B6A0-1D169A898E63";
paths = (
{
closed = 1;
nodes = (
"144 0 LINE",
"450.75 0 LINE",
"581 111 LINE",
"692 737 LINE",
"534 737 LINE",
"433 166 LINE",
"386 126 LINE",
"253 126 LINE",
"220 166 LINE",
"244 298 LINE",
"86 298 LINE",
"53 111 LINE"
);
}
);
width = 635;
}
);
leftKerningGroup = J;
note = J;
unicode = 004A;
},
{
glyphname = Jcircumflex;
lastChange = "2019-09-30 19:56:48 +0000";
layers = (
{
hints = (
{
horizontal = 1;
place = "{0, 125.97}";
type = Stem;
},
{
horizontal = 1;
place = "{794.62, 147.5}";
type = Stem;
},
{
place = "{35, 156.25}";
type = Stem;
},
{
place = "{403.62, 156.13}";
type = Stem;
},
{
horizontal = 1;
place = "{0, 125.97}";
type = Stem;
},
{
place = "{35, 156.25}";
type = Stem;
},
{
place = "{403.62, 156.13}";
type = Stem;
},
{
horizontal = 1;
place = "{794.62, 147.5}";
type = Stem;
},
{
place = "{448.5, 380.25}";
type = Stem;
}
);
layerId = "37B3F0A2-20CC-4AE3-B6A0-1D169A898E63";
paths = (
{
closed = 1;
nodes = (
"450.75 0 LINE",
"581 111 LINE",
"692 737 LINE",
"534 737 LINE",
"433 166 LINE",
"386 126 LINE",
"253 126 LINE",
"220 166 LINE",
"244 298 LINE",
"86 298 LINE",
"53 111 LINE",
"144 0 LINE"
);
},
{
closed = 1;
nodes = (
"545 795 LINE",
"626 865 LINE",
"682 795 LINE",
"802 795 LINE",
"719 942 LINE",
"556 942 LINE",
"422 795 LINE"
);
}
);
width = 635;
}
);
note = Jcircumflex;
unicode = 0134;
},
{
glyphname = K;
lastChange = "2019-09-30 19:56:48 +0000";
layers = (
{
hints = (
{
horizontal = 1;
place = "{0, 737}";
type = Stem;
},
{
place = "{75, 156.2}";
type = Stem;
}
);
layerId = "37B3F0A2-20CC-4AE3-B6A0-1D169A898E63";
paths = (
{
closed = 1;
nodes = (
"231.2 0 LINE",
"266 196 LINE",
"383.056 311.982 LINE",
"520.362 0 LINE",
"683.1 0 LINE",
"491 419 LINE",
"813 737 LINE",
"619.747 737 LINE",
"305.823 425.298 LINE",
"361 737 LINE",
"203 737 LINE",
"73 0 LINE"
);
}
);
width = 686;
}
);
leftKerningGroup = B;
note = K;
rightKerningGroup = K;
unicode = 004B;
},
{
glyphname = uni0136;
lastChange = "2019-09-30 19:56:48 +0000";
layers = (
{
hints = (
{
horizontal = 1;
place = "{-239.88, 182.75}";
type = Stem;
},
{
place = "{75, 156.2}";
type = Stem;
},
{
horizontal = 1;
place = "{0, 737}";
type = Stem;
},
{
place = "{75, 156.2}";
type = Stem;
},
{
horizontal = 1;
place = "{-239.88, 182.75}";
type = Stem;
},
{
place = "{-32.69, 189.19}";
type = Stem;
}
);
layerId = "37B3F0A2-20CC-4AE3-B6A0-1D169A898E63";
paths = (
{
closed = 1;
nodes = (
"231.2 0 LINE",
"266 196 LINE",
"383.056 311.982 LINE",
"520.362 0 LINE",
"683.1 0 LINE",
"491 419 LINE",
"813 737 LINE",
"619.747 737 LINE",
"305.823 425.298 LINE",
"361 737 LINE",
"203 737 LINE",
"73 0 LINE"
);
},
{
closed = 1;
nodes = (
"301.5 -240 LINE",
"436.5 -57 LINE",
"283.5 -57 LINE",
"207.5 -240 LINE"
);
}
);
width = 686;
}
);
leftKerningGroup = B;
note = uni0136;
rightKerningGroup = K;
unicode = 0136;
},
{
glyphname = L;
lastChange = "2019-09-30 19:56:48 +0000";
layers = (
{
hints = (
{
horizontal = 1;
place = "{0, 133.19}";
type = Stem;
},
{
place = "{75, 156.2}";
type = Stem;
}
);
layerId = "37B3F0A2-20CC-4AE3-B6A0-1D169A898E63";
paths = (
{
closed = 1;
nodes = (
"580.47 0 LINE",
"603.955 133.19 LINE",
"254.685 133.19 LINE",
"361.153 737 LINE",
"202.953 737 LINE",
"73 0 LINE"
);
}
);
width = 591;
}
);
leftKerningGroup = B;
note = L;
rightKerningGroup = L;
unicode = 004C;
},
{
glyphname = uni01C7;
lastChange = "2019-09-30 19:56:48 +0000";
layers = (
{
hints = (
{
horizontal = 1;
place = "{0, 133.19}";
type = Stem;
},
{
place = "{75, 156.2}";
type = Stem;
},
{
place = "{642.62, 156.25}";
type = Stem;
},
{
place = "{1011.25, 156.12}";
type = Stem;
},
{
horizontal = 1;
place = "{0, 125.97}";
type = Stem;
},
{
place = "{644, 156.25}";
type = Stem;
},
{
place = "{1012.62, 156.13}";
type = Stem;
},
{
horizontal = 1;
place = "{0, 133.19}";
type = Stem;
},
{
place = "{75, 156.2}";
type = Stem;
}
);
layerId = "37B3F0A2-20CC-4AE3-B6A0-1D169A898E63";
paths = (
{
closed = 1;
nodes = (
"1059.75 0 LINE",
"1190 111 LINE",
"1301 737 LINE",
"1143 737 LINE",
"1042 166 LINE",
"995 126 LINE",
"862 126 LINE",
"829 166 LINE",
"853 298 LINE",
"695 298 LINE",
"662 111 LINE",
"753 0 LINE"
);
},
{
closed = 1;
nodes = (
"580.47 0 LINE",
"603.955 133.19 LINE",
"254.685 133.19 LINE",
"361.153 737 LINE",
"202.953 737 LINE",
"73 0 LINE"
);
}
);
width = 1242;
}
);
leftKerningGroup = B;
note = uni01C7;
unicode = 01C7;
},
{
glyphname = Lacute;
lastChange = "2019-09-30 19:56:48 +0000";
layers = (
{
hints = (
{
horizontal = 1;
place = "{0, 133.19}";
type = Stem;
},
{
horizontal = 1;
place = "{794.62, 155.5}";
type = Stem;
},
{
place = "{75, 156.2}";
type = Stem;
},
{
horizontal = 1;
place = "{0, 133.19}";
type = Stem;
},
{
place = "{75, 156.2}";
type = Stem;
},
{
horizontal = 1;
place = "{794.62, 155.5}";
type = Stem;
},
{
place = "{247.753, 263.37}";
type = Stem;
}
);
layerId = "37B3F0A2-20CC-4AE3-B6A0-1D169A898E63";
paths = (
{
closed = 1;
nodes = (
"580.47 0 LINE",
"603.955 133.19 LINE",
"254.685 133.19 LINE",
"361.153 737 LINE",
"202.953 737 LINE",
"73 0 LINE"
);
},
{
closed = 1;
nodes = (
"357.203 795 LINE",
"529.203 950 LINE",
"358.753 950 LINE",
"227.753 795 LINE"
);
}
);
width = 591;
}
);
leftKerningGroup = B;
note = Lacute;
rightKerningGroup = L;
unicode = 0139;
},
{
glyphname = Lcaron;
lastChange = "2019-09-30 19:56:48 +0000";
layers = (
{
hints = (
{
horizontal = 1;
place = "{0, 133.19}";
type = Stem;
},
{
horizontal = 1;
place = "{554.25, 182.75}";
type = Stem;
},
{
place = "{75, 156.2}";
type = Stem;
},
{
horizontal = 1;
place = "{0, 133.19}";
type = Stem;
},
{
place = "{75, 156.2}";
type = Stem;
}
);
layerId = "37B3F0A2-20CC-4AE3-B6A0-1D169A898E63";
paths = (
{
closed = 1;
nodes = (
"580.47 0 LINE",
"603.955 133.19 LINE",
"254.685 133.19 LINE",
"361.153 737 LINE",
"202.953 737 LINE",
"73 0 LINE"
);
},
{
closed = 1;
nodes = (
"532 554 LINE",
"667 737 LINE",
"512 737 LINE",
"436 554 LINE"
);
}
);
width = 591;
}
);
leftKerningGroup = B;
note = Lcaron;
rightKerningGroup = L;
unicode = 013D;
},
{
glyphname = uni013B;
lastChange = "2019-09-30 19:56:48 +0000";
layers = (
{
hints = (
{
horizontal = 1;
place = "{-239.88, 182.75}";
type = Stem;
},
{
horizontal = 1;
place = "{0, 133.19}";
type = Stem;
},
{
place = "{75, 156.2}";
type = Stem;
},
{
horizontal = 1;
place = "{0, 133.19}";
type = Stem;
},
{
place = "{75, 156.2}";
type = Stem;
},
{
horizontal = 1;
place = "{-239.88, 182.75}";
type = Stem;
},
{
place = "{-76.69, 189.19}";
type = Stem;
}
);
layerId = "37B3F0A2-20CC-4AE3-B6A0-1D169A898E63";
paths = (
{
closed = 1;
nodes = (
"580.47 0 LINE",
"603.955 133.19 LINE",
"254.685 133.19 LINE",
"361.153 737 LINE",
"202.953 737 LINE",
"73 0 LINE"
);
},
{
closed = 1;
nodes = (
"257.5 -240 LINE",
"392.5 -57 LINE",
"239.5 -57 LINE",
"163.5 -240 LINE"
);
}
);
width = 591;
}
);
leftKerningGroup = B;
note = uni013B;
rightKerningGroup = L;
unicode = 013B;
},
{
glyphname = Ldot;
lastChange = "2019-09-30 19:56:48 +0000";
layers = (
{
hints = (
{
horizontal = 1;
place = "{0, 133.19}";
type = Stem;
},
{
horizontal = 1;
place = "{331.14, 141.19}";
type = Stem;
},
{
place = "{75, 156.2}";
type = Stem;
},
{
place = "{371.16, 145}";
type = Stem;
},
{
horizontal = 1;
place = "{0, 133.19}";
type = Stem;
},
{
place = "{75, 156.2}";
type = Stem;
}
);
layerId = "37B3F0A2-20CC-4AE3-B6A0-1D169A898E63";
paths = (
{
closed = 1;
nodes = (
"576 331 LINE",
"600 472 LINE",
"453 472 LINE",
"429 331 LINE"
);
},
{
closed = 1;
nodes = (
"580.47 0 LINE",
"603.955 133.19 LINE",
"254.685 133.19 LINE",
"361.153 737 LINE",
"202.953 737 LINE",
"73 0 LINE"
);
}
);
width = 591;
}
);
leftKerningGroup = B;
note = Ldot;
rightKerningGroup = L;
unicode = 013F;
},
{
glyphname = uni01C8;
lastChange = "2019-09-30 19:56:48 +0000";
layers = (
{
background = {
paths = (
{
closed = 1;
nodes = (
"702 -187 LINE",
"823 -89 LINE",
"930 522 LINE",
"776 522 LINE",
"677 -43 LINE",
"636 -78 LINE",
"561 -78 LINE",
"542 -187 LINE"
);
},
{
closed = 1;
nodes = (
"941 580 LINE",
"964 712 LINE",
"808 712 LINE",
"785 580 LINE"
);
}
);
};
hints = (
{
horizontal = 1;
place = "{-187, 109.5}";
type = Stem;
},
{
horizontal = 1;
place = "{0, 133.19}";
type = Stem;
},
{
horizontal = 1;
place = "{579.87, 132.69}";
type = Stem;
},
{
place = "{75, 156.2}";
type = Stem;
},
{
place = "{684, 153.75}";
type = Stem;
},
{
horizontal = 1;
place = "{-187, 109.5}";
type = Stem;
},
{
horizontal = 1;
place = "{579.87, 132.69}";
type = Stem;
},
{
place = "{683.25, 153.75}";
type = Stem;
},
{
horizontal = 1;
place = "{-187, 109.5}";
type = Stem;
},
{
place = "{683.25, 153.75}";
type = Stem;
},
{
horizontal = 1;
place = "{579.62, 132.69}";
type = Stem;
},
{
place = "{569.5, 154}";
type = Stem;
},
{
horizontal = 1;
place = "{0, 133.19}";
type = Stem;
},
{
place = "{75, 156.2}";
type = Stem;
},
{
horizontal = 1;
place = "{-187, 109.5}";
type = Stem;
},
{
horizontal = 1;
place = "{579.87, 132.69}";
type = Stem;
},
{
place = "{683.25, 153.75}";
type = Stem;
},
{
horizontal = 1;
place = "{-187, 109.5}";
type = Stem;
},
{
place = "{683.25, 153.75}";
type = Stem;
},
{
horizontal = 1;
place = "{579.62, 132.69}";
type = Stem;
},
{
place = "{856, 154}";
type = Stem;
}
);
layerId = "37B3F0A2-20CC-4AE3-B6A0-1D169A898E63";
paths = (
{
closed = 1;
nodes = (
"580.47 0 LINE",
"603.955 133.19 LINE",
"254.685 133.19 LINE",
"361.153 737 LINE",
"202.953 737 LINE",
"73 0 LINE"
);
},
{
closed = 1;
nodes = (
"703 -187 LINE",
"824 -89 LINE",
"931 522 LINE",
"775 522 LINE",
"676 -43 LINE",
"635 -78 LINE",
"560 -78 LINE",
"541 -187 LINE"
);
},
{
closed = 1;
nodes = (
"941 580 LINE",
"964.397 712.69 LINE",
"808.397 712.69 LINE",
"785 580 LINE"
);
}
);
width = 897;
}
);
leftKerningGroup = B;
note = uni01C8;
rightKerningGroup = uni01C8;
unicode = 01C8;
},
{
glyphname = Lslash;
lastChange = "2019-09-30 19:56:48 +0000";
layers = (
{
hints = (
{
horizontal = 1;
place = "{0, 133.19}";
type = Stem;
},
{
place = "{88.81, 156.2}";
type = Stem;
},
{
horizontal = 1;
place = "{0, 133.19}";
type = Stem;
},
{
place = "{89, 156.2}";
type = Stem;
}
);
layerId = "37B3F0A2-20CC-4AE3-B6A0-1D169A898E63";
paths = (
{
closed = 1;
nodes = (
"594.47 0 LINE",
"617.955 133.19 LINE",
"268.685 133.19 LINE",
"375.153 737 LINE",
"216.953 737 LINE",
"87 0 LINE"
);
},
{
closed = 1;
nodes = (
"466.196 402.529 LINE",
"489.425 537.294 LINE",
"82.425 371.294 LINE",
"59.196 236.529 LINE"
);
}
);
width = 591;
}
);
leftKerningGroup = B;
note = Lslash;
rightKerningGroup = L;
unicode = 0141;
},
{
glyphname = M;
lastChange = "2019-09-30 19:56:48 +0000";
layers = (
{
hints = (
{
horizontal = 1;
place = "{0, 737}";
type = Stem;
},
{
place = "{74.48, 150.73}";
type = Stem;
},
{
place = "{666.92, 150.73}";
type = Stem;
}
);
layerId = "37B3F0A2-20CC-4AE3-B6A0-1D169A898E63";
paths = (
{
closed = 1;
nodes = (
"225.21 0 LINE",
"306 459 LINE",
"409 16 LINE",
"489 16 LINE",
"748 458 LINE",
"666.92 0 LINE",
"817.65 0 LINE",
"948 737 LINE",
"767.794 737 LINE",
"481.864 248.982 LINE",
"368.732 737 LINE",
"204 737 LINE",
"74.48 0 LINE"
);
}
);
width = 892;
}
);
leftKerningGroup = B;
note = M;
rightKerningGroup = H;
unicode = 004D;
},
{
glyphname = N;
lastChange = "2019-09-30 19:56:48 +0000";
layers = (
{
hints = (
{
horizontal = 1;
place = "{0, 737}";
type = Stem;
},
{
place = "{74.48, 150.73}";
type = Stem;
},
{
place = "{527.04, 150.74}";
type = Stem;
},
{
horizontal = 1;
place = "{473.37, 263.63}";
type = Stem;
}
);
layerId = "37B3F0A2-20CC-4AE3-B6A0-1D169A898E63";
paths = (
{
closed = 1;
nodes = (
"225.21 0 LINE",
"309 473 LINE",
"343 473 LINE",
"527.469 0 LINE",
"679.78 0 LINE",
"810 737 LINE",
"657 737 LINE",
"571.392 250.869 LINE",
"381.508 737 LINE",
"202 737 LINE",
"72.48 0 LINE"
);
}
);
width = 752;
}
);
leftKerningGroup = B;
note = N;
rightKerningGroup = H;
unicode = 004E;
},
{
glyphname = uni01CA;
lastChange = "2019-09-30 19:56:48 +0000";
layers = (
{
background = {
paths = (
{
closed = 1;
nodes = (
"225.21 0 LINE",
"309 473 LINE",
"338 473 LINE",
"521.82 0 LINE",
"677.78 0 LINE",
"808 737 LINE",
"657 737 LINE",
"573 260 LINE",
"387 737 LINE",
"204 737 LINE",
"74.48 0 LINE"
);
},
{
closed = 1;
nodes = (
"1220.56 0 LINE",
"1351 111 LINE",
"1462 737 LINE",
"1305 737 LINE",
"1205 166 LINE",
"1158 126 LINE",
"1025 126 LINE",
"992 166 LINE",
"1016 298 LINE",
"859 298 LINE",
"826 111 LINE",
"917.81 0 LINE"
);
}
);
};
hints = (
{
horizontal = 1;
place = "{0, 125.97}";
type = Stem;
},
{
horizontal = 1;
place = "{473.37, 263.63}";
type = Stem;
},
{
place = "{74.48, 150.73}";
type = Stem;
},
{
place = "{527.04, 150.74}";
type = Stem;
},
{
place = "{806.81, 156.25}";
type = Stem;
},
{
place = "{1175.43, 156.13}";
type = Stem;
},
{
horizontal = 1;
place = "{0, 737}";
type = Stem;
},
{
place = "{74.48, 150.73}";
type = Stem;
},
{
place = "{527.04, 150.74}";
type = Stem;
},
{
horizontal = 1;
place = "{473.37, 263.63}";
type = Stem;
},
{
horizontal = 1;
place = "{0, 125.97}";
type = Stem;
},
{
place = "{807, 156.25}";
type = Stem;
},
{
place = "{1175.62, 156.13}";
type = Stem;
}
);
layerId = "37B3F0A2-20CC-4AE3-B6A0-1D169A898E63";
paths = (
{
closed = 1;
nodes = (
"225.21 0 LINE",
"309 473 LINE",
"343 473 LINE",
"527.469 0 LINE",
"679.78 0 LINE",
"810 737 LINE",
"657 737 LINE",
"571.392 250.869 LINE",
"381.508 737 LINE",
"202 737 LINE",
"72.48 0 LINE"
);
},
{
closed = 1;
nodes = (
"916 0 LINE",
"1222.75 0 LINE",
"1353 111 LINE",
"1464 737 LINE",
"1306 737 LINE",
"1205 166 LINE",
"1158 126 LINE",
"1025 126 LINE",
"992 166 LINE",
"1016 298 LINE",
"858 298 LINE",
"825 111 LINE"
);
}
);
width = 1387;
}
);
leftKerningGroup = B;
note = uni01CA;
unicode = 01CA;
},
{
glyphname = Nacute;
lastChange = "2019-09-30 19:56:48 +0000";
layers = (
{
hints = (
{
horizontal = 1;
place = "{473.37, 263.63}";
type = Stem;
},
{
horizontal = 1;
place = "{794.62, 155.5}";
type = Stem;
},
{
place = "{74.48, 150.73}";
type = Stem;
},
{
place = "{527.04, 150.74}";
type = Stem;
},
{
horizontal = 1;
place = "{0, 737}";
type = Stem;
},
{
place = "{74.48, 150.73}";
type = Stem;
},
{
place = "{527.04, 150.74}";
type = Stem;
},
{
horizontal = 1;
place = "{473.37, 263.63}";
type = Stem;
},
{
horizontal = 1;
place = "{794.62, 155.5}";
type = Stem;
},
{
place = "{471.753, 263.37}";
type = Stem;
}
);
layerId = "37B3F0A2-20CC-4AE3-B6A0-1D169A898E63";
paths = (
{
closed = 1;
nodes = (
"225.21 0 LINE",
"309 473 LINE",
"343 473 LINE",
"527.469 0 LINE",
"679.78 0 LINE",
"810 737 LINE",
"657 737 LINE",
"571.392 250.869 LINE",
"381.508 737 LINE",
"202 737 LINE",
"72.48 0 LINE"
);
},
{
closed = 1;
nodes = (
"581.203 795 LINE",
"753.203 950 LINE",
"582.753 950 LINE",
"451.753 795 LINE"
);
}
);
width = 752;
}
);
leftKerningGroup = B;
note = Nacute;
rightKerningGroup = H;
unicode = 0143;
},
{
glyphname = Ncaron;
lastChange = "2019-09-30 19:56:48 +0000";
layers = (
{
hints = (
{
horizontal = 1;
place = "{473.37, 263.63}";
type = Stem;
},
{
horizontal = 1;
place = "{794.62, 147.5}";
type = Stem;
},
{
place = "{74.48, 150.73}";
type = Stem;
},
{
place = "{527.04, 150.74}";
type = Stem;
},
{
horizontal = 1;
place = "{0, 737}";
type = Stem;
},
{
place = "{74.48, 150.73}";
type = Stem;
},
{
place = "{527.04, 150.74}";
type = Stem;
},
{
horizontal = 1;
place = "{473.37, 263.63}";
type = Stem;
},
{
horizontal = 1;
place = "{794.62, 147.5}";
type = Stem;
},
{
place = "{381.5, 380.25}";
type = Stem;
}
);
layerId = "37B3F0A2-20CC-4AE3-B6A0-1D169A898E63";
paths = (
{
closed = 1;
nodes = (
"225.21 0 LINE",
"309 473 LINE",
"343 473 LINE",
"527.469 0 LINE",
"679.78 0 LINE",
"810 737 LINE",
"657 737 LINE",
"571.392 250.869 LINE",
"381.508 737 LINE",
"202 737 LINE",
"72.48 0 LINE"
);
},
{
closed = 1;
nodes = (
"424.5 795 LINE",
"587.5 795 LINE",
"721.5 942 LINE",
"596.5 942 LINE",
"515.5 872 LINE",
"458.5 942 LINE",
"341.5 942 LINE"
);
}
);
width = 752;
}
);
leftKerningGroup = B;
note = Ncaron;
rightKerningGroup = H;
unicode = 0147;
},
{
glyphname = uni0145;
lastChange = "2019-09-30 19:56:48 +0000";
layers = (
{
hints = (
{
horizontal = 1;
place = "{-239.88, 182.75}";
type = Stem;
},
{
horizontal = 1;
place = "{473.37, 263.63}";
type = Stem;
},
{
place = "{74.48, 150.73}";
type = Stem;
},
{
place = "{527.04, 150.74}";
type = Stem;
},
{
horizontal = 1;
place = "{0, 737}";
type = Stem;
},
{
place = "{74.48, 150.73}";
type = Stem;
},
{
place = "{527.04, 150.74}";
type = Stem;
},
{
horizontal = 1;
place = "{473.37, 263.63}";
type = Stem;
},
{
horizontal = 1;
place = "{-239.88, 182.75}";
type = Stem;
},
{
place = "{-26.69, 189.19}";
type = Stem;
}
);
layerId = "37B3F0A2-20CC-4AE3-B6A0-1D169A898E63";
paths = (
{
closed = 1;
nodes = (
"225.21 0 LINE",
"309 473 LINE",
"343 473 LINE",
"527.469 0 LINE",
"679.78 0 LINE",
"810 737 LINE",
"657 737 LINE",
"571.392 250.869 LINE",
"381.508 737 LINE",
"202 737 LINE",
"72.48 0 LINE"
);
},
{
closed = 1;
nodes = (
"307.5 -240 LINE",
"442.5 -57 LINE",
"289.5 -57 LINE",
"213.5 -240 LINE"
);
}
);
width = 752;
}
);
leftKerningGroup = B;
note = uni0145;
rightKerningGroup = H;
unicode = 0145;
},
{
glyphname = Eng;
lastChange = "2019-09-30 19:56:48 +0000";
layers = (
{
hints = (
{
horizontal = 1;
place = "{-187, 104}";
type = Stem;
},
{
horizontal = 1;
place = "{473.37, 263.63}";
type = Stem;
},
{
place = "{74.48, 150.73}";
type = Stem;
},
{
place = "{527.04, 150.73}";
type = Stem;
},
{
horizontal = 1;
place = "{0, 737}";
type = Stem;
},
{
place = "{74.48, 150.73}";
type = Stem;
},
{
place = "{527.04, 150.74}";
type = Stem;
},
{
horizontal = 1;
place = "{473.37, 263.63}";
type = Stem;
}
);
layerId = "37B3F0A2-20CC-4AE3-B6A0-1D169A898E63";
paths = (
{
closed = 1;
nodes = (
"225.21 0 LINE",
"309 473 LINE",
"343 473 LINE",
"527.469 0 LINE",
"519.649 -48 LINE",
"479.649 -83 LINE",
"414.649 -83 LINE",
"396.649 -187 LINE",
"541 -187 LINE",
"662 -89 LINE",
"808 737 LINE",
"657 737 LINE",
"571.392 250.869 LINE",
"381.508 737 LINE",
"204 737 LINE",
"74.48 0 LINE"
);
}
);
width = 752;
}
);
leftKerningGroup = B;
note = Eng;
rightKerningGroup = H;
unicode = 014A;
},
{
glyphname = uni01CB;
lastChange = "2019-09-30 19:56:48 +0000";
layers = (
{
background = {
paths = (
{
closed = 1;
nodes = (
"225.21 0 LINE",
"309 473 LINE",
"338 473 LINE",
"521.82 0 LINE",
"677.78 0 LINE",
"808 737 LINE",
"657 737 LINE",
"573 260 LINE",
"387 737 LINE",
"204 737 LINE",
"74.48 0 LINE"
);
},
{
closed = 1;
nodes = (
"867 -187 LINE",
"987 -89 LINE",
"1095 522 LINE",
"941 522 LINE",
"842 -43 LINE",
"801 -78 LINE",
"726 -78 LINE",
"706 -187 LINE"
);
},
{
closed = 1;
nodes = (
"1105 580 LINE",
"1128 713 LINE",
"974 713 LINE",
"951 580 LINE"
);
}
);
};
hints = (
{
horizontal = 1;
place = "{-187, 109.5}";
type = Stem;
},
{
horizontal = 1;
place = "{579.87, 132.69}";
type = Stem;
},
{
place = "{74.48, 150.73}";
type = Stem;
},
{
place = "{527.04, 150.74}";
type = Stem;
},
{
place = "{849.19, 153.75}";
type = Stem;
},
{
horizontal = 1;
place = "{473.37, 263.63}";
type = Stem;
},
{
horizontal = 1;
place = "{0, 737}";
type = Stem;
},
{
place = "{74.48, 150.73}";
type = Stem;
},
{
place = "{527.04, 150.74}";
type = Stem;
},
{
horizontal = 1;
place = "{473.37, 263.63}";
type = Stem;
},
{
horizontal = 1;
place = "{-187, 109.5}";
type = Stem;
},
{
horizontal = 1;
place = "{579.87, 132.69}";
type = Stem;
},
{
place = "{848.25, 153.75}";
type = Stem;
},
{
horizontal = 1;
place = "{-187, 109.5}";
type = Stem;
},
{
place = "{848.25, 153.75}";
type = Stem;
},
{
horizontal = 1;
place = "{579.62, 132.69}";
type = Stem;
},
{
place = "{1021, 154}";
type = Stem;
}
);
layerId = "37B3F0A2-20CC-4AE3-B6A0-1D169A898E63";
paths = (
{
closed = 1;
nodes = (
"225.21 0 LINE",
"309 473 LINE",
"343 473 LINE",
"527.469 0 LINE",
"679.78 0 LINE",
"810 737 LINE",
"657 737 LINE",
"571.392 250.869 LINE",
"381.508 737 LINE",
"202 737 LINE",
"72.48 0 LINE"
);
},
{
closed = 1;
nodes = (
"868 -187 LINE",
"989 -89 LINE",
"1096 522 LINE",
"940 522 LINE",
"841 -43 LINE",
"800 -78 LINE",
"725 -78 LINE",
"706 -187 LINE"
);
},
{
closed = 1;
nodes = (
"1106 580 LINE",
"1129.397 712.69 LINE",
"973.397 712.69 LINE",
"950 580 LINE"
);
}
);
width = 1058;
}
);
leftKerningGroup = B;
note = uni01CB;
rightKerningGroup = uni01C8;
unicode = 01CB;
},
{
glyphname = Ntilde;
lastChange = "2019-09-30 19:56:48 +0000";
layers = (
{
hints = (
{
horizontal = 1;
place = "{859.12, 84.94}";
type = Stem;
},
{
place = "{164.44, 97.44}";
type = Stem;
},
{
place = "{527.04, 150.74}";
type = Stem;
},
{
horizontal = 1;
place = "{794.62, 86.94}";
type = Stem;
},
{
place = "{74.48, 150.73}";
type = Stem;
},
{
place = "{485.51, 97.68}";
type = Stem;
},
{
horizontal = 1;
place = "{473.37, 263.63}";
type = Stem;
},
{
horizontal = 1;
place = "{0, 737}";
type = Stem;
},
{
place = "{74.48, 150.73}";
type = Stem;
},
{
place = "{527.04, 150.74}";
type = Stem;
},
{
horizontal = 1;
place = "{473.37, 263.63}";
type = Stem;
},
{
horizontal = 1;
place = "{859.12, 84.94}";
type = Stem;
},
{
place = "{339.057, 97.44}";
type = Stem;
},
{
place = "{660.117, 97.69}";
type = Stem;
},
{
horizontal = 1;
place = "{794.62, 86.94}";
type = Stem;
}
);
layerId = "37B3F0A2-20CC-4AE3-B6A0-1D169A898E63";
paths = (
{
closed = 1;
nodes = (
"225.21 0 LINE",
"309 473 LINE",
"343 473 LINE",
"527.469 0 LINE",
"679.78 0 LINE",
"810 737 LINE",
"657 737 LINE",
"571.392 250.869 LINE",
"381.508 737 LINE",
"202 737 LINE",
"72.48 0 LINE"
);
},
{
closed = 1;
nodes = (
"405.307 800 LINE",
"410.307 825 LINE",
"440.307 859 LINE",
"466.307 859 LINE",
"512.307 795 LINE",
"660.307 795 LINE",
"739.307 864 LINE",
"754.307 939 LINE",
"653.307 939 LINE",
"649.307 913 LINE",
"619.307 882 LINE",
"593.307 882 LINE",
"546.307 944 LINE",
"398.307 944 LINE",
"320.307 876 LINE",
"305.307 800 LINE"
);
}
);
width = 752;
}
);
leftKerningGroup = B;
note = Ntilde;
rightKerningGroup = H;
unicode = 00D1;
},
{
glyphname = O;
lastChange = "2019-09-30 19:56:48 +0000";
layers = (
{
hints = (
{
horizontal = 1;
place = "{0, 126.03}";
type = Stem;
},
{
horizontal = 1;
place = "{610.97, 126.03}";
type = Stem;
},
{
place = "{55, 156.18}";
type = Stem;
},
{
place = "{517.78, 155.72}";
type = Stem;
}
);
layerId = "37B3F0A2-20CC-4AE3-B6A0-1D169A898E63";
paths = (
{
closed = 1;
nodes = (
"564 0 LINE",
"695 111 LINE",
"786 626 LINE",
"694 737 LINE",
"294 737 LINE",
"163 626 LINE",
"73 111 LINE",
"164 0 LINE"
);
},
{
closed = 1;
nodes = (
"312 572 LINE",
"359 611 LINE",
"585 611 LINE",
"618 572 LINE",
"547 166 LINE",
"501 126 LINE",
"273 126 LINE",
"240 166 LINE"
);
}
);
width = 729;
}
);
leftKerningGroup = C;
note = O;
rightKerningGroup = O;
unicode = 004F;
},
{
glyphname = Oacute;
lastChange = "2019-09-30 19:56:48 +0000";
layers = (
{
hints = (
{
horizontal = 1;
place = "{0, 126.03}";
type = Stem;
},
{
horizontal = 1;
place = "{610.97, 126.03}";
type = Stem;
},
{
horizontal = 1;
place = "{794.62, 155.5}";
type = Stem;
},
{
place = "{55, 156.18}";
type = Stem;
},
{
place = "{517.78, 155.72}";
type = Stem;
},
{
horizontal = 1;
place = "{0, 126.03}";
type = Stem;
},
{
horizontal = 1;
place = "{610.97, 126.03}";
type = Stem;
},
{
place = "{55, 156.18}";
type = Stem;
},
{
place = "{517.78, 155.72}";
type = Stem;
},
{
horizontal = 1;
place = "{794.62, 155.5}";
type = Stem;
},
{
place = "{459.753, 263.37}";
type = Stem;
}
);
layerId = "37B3F0A2-20CC-4AE3-B6A0-1D169A898E63";
paths = (
{
closed = 1;
nodes = (
"564 0 LINE",
"695 111 LINE",
"786 626 LINE",
"694 737 LINE",
"294 737 LINE",
"163 626 LINE",
"73 111 LINE",
"164 0 LINE"
);
},
{
closed = 1;
nodes = (
"240 166 LINE",
"312 572 LINE",
"359 611 LINE",
"585 611 LINE",
"618 572 LINE",
"547 166 LINE",
"501 126 LINE",
"273 126 LINE"
);
},
{
closed = 1;
nodes = (
"569.203 795 LINE",
"741.203 950 LINE",
"570.753 950 LINE",
"439.753 795 LINE"
);
}
);
width = 729;
}
);
leftKerningGroup = C;
note = Oacute;
rightKerningGroup = O;
unicode = 00D3;
},
{
glyphname = Obreve;
lastChange = "2019-09-30 19:56:48 +0000";
layers = (
{
hints = (
{
horizontal = 1;
place = "{0, 126.03}";
type = Stem;
},
{
horizontal = 1;
place = "{610.97, 126.03}";
type = Stem;
},
{
horizontal = 1;
place = "{794.62, 86}";
type = Stem;
},
{
place = "{55, 156.18}";
type = Stem;
},
{
place = "{517.78, 155.72}";
type = Stem;
},
{
place = "{430.19, 106.18}";
type = Stem;
},
{
horizontal = 1;
place = "{868.25, 73.87}";
type = Stem;
},
{
place = "{192.12, 106.19}";
type = Stem;
},
{
horizontal = 1;
place = "{0, 126.03}";
type = Stem;
},
{
horizontal = 1;
place = "{610.97, 126.03}";
type = Stem;
},
{
place = "{55, 156.18}";
type = Stem;
},
{
place = "{517.78, 155.72}";
type = Stem;
},
{
horizontal = 1;
place = "{794.62, 86}";
type = Stem;
},
{
place = "{362, 106.19}";
type = Stem;
},
{
place = "{600.06, 106.19}";
type = Stem;
},
{
horizontal = 1;
place = "{868.25, 73.87}";
type = Stem;
}
);
layerId = "37B3F0A2-20CC-4AE3-B6A0-1D169A898E63";
paths = (
{
closed = 1;
nodes = (
"564 0 LINE",
"695 111 LINE",
"786 626 LINE",
"694 737 LINE",
"294 737 LINE",
"163 626 LINE",
"73 111 LINE",
"164 0 LINE"
);
},
{
closed = 1;
nodes = (
"240 166 LINE",
"312 572 LINE",
"359 611 LINE",
"585 611 LINE",
"618 572 LINE",
"547 166 LINE",
"501 126 LINE",
"273 126 LINE"
);
},
{
closed = 1;
nodes = (
"397.5 795 LINE",
"590.5 795 LINE",
"681.5 868 LINE",
"694.5 942 LINE",
"586.5 942 LINE",
"578.5 898 LINE",
"557.5 881 LINE",
"460.5 881 LINE",
"446.5 898 LINE",
"454.5 942 LINE",
"346.5 942 LINE",
"333.5 868 LINE"
);
}
);
width = 729;
}
);
leftKerningGroup = C;
note = Obreve;
rightKerningGroup = O;
unicode = 014E;
},
{
glyphname = Ocircumflex;
lastChange = "2019-09-30 19:56:48 +0000";
layers = (
{
hints = (
{
horizontal = 1;
place = "{0, 126.03}";
type = Stem;
},
{
horizontal = 1;
place = "{610.97, 126.03}";
type = Stem;
},
{
horizontal = 1;
place = "{794.62, 147.5}";
type = Stem;
},
{
place = "{55, 156.18}";
type = Stem;
},
{
place = "{517.78, 155.72}";
type = Stem;
},
{
horizontal = 1;
place = "{0, 126.03}";
type = Stem;
},
{
horizontal = 1;
place = "{610.97, 126.03}";
type = Stem;
},
{
place = "{55, 156.18}";
type = Stem;
},
{
place = "{517.78, 155.72}";
type = Stem;
},
{
horizontal = 1;
place = "{794.62, 147.5}";
type = Stem;
},
{
place = "{329.5, 380.25}";
type = Stem;
}
);
layerId = "37B3F0A2-20CC-4AE3-B6A0-1D169A898E63";
paths = (
{
closed = 1;
nodes = (
"564 0 LINE",
"695 111 LINE",
"786 626 LINE",
"694 737 LINE",
"294 737 LINE",
"163 626 LINE",
"73 111 LINE",
"164 0 LINE"
);
},
{
closed = 1;
nodes = (
"240 166 LINE",
"312 572 LINE",
"359 611 LINE",
"585 611 LINE",
"618 572 LINE",
"547 166 LINE",
"501 126 LINE",
"273 126 LINE"
);
},
{
closed = 1;
nodes = (
"426 795 LINE",
"507 865 LINE",
"563 795 LINE",
"683 795 LINE",
"600 942 LINE",
"437 942 LINE",
"303 795 LINE"
);
}
);
width = 729;
}
);
leftKerningGroup = C;
note = Ocircumflex;
rightKerningGroup = O;
unicode = 00D4;
},
{
glyphname = uni1ED0;
lastChange = "2019-09-30 19:56:48 +0000";
layers = (
{
hints = (
{
horizontal = 1;
place = "{0, 126.03}";
type = Stem;
},
{
horizontal = 1;
place = "{610.97, 126.03}";
type = Stem;
},
{
horizontal = 1;
place = "{876.74, 155.5}";
type = Stem;
},
{
place = "{55, 156.18}";
type = Stem;
},
{
place = "{517.78, 155.72}";
type = Stem;
},
{
horizontal = 1;
place = "{794.62, 147.5}";
type = Stem;
},
{
horizontal = 1;
place = "{0, 126.03}";
type = Stem;
},
{
horizontal = 1;
place = "{610.97, 126.03}";
type = Stem;
},
{
place = "{55, 156.18}";
type = Stem;
},
{
place = "{517.78, 155.72}";
type = Stem;
},
{
horizontal = 1;
place = "{876.74, 155.5}";
type = Stem;
},
{
place = "{-377.44, 627.94}";
type = Stem;
},
{
horizontal = 1;
place = "{794.62, 147.5}";
type = Stem;
},
{
horizontal = 1;
place = "{794.62, 147.5}";
type = Stem;
},
{
place = "{329.5, 380.25}";
type = Stem;
},
{
horizontal = 1;
place = "{876.62, 155.5}";
type = Stem;
},
{
place = "{702, 263.37}";
type = Stem;
}
);
layerId = "37B3F0A2-20CC-4AE3-B6A0-1D169A898E63";
paths = (
{
closed = 1;
nodes = (
"564 0 LINE",
"695 111 LINE",
"786 626 LINE",
"694 737 LINE",
"294 737 LINE",
"163 626 LINE",
"73 111 LINE",
"164 0 LINE"
);
},
{
closed = 1;
nodes = (
"240 166 LINE",
"312 572 LINE",
"359 611 LINE",
"585 611 LINE",
"618 572 LINE",
"547 166 LINE",
"501 126 LINE",
"273 126 LINE"
);
},
{
closed = 1;
nodes = (
"426 795 LINE",
"507 865 LINE",
"563 795 LINE",
"683 795 LINE",
"600 942 LINE",
"437 942 LINE",
"303 795 LINE"
);
},
{
closed = 1;
nodes = (
"811.45 877 LINE",
"983.45 1032 LINE",
"813 1032 LINE",
"682 877 LINE"
);
}
);
width = 729;
}
);
leftKerningGroup = C;
note = uni1ED0;
rightKerningGroup = O;
unicode = 1ED0;
},
{
glyphname = uni1ED8;
lastChange = "2019-09-30 19:56:48 +0000";
layers = (
{
hints = (
{
horizontal = 1;
place = "{-189.81, 132.68}";
type = Stem;
},
{
horizontal = 1;
place = "{0, 126.03}";
type = Stem;
},
{
horizontal = 1;
place = "{610.97, 126.03}";
type = Stem;
},
{
horizontal = 1;
place = "{794.62, 147.5}";
type = Stem;
},
{
place = "{55, 156.18}";
type = Stem;
},
{
place = "{287.25, 154}";
type = Stem;
},
{
place = "{517.78, 155.72}";
type = Stem;
},
{
horizontal = 1;
place = "{0, 126.03}";
type = Stem;
},
{
horizontal = 1;
place = "{610.97, 126.03}";
type = Stem;
},
{
place = "{55, 156.18}";
type = Stem;
},
{
place = "{517.78, 155.72}";
type = Stem;
},
{
horizontal = 1;
place = "{794.62, 147.5}";
type = Stem;
},
{
place = "{329.5, 380.25}";
type = Stem;
},
{
horizontal = 1;
place = "{-189.81, 132.68}";
type = Stem;
},
{
place = "{25, 154}";
type = Stem;
},
{
horizontal = 1;
place = "{-190.38, 132.69}";
type = Stem;
},
{
place = "{324, 154}";
type = Stem;
},
{
horizontal = 1;
place = "{-190.38, 132.69}";
type = Stem;
},
{
place = "{324, 154}";
type = Stem;
},
{
horizontal = 1;
place = "{-190.38, 132.69}";
type = Stem;
},
{
place = "{324, 154}";
type = Stem;
}
);
layerId = "37B3F0A2-20CC-4AE3-B6A0-1D169A898E63";
paths = (
{
closed = 1;
nodes = (
"564 0 LINE",
"695 111 LINE",
"786 626 LINE",
"694 737 LINE",
"294 737 LINE",
"163 626 LINE",
"73 111 LINE",
"164 0 LINE"
);
},
{
closed = 1;
nodes = (
"240 166 LINE",
"312 572 LINE",
"359 611 LINE",
"585 611 LINE",
"618 572 LINE",
"547 166 LINE",
"501 126 LINE",
"273 126 LINE"
);
},
{
closed = 1;
nodes = (
"426 795 LINE",
"507 865 LINE",
"563 795 LINE",
"683 795 LINE",
"600 942 LINE",
"437 942 LINE",
"303 795 LINE"
);
},
{
closed = 1;
nodes = (
"409 -190 LINE",
"432.397 -57.31 LINE",
"276.397 -57.31 LINE",
"253 -190 LINE"
);
}
);
width = 729;
}
);
leftKerningGroup = C;
note = uni1ED8;
rightKerningGroup = O;
unicode = 1ED8;
},
{
glyphname = uni1ED2;
lastChange = "2019-09-30 19:56:48 +0000";
layers = (
{
hints = (
{
horizontal = 1;
place = "{0, 126.03}";
type = Stem;
},
{
horizontal = 1;
place = "{610.97, 126.03}";
type = Stem;
},
{
horizontal = 1;
place = "{876.76, 155.5}";
type = Stem;
},
{
place = "{55, 156.18}";
type = Stem;
},
{
place = "{517.78, 155.72}";
type = Stem;
},
{
horizontal = 1;
place = "{794.62, 147.5}";
type = Stem;
},
{
horizontal = 1;
place = "{0, 126.03}";
type = Stem;
},
{
horizontal = 1;
place = "{610.97, 126.03}";
type = Stem;
},
{
place = "{55, 156.18}";
type = Stem;
},
{
place = "{517.78, 155.72}";
type = Stem;
},
{
horizontal = 1;
place = "{876.76, 155.5}";
type = Stem;
},
{
place = "{-586.073, 627.94}";
type = Stem;
},
{
horizontal = 1;
place = "{794.62, 147.5}";
type = Stem;
},
{
horizontal = 1;
place = "{794.62, 147.5}";
type = Stem;
},
{
place = "{329.5, 380.25}";
type = Stem;
},
{
horizontal = 1;
place = "{868.12, 155.5}";
type = Stem;
},
{
place = "{119.757, 263.37}";
type = Stem;
}
);
layerId = "37B3F0A2-20CC-4AE3-B6A0-1D169A898E63";
paths = (
{
closed = 1;
nodes = (
"564 0 LINE",
"695 111 LINE",
"786 626 LINE",
"694 737 LINE",
"294 737 LINE",
"163 626 LINE",
"73 111 LINE",
"164 0 LINE"
);
},
{
closed = 1;
nodes = (
"240 166 LINE",
"312 572 LINE",
"359 611 LINE",
"585 611 LINE",
"618 572 LINE",
"547 166 LINE",
"501 126 LINE",
"273 126 LINE"
);
},
{
closed = 1;
nodes = (
"426 795 LINE",
"507 865 LINE",
"563 795 LINE",
"683 795 LINE",
"600 942 LINE",
"437 942 LINE",
"303 795 LINE"
);
},
{
closed = 1;
nodes = (
"225.253 877 LINE",
"334.367 877 LINE",
"258.367 1032 LINE",
"108.253 1032 LINE"
);
}
);
width = 729;
}
);
leftKerningGroup = C;
note = uni1ED2;
rightKerningGroup = O;
unicode = 1ED2;
},
{
glyphname = uni1ED4;
lastChange = "2019-09-30 19:56:48 +0000";
layers = (
{
hints = (
{
horizontal = 1;
place = "{0, 126.03}";
type = Stem;
},
{
horizontal = 1;
place = "{610.97, 126.03}";
type = Stem;
},
{
horizontal = 1;
place = "{794.62, 147.5}";
type = Stem;
},
{
horizontal = 1;
place = "{1003.89, 95.65}";
type = Stem;
},
{
place = "{55, 156.18}";
type = Stem;
},
{
place = "{522.33, 103.65}";
type = Stem;
},
{
place = "{454.88, 102.15}";
type = Stem;
},
{
place = "{592.28, 106.5}";
type = Stem;
},
{
place = "{517.78, 155.72}";
type = Stem;
},
{
horizontal = 1;
place = "{0, 126.03}";
type = Stem;
},
{
horizontal = 1;
place = "{610.97, 126.03}";
type = Stem;
},
{
place = "{55, 156.18}";
type = Stem;
},
{
place = "{517.78, 155.72}";
type = Stem;
},
{
horizontal = 1;
place = "{794.62, 147.5}";
type = Stem;
},
{
horizontal = 1;
place = "{1003.89, 95.65}";
type = Stem;
},
{
place = "{63.89, 103.65}";
type = Stem;
},
{
place = "{-3.56, 102.15}";
type = Stem;
},
{
place = "{133.84, 106.5}";
type = Stem;
},
{
horizontal = 1;
place = "{794.62, 147.5}";
type = Stem;
},
{
place = "{329.5, 380.25}";
type = Stem;
},
{
horizontal = 1;
place = "{877, 76.3}";
type = Stem;
},
{
horizontal = 1;
place = "{1003.8, 95.65}";
type = Stem;
},
{
place = "{383.89, 103.65}";
type = Stem;
},
{
place = "{316.44, 102.15}";
type = Stem;
},
{
place = "{453.84, 106.5}";
type = Stem;
}
);
layerId = "37B3F0A2-20CC-4AE3-B6A0-1D169A898E63";
paths = (
{
closed = 1;
nodes = (
"564 0 LINE",
"695 111 LINE",
"786 626 LINE",
"694 737 LINE",
"294 737 LINE",
"163 626 LINE",
"73 111 LINE",
"164 0 LINE"
);
},
{
closed = 1;
nodes = (
"240 166 LINE",
"312 572 LINE",
"359 611 LINE",
"585 611 LINE",
"618 572 LINE",
"547 166 LINE",
"501 126 LINE",
"273 126 LINE"
);
},
{
closed = 1;
nodes = (
"426 795 LINE",
"507 865 LINE",
"563 795 LINE",
"683 795 LINE",
"600 942 LINE",
"437 942 LINE",
"303 795 LINE"
);
},
{
closed = 1;
nodes = (
"724 1004 LINE",
"729 1029 LINE",
"764 1029 LINE",
"759 1002 LINE",
"680 953 LINE",
"666 877 LINE",
"772 877 LINE",
"779 917 LINE",
"861 965 LINE",
"877 1055 LINE",
"838 1099 LINE",
"684 1099 LINE",
"629 1054 LINE",
"620 1004 LINE"
);
}
);
width = 729;
}
);
leftKerningGroup = C;
note = uni1ED4;
rightKerningGroup = O;
unicode = 1ED4;
},
{
glyphname = uni1ED6;
lastChange = "2019-09-30 19:56:48 +0000";
layers = (
{
hints = (
{
horizontal = 1;
place = "{0, 126.03}";
type = Stem;
},
{
horizontal = 1;
place = "{610.97, 126.03}";
type = Stem;
},
{
horizontal = 1;
place = "{794.62, 147.5}";
type = Stem;
},
{
horizontal = 1;
place = "{1037.44, 84.93}";
type = Stem;
},
{
place = "{159.5, 97.44}";
type = Stem;
},
{
place = "{517.78, 155.72}";
type = Stem;
},
{
horizontal = 1;
place = "{972.94, 86.93}";
type = Stem;
},
{
place = "{55, 156.18}";
type = Stem;
},
{
place = "{480.56, 97.69}";
type = Stem;
},
{
horizontal = 1;
place = "{0, 126.03}";
type = Stem;
},
{
horizontal = 1;
place = "{610.97, 126.03}";
type = Stem;
},
{
place = "{55, 156.18}";
type = Stem;
},
{
place = "{517.78, 155.72}";
type = Stem;
},
{
horizontal = 1;
place = "{794.62, 147.5}";
type = Stem;
},
{
horizontal = 1;
place = "{1037.44, 84.93}";
type = Stem;
},
{
place = "{-172.75, 97.44}";
type = Stem;
},
{
place = "{148.31, 97.69}";
type = Stem;
},
{
horizontal = 1;
place = "{972.94, 86.93}";
type = Stem;
},
{
horizontal = 1;
place = "{794.62, 147.5}";
type = Stem;
},
{
place = "{329.5, 380.25}";
type = Stem;
},
{
horizontal = 1;
place = "{1037.12, 84.94}";
type = Stem;
},
{
place = "{349.75, 97.44}";
type = Stem;
},
{
place = "{670.81, 97.69}";
type = Stem;
},
{
horizontal = 1;
place = "{972.62, 86.94}";
type = Stem;
}
);
layerId = "37B3F0A2-20CC-4AE3-B6A0-1D169A898E63";
paths = (
{
closed = 1;
nodes = (
"564 0 LINE",
"695 111 LINE",
"786 626 LINE",
"694 737 LINE",
"294 737 LINE",
"163 626 LINE",
"73 111 LINE",
"164 0 LINE"
);
},
{
closed = 1;
nodes = (
"240 166 LINE",
"312 572 LINE",
"359 611 LINE",
"585 611 LINE",
"618 572 LINE",
"547 166 LINE",
"501 126 LINE",
"273 126 LINE"
);
},
{
closed = 1;
nodes = (
"426 795 LINE",
"507 865 LINE",
"563 795 LINE",
"683 795 LINE",
"600 942 LINE",
"437 942 LINE",
"303 795 LINE"
);
},
{
closed = 1;
nodes = (
"416 978 LINE",
"421 1003 LINE",
"451 1037 LINE",
"477 1037 LINE",
"523 973 LINE",
"671 973 LINE",
"750 1042 LINE",
"765 1117 LINE",
"664 1117 LINE",
"660 1091 LINE",
"630 1060 LINE",
"604 1060 LINE",
"557 1122 LINE",
"409 1122 LINE",
"331 1054 LINE",
"316 978 LINE"
);
}
);
width = 729;
}
);
leftKerningGroup = C;
note = uni1ED6;
rightKerningGroup = O;
unicode = 1ED6;
},
{
glyphname = uni020C;
lastChange = "2019-09-30 19:56:48 +0000";
layers = (
{
hints = (
{
horizontal = 1;
place = "{0, 126.03}";
type = Stem;
},
{
horizontal = 1;
place = "{610.97, 126.03}";
type = Stem;
},
{
horizontal = 1;
place = "{794.62, 155.5}";
type = Stem;
},
{
place = "{55, 156.18}";
type = Stem;
},
{
place = "{517.78, 155.72}";
type = Stem;
},
{
horizontal = 1;
place = "{0, 126.03}";
type = Stem;
},
{
horizontal = 1;
place = "{610.97, 126.03}";
type = Stem;
},
{
place = "{55, 156.18}";
type = Stem;
},
{
place = "{517.78, 155.72}";
type = Stem;
},
{
horizontal = 1;
place = "{794.62, 155.5}";
type = Stem;
},
{
place = "{-295.978, 459.75}";
type = Stem;
},
{
horizontal = 1;
place = "{786.12, 155.5}";
type = Stem;
},
{
place = "{428.886, 263.37}";
type = Stem;
},
{
horizontal = 1;
place = "{786.12, 155.5}";
type = Stem;
},
{
place = "{231.772, 263.37}";
type = Stem;
}
);
layerId = "37B3F0A2-20CC-4AE3-B6A0-1D169A898E63";
paths = (
{
closed = 1;
nodes = (
"564 0 LINE",
"695 111 LINE",
"786 626 LINE",
"694 737 LINE",
"294 737 LINE",
"163 626 LINE",
"73 111 LINE",
"164 0 LINE"
);
},
{
closed = 1;
nodes = (
"240 166 LINE",
"312 572 LINE",
"359 611 LINE",
"585 611 LINE",
"618 572 LINE",
"547 166 LINE",
"501 126 LINE",
"273 126 LINE"
);
},
{
closed = 1;
nodes = (
"643.496 795 LINE",
"567.496 950 LINE",
"417.382 950 LINE",
"534.382 795 LINE"
);
},
{
closed = 1;
nodes = (
"337.268 795 LINE",
"446.382 795 LINE",
"370.382 950 LINE",
"220.268 950 LINE"
);
}
);
width = 729;
}
);
leftKerningGroup = C;
note = uni020C;
rightKerningGroup = O;
unicode = 020C;
},
{
glyphname = Odieresis;
lastChange = "2019-09-30 19:56:48 +0000";
layers = (
{
hints = (
{
horizontal = 1;
place = "{0, 126.03}";
type = Stem;
},
{
horizontal = 1;
place = "{610.97, 126.03}";
type = Stem;
},
{
horizontal = 1;
place = "{794.62, 132.75}";
type = Stem;
},
{
place = "{152.75, 148}";
type = Stem;
},
{
place = "{427.75, 148}";
type = Stem;
},
{
place = "{55, 156.18}";
type = Stem;
},
{
place = "{517.78, 155.72}";
type = Stem;
},
{
horizontal = 1;
place = "{0, 126.03}";
type = Stem;
},
{
horizontal = 1;
place = "{610.97, 126.03}";
type = Stem;
},
{
place = "{55, 156.18}";
type = Stem;
},
{
place = "{517.78, 155.72}";
type = Stem;
},
{
horizontal = 1;
place = "{794.62, 132.75}";
type = Stem;
},
{
place = "{319.5, 148}";
type = Stem;
},
{
place = "{594.5, 148}";
type = Stem;
}
);
layerId = "37B3F0A2-20CC-4AE3-B6A0-1D169A898E63";
paths = (
{
closed = 1;
nodes = (
"564 0 LINE",
"695 111 LINE",
"786 626 LINE",
"694 737 LINE",
"294 737 LINE",
"163 626 LINE",
"73 111 LINE",
"164 0 LINE"
);
},
{
closed = 1;
nodes = (
"240 166 LINE",
"312 572 LINE",
"359 611 LINE",
"585 611 LINE",
"618 572 LINE",
"547 166 LINE",
"501 126 LINE",
"273 126 LINE"
);
},
{
closed = 1;
nodes = (
"717 795 LINE",
"740 927 LINE",
"590 927 LINE",
"567 795 LINE"
);
},
{
closed = 1;
nodes = (
"442 795 LINE",
"465 927 LINE",
"315 927 LINE",
"292 795 LINE"
);
}
);
width = 729;
}
);
leftKerningGroup = C;
note = Odieresis;
rightKerningGroup = O;
unicode = 00D6;
},
{
glyphname = uni022A;
lastChange = "2019-09-30 19:56:48 +0000";
layers = (
{
hints = (
{
horizontal = 1;
place = "{0, 126.03}";
type = Stem;
},
{
horizontal = 1;
place = "{610.97, 126.03}";
type = Stem;
},
{
horizontal = 1;
place = "{794.62, 132.75}";
type = Stem;
},
{
horizontal = 1;
place = "{967.12, 104.07}";
type = Stem;
},
{
place = "{152.75, 148}";
type = Stem;
},
{
place = "{427.75, 148}";
type = Stem;
},
{
place = "{55, 156.18}";
type = Stem;
},
{
place = "{517.78, 155.72}";
type = Stem;
},
{
horizontal = 1;
place = "{794.62, 104.07}";
type = Stem;
},
{
place = "{304.532, 423}";
type = Stem;
},
{
horizontal = 1;
place = "{0, 126.03}";
type = Stem;
},
{
horizontal = 1;
place = "{610.97, 126.03}";
type = Stem;
},
{
place = "{55, 156.18}";
type = Stem;
},
{
place = "{517.78, 155.72}";
type = Stem;
},
{
horizontal = 1;
place = "{794.62, 132.75}";
type = Stem;
},
{
place = "{309, 148}";
type = Stem;
},
{
place = "{584, 148}";
type = Stem;
}
);
layerId = "37B3F0A2-20CC-4AE3-B6A0-1D169A898E63";
paths = (
{
closed = 1;
nodes = (
"736.582 967 LINE",
"754.582 1071 LINE",
"329.582 1071 LINE",
"311.582 967 LINE"
);
},
{
closed = 1;
nodes = (
"564 0 LINE",
"695 111 LINE",
"786 626 LINE",
"694 737 LINE",
"294 737 LINE",
"163 626 LINE",
"73 111 LINE",
"164 0 LINE"
);
},
{
closed = 1;
nodes = (
"240 166 LINE",
"312 572 LINE",
"359 611 LINE",
"585 611 LINE",
"618 572 LINE",
"547 166 LINE",
"501 126 LINE",
"273 126 LINE"
);
},
{
closed = 1;
nodes = (
"706.5 795 LINE",
"729.5 927 LINE",
"579.5 927 LINE",
"556.5 795 LINE"
);
},
{
closed = 1;
nodes = (
"431.5 795 LINE",
"454.5 927 LINE",
"304.5 927 LINE",
"281.5 795 LINE"
);
}
);
width = 729;
}
);
leftKerningGroup = C;
note = uni022A;
rightKerningGroup = O;
unicode = 022A;
},
{
glyphname = uni0230;
lastChange = "2019-09-30 19:56:48 +0000";
layers = (
{
hints = (
{
horizontal = 1;
place = "{0, 126.03}";
type = Stem;
},
{
horizontal = 1;
place = "{610.97, 126.03}";
type = Stem;
},
{
horizontal = 1;
place = "{794.62, 132.69}";
type = Stem;
},
{
horizontal = 1;
place = "{967.12, 104.07}";
type = Stem;
},
{
place = "{55, 156.18}";
type = Stem;
},
{
place = "{287.25, 154}";
type = Stem;
},
{
place = "{517.78, 155.72}";
type = Stem;
},
{
horizontal = 1;
place = "{794.62, 132.69}";
type = Stem;
},
{
place = "{70, 154}";
type = Stem;
},
{
horizontal = 1;
place = "{0, 126.03}";
type = Stem;
},
{
horizontal = 1;
place = "{610.97, 126.03}";
type = Stem;
},
{
place = "{55, 156.18}";
type = Stem;
},
{
place = "{517.78, 155.72}";
type = Stem;
}
);
layerId = "37B3F0A2-20CC-4AE3-B6A0-1D169A898E63";
paths = (
{
closed = 1;
nodes = (
"736.582 967 LINE",
"754.582 1071 LINE",
"329.582 1071 LINE",
"311.582 967 LINE"
);
},
{
closed = 1;
nodes = (
"575.302 795 LINE",
"598.698 927.69 LINE",
"442.698 927.69 LINE",
"419.302 795 LINE"
);
},
{
closed = 1;
nodes = (
"564 0 LINE",
"695 111 LINE",
"786 626 LINE",
"694 737 LINE",
"294 737 LINE",
"163 626 LINE",
"73 111 LINE",
"164 0 LINE"
);
},
{
closed = 1;
nodes = (
"312 572 LINE",
"359 611 LINE",
"585 611 LINE",
"618 572 LINE",
"547 166 LINE",
"501 126 LINE",
"273 126 LINE",
"240 166 LINE"
);
}
);
width = 729;
}
);
leftKerningGroup = C;
note = uni0230;
rightKerningGroup = O;
unicode = 0230;
},
{
glyphname = uni1ECC;
lastChange = "2019-09-30 19:56:48 +0000";
layers = (
{
hints = (
{
horizontal = 1;
place = "{-189.81, 132.68}";
type = Stem;
},
{
horizontal = 1;
place = "{0, 126.03}";
type = Stem;
},
{
horizontal = 1;
place = "{610.97, 126.03}";
type = Stem;
},
{
place = "{55, 156.18}";
type = Stem;
},
{
place = "{287.25, 154}";
type = Stem;
},
{
place = "{517.78, 155.72}";
type = Stem;
},
{
horizontal = 1;
place = "{0, 126.03}";
type = Stem;
},
{
horizontal = 1;
place = "{610.97, 126.03}";
type = Stem;
},
{
place = "{55, 156.18}";
type = Stem;
},
{
place = "{517.78, 155.72}";
type = Stem;
},
{
horizontal = 1;
place = "{-189.81, 132.68}";
type = Stem;
},
{
place = "{25, 154}";
type = Stem;
},
{
horizontal = 1;
place = "{-190.38, 132.69}";
type = Stem;
},
{
place = "{324, 154}";
type = Stem;
},
{
horizontal = 1;
place = "{-190.38, 132.69}";
type = Stem;
},
{
place = "{324, 154}";
type = Stem;
},
{
horizontal = 1;
place = "{-190.38, 132.69}";
type = Stem;
},
{
place = "{324, 154}";
type = Stem;
}
);
layerId = "37B3F0A2-20CC-4AE3-B6A0-1D169A898E63";
paths = (
{
closed = 1;
nodes = (
"564 0 LINE",
"695 111 LINE",
"786 626 LINE",
"694 737 LINE",
"294 737 LINE",
"163 626 LINE",
"73 111 LINE",
"164 0 LINE"
);
},
{
closed = 1;
nodes = (
"240 166 LINE",
"312 572 LINE",
"359 611 LINE",
"585 611 LINE",
"618 572 LINE",
"547 166 LINE",
"501 126 LINE",
"273 126 LINE"
);
},
{
closed = 1;
nodes = (
"409 -190 LINE",
"432.397 -57.31 LINE",
"276.397 -57.31 LINE",
"253 -190 LINE"
);
}
);
width = 729;
}
);
leftKerningGroup = C;
note = uni1ECC;
rightKerningGroup = O;
unicode = 1ECC;
},
{
glyphname = Ograve;
lastChange = "2019-09-30 19:56:48 +0000";
layers = (
{
hints = (
{
horizontal = 1;
place = "{0, 126.03}";
type = Stem;
},
{
horizontal = 1;
place = "{610.97, 126.03}";
type = Stem;
},
{
horizontal = 1;
place = "{794.62, 155.5}";
type = Stem;
},
{
place = "{55, 156.18}";
type = Stem;
},
{
place = "{517.78, 155.72}";
type = Stem;
},
{
horizontal = 1;
place = "{0, 126.03}";
type = Stem;
},
{
horizontal = 1;
place = "{610.97, 126.03}";
type = Stem;
},
{
place = "{55, 156.18}";
type = Stem;
},
{
place = "{517.78, 155.72}";
type = Stem;
},
{
horizontal = 1;
place = "{786.12, 155.5}";
type = Stem;
},
{
place = "{334.5, 263.37}";
type = Stem;
}
);
layerId = "37B3F0A2-20CC-4AE3-B6A0-1D169A898E63";
paths = (
{
closed = 1;
nodes = (
"564 0 LINE",
"695 111 LINE",
"786 626 LINE",
"694 737 LINE",
"294 737 LINE",
"163 626 LINE",
"73 111 LINE",
"164 0 LINE"
);
},
{
closed = 1;
nodes = (
"240 166 LINE",
"312 572 LINE",
"359 611 LINE",
"585 611 LINE",
"618 572 LINE",
"547 166 LINE",
"501 126 LINE",
"273 126 LINE"
);
},
{
closed = 1;
nodes = (
"439.996 795 LINE",
"549.11 795 LINE",
"473.11 950 LINE",
"322.996 950 LINE"
);
}
);
width = 729;
}
);
leftKerningGroup = C;
note = Ograve;
rightKerningGroup = O;
unicode = 00D2;
},
{
glyphname = uni1ECE;
lastChange = "2019-09-30 19:56:48 +0000";
layers = (
{
hints = (
{
horizontal = 1;
place = "{0, 126.03}";
type = Stem;
},
{
horizontal = 1;
place = "{610.97, 126.03}";
type = Stem;
},
{
horizontal = 1;
place = "{795, 76.3}";
type = Stem;
},
{
horizontal = 1;
place = "{921.8, 95.65}";
type = Stem;
},
{
place = "{55, 156.18}";
type = Stem;
},
{
place = "{310.89, 103.65}";
type = Stem;
},
{
place = "{517.78, 155.72}";
type = Stem;
},
{
place = "{243.44, 102.15}";
type = Stem;
},
{
place = "{380.84, 106.5}";
type = Stem;
},
{
horizontal = 1;
place = "{0, 126.03}";
type = Stem;
},
{
horizontal = 1;
place = "{610.97, 126.03}";
type = Stem;
},
{
place = "{55, 156.18}";
type = Stem;
},
{
place = "{517.78, 155.72}";
type = Stem;
},
{
horizontal = 1;
place = "{795, 76.3}";
type = Stem;
},
{
horizontal = 1;
place = "{921.8, 95.65}";
type = Stem;
},
{
place = "{158.89, 103.65}";
type = Stem;
},
{
place = "{91.44, 102.15}";
type = Stem;
},
{
place = "{228.84, 106.5}";
type = Stem;
}
);
layerId = "37B3F0A2-20CC-4AE3-B6A0-1D169A898E63";
paths = (
{
closed = 1;
nodes = (
"564 0 LINE",
"695 111 LINE",
"786 626 LINE",
"694 737 LINE",
"294 737 LINE",
"163 626 LINE",
"73 111 LINE",
"164 0 LINE"
);
},
{
closed = 1;
nodes = (
"240 166 LINE",
"312 572 LINE",
"359 611 LINE",
"585 611 LINE",
"618 572 LINE",
"547 166 LINE",
"501 126 LINE",
"273 126 LINE"
);
},
{
closed = 1;
nodes = (
"499 922 LINE",
"504 947 LINE",
"539 947 LINE",
"534 920 LINE",
"455 871 LINE",
"441 795 LINE",
"547 795 LINE",
"554 835 LINE",
"636 883 LINE",
"652 973 LINE",
"613 1017 LINE",
"459 1017 LINE",
"404 972 LINE",
"395 922 LINE"
);
}
);
width = 729;
}
);
leftKerningGroup = C;
note = uni1ECE;
rightKerningGroup = O;
unicode = 1ECE;
},
{
glyphname = Ohorn;
lastChange = "2019-09-30 19:56:48 +0000";
layers = (
{
hints = (
{
horizontal = 1;
place = "{0, 126.03}";
type = Stem;
},
{
horizontal = 1;
place = "{601.06, 82.44}";
type = Stem;
},
{
place = "{55, 156.18}";
type = Stem;
},
{
place = "{517.78, 155.72}";
type = Stem;
},
{
horizontal = 1;
place = "{610.97, 126.03}";
type = Stem;
},
{
horizontal = 1;
place = "{0, 126.03}";
type = Stem;
},
{
horizontal = 1;
place = "{610.97, 126.03}";
type = Stem;
},
{
place = "{55, 156.18}";
type = Stem;
},
{
place = "{517.78, 155.72}";
type = Stem;
},
{
horizontal = 1;
place = "{600.654, 82.44}";
type = Stem;
},
{
place = "{413.938, 240.69}";
type = Stem;
}
);
layerId = "37B3F0A2-20CC-4AE3-B6A0-1D169A898E63";
paths = (
{
closed = 1;
nodes = (
"564 0 LINE",
"695 111 LINE",
"786 626 LINE",
"694 737 LINE",
"294 737 LINE",
"163 626 LINE",
"73 111 LINE",
"164 0 LINE"
);
},
{
closed = 1;
nodes = (
"240 166 LINE",
"312 572 LINE",
"359 611 LINE",
"585 611 LINE",
"618 572 LINE",
"547 166 LINE",
"501 126 LINE",
"273 126 LINE"
);
},
{
closed = 1;
nodes = (
"873.628 600.344 LINE",
"996.628 801.344 LINE",
"832.628 801.344 LINE",
"794.628 683.344 LINE",
"724.628 683.344 LINE",
"709.628 600.344 LINE"
);
}
);
width = 729;
}
);
leftKerningGroup = C;
note = Ohorn;
rightKerningGroup = O;
unicode = 01A0;
},
{
glyphname = uni1EDA;
lastChange = "2019-09-30 19:56:48 +0000";
layers = (
{
hints = (
{
horizontal = 1;
place = "{0, 126.03}";
type = Stem;
},
{
horizontal = 1;
place = "{610.97, 126.03}";
type = Stem;
},
{
horizontal = 1;
place = "{794.62, 155.5}";
type = Stem;
},
{
place = "{55, 156.18}";
type = Stem;
},
{
place = "{517.78, 155.72}";
type = Stem;
},
{
horizontal = 1;
place = "{601.06, 82.44}";
type = Stem;
},
{
horizontal = 1;
place = "{0, 126.03}";
type = Stem;
},
{
horizontal = 1;
place = "{601.06, 82.44}";
type = Stem;
},
{
place = "{55, 156.18}";
type = Stem;
},
{
place = "{517.78, 155.72}";
type = Stem;
},
{
horizontal = 1;
place = "{610.97, 126.03}";
type = Stem;
},
{
horizontal = 1;
place = "{0, 126.03}";
type = Stem;
},
{
horizontal = 1;
place = "{610.97, 126.03}";
type = Stem;
},
{
place = "{55, 156.18}";
type = Stem;
},
{
place = "{517.78, 155.72}";
type = Stem;
},
{
horizontal = 1;
place = "{600.654, 82.44}";
type = Stem;
},
{
place = "{413.938, 240.69}";
type = Stem;
},
{
horizontal = 1;
place = "{794.62, 155.5}";
type = Stem;
},
{
place = "{459.753, 263.37}";
type = Stem;
}
);
layerId = "37B3F0A2-20CC-4AE3-B6A0-1D169A898E63";
paths = (
{
closed = 1;
nodes = (
"564 0 LINE",
"695 111 LINE",
"786 626 LINE",
"694 737 LINE",
"294 737 LINE",
"163 626 LINE",
"73 111 LINE",
"164 0 LINE"
);
},
{
closed = 1;
nodes = (
"240 166 LINE",
"312 572 LINE",
"359 611 LINE",
"585 611 LINE",
"618 572 LINE",
"547 166 LINE",
"501 126 LINE",
"273 126 LINE"
);
},
{
closed = 1;
nodes = (
"873.628 600.344 LINE",
"996.628 801.344 LINE",
"832.628 801.344 LINE",
"794.628 683.344 LINE",
"724.628 683.344 LINE",
"709.628 600.344 LINE"
);
},
{
closed = 1;
nodes = (
"569.203 795 LINE",
"741.203 950 LINE",
"570.753 950 LINE",
"439.753 795 LINE"
);
}
);
width = 729;
}
);
leftKerningGroup = C;
note = uni1EDA;
rightKerningGroup = O;
unicode = 1EDA;
},
{
glyphname = uni1EE2;
lastChange = "2019-09-30 19:56:48 +0000";
layers = (
{
hints = (
{
horizontal = 1;
place = "{-189.81, 132.68}";
type = Stem;
},
{
horizontal = 1;
place = "{0, 126.03}";
type = Stem;
},
{
horizontal = 1;
place = "{601.06, 82.44}";
type = Stem;
},
{
place = "{55, 156.18}";
type = Stem;
},
{
place = "{287.25, 154}";
type = Stem;
},
{
place = "{517.78, 155.72}";
type = Stem;
},
{
horizontal = 1;
place = "{610.97, 126.03}";
type = Stem;
},
{
horizontal = 1;
place = "{0, 126.03}";
type = Stem;
},
{
horizontal = 1;
place = "{601.06, 82.44}";
type = Stem;
},
{
place = "{55, 156.18}";
type = Stem;
},
{
place = "{517.78, 155.72}";
type = Stem;
},
{
horizontal = 1;
place = "{610.97, 126.03}";
type = Stem;
},
{
horizontal = 1;
place = "{0, 126.03}";
type = Stem;
},
{
horizontal = 1;
place = "{610.97, 126.03}";
type = Stem;
},
{
place = "{55, 156.18}";
type = Stem;
},
{
place = "{517.78, 155.72}";
type = Stem;
},
{
horizontal = 1;
place = "{600.654, 82.44}";
type = Stem;
},
{
place = "{413.938, 240.69}";
type = Stem;
},
{
horizontal = 1;
place = "{-189.81, 132.68}";
type = Stem;
},
{
place = "{25, 154}";
type = Stem;
},
{
horizontal = 1;
place = "{-190.38, 132.69}";
type = Stem;
},
{
place = "{324, 154}";
type = Stem;
},
{
horizontal = 1;
place = "{-190.38, 132.69}";
type = Stem;
},
{
place = "{324, 154}";
type = Stem;
},
{
horizontal = 1;
place = "{-190.38, 132.69}";
type = Stem;
},
{
place = "{324, 154}";
type = Stem;
}
);
layerId = "37B3F0A2-20CC-4AE3-B6A0-1D169A898E63";
paths = (
{
closed = 1;
nodes = (
"564 0 LINE",
"695 111 LINE",
"786 626 LINE",
"694 737 LINE",
"294 737 LINE",
"163 626 LINE",
"73 111 LINE",
"164 0 LINE"
);
},
{
closed = 1;
nodes = (
"240 166 LINE",
"312 572 LINE",
"359 611 LINE",
"585 611 LINE",
"618 572 LINE",
"547 166 LINE",
"501 126 LINE",
"273 126 LINE"
);
},
{
closed = 1;
nodes = (
"873.628 600.344 LINE",
"996.628 801.344 LINE",
"832.628 801.344 LINE",
"794.628 683.344 LINE",
"724.628 683.344 LINE",
"709.628 600.344 LINE"
);
},
{
closed = 1;
nodes = (
"409 -190 LINE",
"432.397 -57.31 LINE",
"276.397 -57.31 LINE",
"253 -190 LINE"
);
}
);
width = 729;
}
);
leftKerningGroup = C;
note = uni1EE2;
rightKerningGroup = O;
unicode = 1EE2;
},
{
glyphname = uni1EDC;
lastChange = "2019-09-30 19:56:48 +0000";
layers = (
{
hints = (
{
horizontal = 1;
place = "{0, 126.03}";
type = Stem;
},
{
horizontal = 1;
place = "{610.97, 126.03}";
type = Stem;
},
{
horizontal = 1;
place = "{794.62, 155.5}";
type = Stem;
},
{
place = "{55, 156.18}";
type = Stem;
},
{
place = "{517.78, 155.72}";
type = Stem;
},
{
horizontal = 1;
place = "{601.06, 82.44}";
type = Stem;
},
{
horizontal = 1;
place = "{0, 126.03}";
type = Stem;
},
{
horizontal = 1;
place = "{601.06, 82.44}";
type = Stem;
},
{
place = "{55, 156.18}";
type = Stem;
},
{
place = "{517.78, 155.72}";
type = Stem;
},
{
horizontal = 1;
place = "{610.97, 126.03}";
type = Stem;
},
{
horizontal = 1;
place = "{0, 126.03}";
type = Stem;
},
{
horizontal = 1;
place = "{610.97, 126.03}";
type = Stem;
},
{
place = "{55, 156.18}";
type = Stem;
},
{
place = "{517.78, 155.72}";
type = Stem;
},
{
horizontal = 1;
place = "{600.654, 82.44}";
type = Stem;
},
{
place = "{413.938, 240.69}";
type = Stem;
},
{
horizontal = 1;
place = "{786.12, 155.5}";
type = Stem;
},
{
place = "{334.5, 263.37}";
type = Stem;
}
);
layerId = "37B3F0A2-20CC-4AE3-B6A0-1D169A898E63";
paths = (
{
closed = 1;
nodes = (
"564 0 LINE",
"695 111 LINE",
"786 626 LINE",
"694 737 LINE",
"294 737 LINE",
"163 626 LINE",
"73 111 LINE",
"164 0 LINE"
);
},
{
closed = 1;
nodes = (
"240 166 LINE",
"312 572 LINE",
"359 611 LINE",
"585 611 LINE",
"618 572 LINE",
"547 166 LINE",
"501 126 LINE",
"273 126 LINE"
);
},
{
closed = 1;
nodes = (
"873.628 600.344 LINE",
"996.628 801.344 LINE",
"832.628 801.344 LINE",
"794.628 683.344 LINE",
"724.628 683.344 LINE",
"709.628 600.344 LINE"
);
},
{
closed = 1;
nodes = (
"439.996 795 LINE",
"549.11 795 LINE",
"473.11 950 LINE",
"322.996 950 LINE"
);
}
);
width = 729;
}
);
leftKerningGroup = C;
note = uni1EDC;
rightKerningGroup = O;
unicode = 1EDC;
},
{
glyphname = uni1EDE;
lastChange = "2019-09-30 19:56:48 +0000";
layers = (
{
hints = (
{
horizontal = 1;
place = "{0, 126.03}";
type = Stem;
},
{
horizontal = 1;
place = "{610.97, 126.03}";
type = Stem;
},
{
horizontal = 1;
place = "{921.8, 95.65}";
type = Stem;
},
{
place = "{55, 156.18}";
type = Stem;
},
{
place = "{310.89, 103.65}";
type = Stem;
},
{
place = "{517.78, 155.72}";
type = Stem;
},
{
horizontal = 1;
place = "{795, 76.3}";
type = Stem;
},
{
place = "{380.84, 106.5}";
type = Stem;
},
{
place = "{243.44, 102.15}";
type = Stem;
},
{
horizontal = 1;
place = "{601.06, 82.44}";
type = Stem;
},
{
horizontal = 1;
place = "{0, 126.03}";
type = Stem;
},
{
horizontal = 1;
place = "{601.06, 82.44}";
type = Stem;
},
{
place = "{55, 156.18}";
type = Stem;
},
{
place = "{517.78, 155.72}";
type = Stem;
},
{
horizontal = 1;
place = "{610.97, 126.03}";
type = Stem;
},
{
horizontal = 1;
place = "{0, 126.03}";
type = Stem;
},
{
horizontal = 1;
place = "{610.97, 126.03}";
type = Stem;
},
{
place = "{55, 156.18}";
type = Stem;
},
{
place = "{517.78, 155.72}";
type = Stem;
},
{
horizontal = 1;
place = "{600.654, 82.44}";
type = Stem;
},
{
place = "{413.938, 240.69}";
type = Stem;
},
{
horizontal = 1;
place = "{795, 76.3}";
type = Stem;
},
{
horizontal = 1;
place = "{921.8, 95.65}";
type = Stem;
},
{
place = "{158.89, 103.65}";
type = Stem;
},
{
place = "{91.44, 102.15}";
type = Stem;
},
{
place = "{228.84, 106.5}";
type = Stem;
}
);
layerId = "37B3F0A2-20CC-4AE3-B6A0-1D169A898E63";
paths = (
{
closed = 1;
nodes = (
"564 0 LINE",
"695 111 LINE",
"786 626 LINE",
"694 737 LINE",
"294 737 LINE",
"163 626 LINE",
"73 111 LINE",
"164 0 LINE"
);
},
{
closed = 1;
nodes = (
"240 166 LINE",
"312 572 LINE",
"359 611 LINE",
"585 611 LINE",
"618 572 LINE",
"547 166 LINE",
"501 126 LINE",
"273 126 LINE"
);
},
{
closed = 1;
nodes = (
"873.628 600.344 LINE",
"996.628 801.344 LINE",
"832.628 801.344 LINE",
"794.628 683.344 LINE",
"724.628 683.344 LINE",
"709.628 600.344 LINE"
);
},
{
closed = 1;
nodes = (
"499 922 LINE",
"504 947 LINE",
"539 947 LINE",
"534 920 LINE",
"455 871 LINE",
"441 795 LINE",
"547 795 LINE",
"554 835 LINE",
"636 883 LINE",
"652 973 LINE",
"613 1017 LINE",
"459 1017 LINE",
"404 972 LINE",
"395 922 LINE"
);
}
);
width = 729;
}
);
leftKerningGroup = C;
note = uni1EDE;
rightKerningGroup = O;
unicode = 1EDE;
},
{
glyphname = uni1EE0;
lastChange = "2019-09-30 19:56:48 +0000";
layers = (
{
hints = (
{
horizontal = 1;
place = "{0, 126.03}";
type = Stem;
},
{
horizontal = 1;
place = "{610.97, 126.03}";
type = Stem;
},
{
horizontal = 1;
place = "{859.12, 84.94}";
type = Stem;
},
{
place = "{158.37, 97.44}";
type = Stem;
},
{
place = "{517.78, 155.72}";
type = Stem;
},
{
horizontal = 1;
place = "{794.62, 86.94}";
type = Stem;
},
{
place = "{55, 156.18}";
type = Stem;
},
{
place = "{479.44, 97.68}";
type = Stem;
},
{
horizontal = 1;
place = "{601.06, 82.44}";
type = Stem;
},
{
horizontal = 1;
place = "{0, 126.03}";
type = Stem;
},
{
horizontal = 1;
place = "{601.06, 82.44}";
type = Stem;
},
{
place = "{55, 156.18}";
type = Stem;
},
{
place = "{517.78, 155.72}";
type = Stem;
},
{
horizontal = 1;
place = "{610.97, 126.03}";
type = Stem;
},
{
horizontal = 1;
place = "{0, 126.03}";
type = Stem;
},
{
horizontal = 1;
place = "{610.97, 126.03}";
type = Stem;
},
{
place = "{55, 156.18}";
type = Stem;
},
{
place = "{517.78, 155.72}";
type = Stem;
},
{
horizontal = 1;
place = "{600.654, 82.44}";
type = Stem;
},
{
place = "{413.938, 240.69}";
type = Stem;
},
{
horizontal = 1;
place = "{859.12, 84.94}";
type = Stem;
},
{
place = "{327.057, 97.44}";
type = Stem;
},
{
place = "{648.117, 97.69}";
type = Stem;
},
{
horizontal = 1;
place = "{794.62, 86.94}";
type = Stem;
}
);
layerId = "37B3F0A2-20CC-4AE3-B6A0-1D169A898E63";
paths = (
{
closed = 1;
nodes = (
"564 0 LINE",
"695 111 LINE",
"786 626 LINE",
"694 737 LINE",
"294 737 LINE",
"163 626 LINE",
"73 111 LINE",
"164 0 LINE"
);
},
{
closed = 1;
nodes = (
"240 166 LINE",
"312 572 LINE",
"359 611 LINE",
"585 611 LINE",
"618 572 LINE",
"547 166 LINE",
"501 126 LINE",
"273 126 LINE"
);
},
{
closed = 1;
nodes = (
"873.628 600.344 LINE",
"996.628 801.344 LINE",
"832.628 801.344 LINE",
"794.628 683.344 LINE",
"724.628 683.344 LINE",
"709.628 600.344 LINE"
);
},
{
closed = 1;
nodes = (
"393.307 800 LINE",
"398.307 825 LINE",
"428.307 859 LINE",
"454.307 859 LINE",
"500.307 795 LINE",
"648.307 795 LINE",
"727.307 864 LINE",
"742.307 939 LINE",
"641.307 939 LINE",
"637.307 913 LINE",
"607.307 882 LINE",
"581.307 882 LINE",
"534.307 944 LINE",
"386.307 944 LINE",
"308.307 876 LINE",
"293.307 800 LINE"
);
}
);
width = 729;
}
);
leftKerningGroup = C;
note = uni1EE0;
rightKerningGroup = O;
unicode = 1EE0;
},
{
glyphname = Ohungarumlaut;
lastChange = "2019-09-30 19:56:48 +0000";
layers = (
{
hints = (
{
horizontal = 1;
place = "{0, 126.03}";
type = Stem;
},
{
horizontal = 1;
place = "{610.97, 126.03}";
type = Stem;
},
{
horizontal = 1;
place = "{794.62, 155.5}";
type = Stem;
},
{
place = "{55, 156.18}";
type = Stem;
},
{
place = "{517.78, 155.72}";
type = Stem;
},
{
horizontal = 1;
place = "{0, 126.03}";
type = Stem;
},
{
horizontal = 1;
place = "{610.97, 126.03}";
type = Stem;
},
{
place = "{55, 156.18}";
type = Stem;
},
{
place = "{517.78, 155.72}";
type = Stem;
},
{
horizontal = 1;
place = "{794.62, 155.5}";
type = Stem;
},
{
place = "{353.5, 459.75}";
type = Stem;
}
);
layerId = "37B3F0A2-20CC-4AE3-B6A0-1D169A898E63";
paths = (
{
closed = 1;
nodes = (
"564 0 LINE",
"695 111 LINE",
"786 626 LINE",
"694 737 LINE",
"294 737 LINE",
"163 626 LINE",
"73 111 LINE",
"164 0 LINE"
);
},
{
closed = 1;
nodes = (
"240 166 LINE",
"312 572 LINE",
"359 611 LINE",
"585 611 LINE",
"618 572 LINE",
"547 166 LINE",
"501 126 LINE",
"273 126 LINE"
);
},
{
closed = 1;
nodes = (
"667.45 795 LINE",
"839.45 950 LINE",
"669 950 LINE",
"538 795 LINE"
);
},
{
closed = 1;
nodes = (
"450 795 LINE",
"622 950 LINE",
"451.55 950 LINE",
"320.55 795 LINE"
);
}
);
width = 729;
}
);
leftKerningGroup = C;
note = Ohungarumlaut;
rightKerningGroup = O;
unicode = 0150;
},
{
glyphname = uni020E;
lastChange = "2019-09-30 19:56:48 +0000";
layers = (
{
hints = (
{
horizontal = 1;
place = "{0, 126.03}";
type = Stem;
},
{
horizontal = 1;
place = "{610.97, 126.03}";
type = Stem;
},
{
horizontal = 1;
place = "{795, 73.31}";
type = Stem;
},
{
place = "{192.12, 106.19}";
type = Stem;
},
{
place = "{517.78, 155.72}";
type = Stem;
},
{
horizontal = 1;
place = "{856.44, 85.56}";
type = Stem;
},
{
place = "{430.19, 106.18}";
type = Stem;
},
{
place = "{55, 156.18}";
type = Stem;
},
{
horizontal = 1;
place = "{0, 126.03}";
type = Stem;
},
{
horizontal = 1;
place = "{610.97, 126.03}";
type = Stem;
},
{
place = "{55, 156.18}";
type = Stem;
},
{
place = "{517.78, 155.72}";
type = Stem;
},
{
horizontal = 1;
place = "{795, 73.31}";
type = Stem;
},
{
place = "{-71.161, 106.19}";
type = Stem;
},
{
place = "{166.899, 106.19}";
type = Stem;
},
{
horizontal = 1;
place = "{856.44, 85.56}";
type = Stem;
},
{
horizontal = 1;
place = "{942.38, -86}";
type = Stem;
},
{
place = "{662.093, -106.19}";
type = Stem;
},
{
place = "{424.033, -106.19}";
type = Stem;
},
{
horizontal = 1;
place = "{868.75, -73.87}";
type = Stem;
}
);
layerId = "37B3F0A2-20CC-4AE3-B6A0-1D169A898E63";
paths = (
{
closed = 1;
nodes = (
"564 0 LINE",
"695 111 LINE",
"786 626 LINE",
"694 737 LINE",
"294 737 LINE",
"163 626 LINE",
"73 111 LINE",
"164 0 LINE"
);
},
{
closed = 1;
nodes = (
"240 166 LINE",
"312 572 LINE",
"359 611 LINE",
"585 611 LINE",
"618 572 LINE",
"547 166 LINE",
"501 126 LINE",
"273 126 LINE"
);
},
{
closed = 1;
nodes = (
"437.593 795 LINE",
"445.593 839 LINE",
"466.593 856 LINE",
"563.593 856 LINE",
"577.593 839 LINE",
"569.593 795 LINE",
"677.593 795 LINE",
"690.593 869 LINE",
"626.593 942 LINE",
"433.593 942 LINE",
"342.593 869 LINE",
"329.593 795 LINE"
);
}
);
width = 729;
}
);
leftKerningGroup = C;
note = uni020E;
rightKerningGroup = O;
unicode = 020E;
},
{
glyphname = Omacron;
lastChange = "2019-09-30 19:56:48 +0000";
layers = (
{
hints = (
{
horizontal = 1;
place = "{0, 126.03}";
type = Stem;
},
{
horizontal = 1;
place = "{610.97, 126.03}";
type = Stem;
},
{
horizontal = 1;
place = "{794.62, 104.07}";
type = Stem;
},
{
place = "{55, 156.18}";
type = Stem;
},
{
place = "{517.78, 155.72}";
type = Stem;
},
{
horizontal = 1;
place = "{0, 126.03}";
type = Stem;
},
{
horizontal = 1;
place = "{610.97, 126.03}";
type = Stem;
},
{
place = "{55, 156.18}";
type = Stem;
},
{
place = "{517.78, 155.72}";
type = Stem;
},
{
horizontal = 1;
place = "{794.62, 104.07}";
type = Stem;
},
{
place = "{304.532, 423}";
type = Stem;
}
);
layerId = "37B3F0A2-20CC-4AE3-B6A0-1D169A898E63";
paths = (
{
closed = 1;
nodes = (
"564 0 LINE",
"695 111 LINE",
"786 626 LINE",
"694 737 LINE",
"294 737 LINE",
"163 626 LINE",
"73 111 LINE",
"164 0 LINE"
);
},
{
closed = 1;
nodes = (
"240 166 LINE",
"312 572 LINE",
"359 611 LINE",
"585 611 LINE",
"618 572 LINE",
"547 166 LINE",
"501 126 LINE",
"273 126 LINE"
);
},
{
closed = 1;
nodes = (
"716.532 795 LINE",
"734.532 899 LINE",
"309.532 899 LINE",
"291.532 795 LINE"
);
}
);
width = 729;
}
);
leftKerningGroup = C;
note = Omacron;
rightKerningGroup = O;
unicode = 014C;
},
{
glyphname = uni01EA;
lastChange = "2019-09-30 19:56:48 +0000";
layers = (
{
hints = (
{
horizontal = 1;
place = "{-175.81, 91.68}";
type = Stem;
},
{
horizontal = 1;
place = "{0, 126.03}";
type = Stem;
},
{
horizontal = 1;
place = "{610.97, 126.03}";
type = Stem;
},
{
place = "{55, 156.18}";
type = Stem;
},
{
place = "{517.78, 155.72}";
type = Stem;
},
{
place = "{436.69, 89.43}";
type = Stem;
},
{
horizontal = 1;
place = "{0, 126.03}";
type = Stem;
},
{
horizontal = 1;
place = "{610.97, 126.03}";
type = Stem;
},
{
place = "{55, 156.18}";
type = Stem;
},
{
place = "{517.78, 155.72}";
type = Stem;
},
{
horizontal = 1;
place = "{-175.81, 91.68}";
type = Stem;
},
{
horizontal = 1;
place = "{-35.75, 35.75}";
type = Stem;
},
{
place = "{432.638, 89.94}";
type = Stem;
}
);
layerId = "37B3F0A2-20CC-4AE3-B6A0-1D169A898E63";
paths = (
{
closed = 1;
nodes = (
"564 0 LINE",
"695 111 LINE",
"786 626 LINE",
"694 737 LINE",
"294 737 LINE",
"163 626 LINE",
"73 111 LINE",
"164 0 LINE"
);
},
{
closed = 1;
nodes = (
"240 166 LINE",
"312 572 LINE",
"359 611 LINE",
"585 611 LINE",
"618 572 LINE",
"547 166 LINE",
"501 126 LINE",
"273 126 LINE"
);
},
{
closed = 1;
nodes = (
"467.638 -176 LINE",
"538.638 -176 LINE",
"555.638 -84 LINE",
"525.638 -84 LINE",
"509.638 -65 LINE",
"514.638 -36 LINE",
"564.008 0 LINE",
"475.698 0 LINE",
"424.638 -33 LINE",
"410.638 -111 LINE"
);
}
);
width = 729;
}
);
leftKerningGroup = C;
note = uni01EA;
rightKerningGroup = O;
unicode = 01EA;
},
{
glyphname = Oslash;
lastChange = "2019-09-30 19:56:48 +0000";
layers = (
{
hints = (
{
horizontal = 1;
place = "{0, 126.04}";
type = Stem;
},
{
horizontal = 1;
place = "{610.96, 126.04}";
type = Stem;
},
{
place = "{55, 156.16}";
type = Stem;
},
{
place = "{517.79, 155.71}";
type = Stem;
},
{
horizontal = 1;
place = "{0, 126.03}";
type = Stem;
},
{
horizontal = 1;
place = "{610.97, 126.03}";
type = Stem;
},
{
place = "{55, 156.18}";
type = Stem;
},
{
place = "{517.78, 155.72}";
type = Stem;
}
);
layerId = "37B3F0A2-20CC-4AE3-B6A0-1D169A898E63";
paths = (
{
closed = 1;
nodes = (
"695.683 607.667 LINE",
"596.477 654.839 LINE",
"141.389 104.261 LINE",
"219.944 32.135 LINE"
);
},
{
closed = 1;
nodes = (
"564 0 LINE",
"695 111 LINE",
"786 626 LINE",
"694 737 LINE",
"294 737 LINE",
"163 626 LINE",
"73 111 LINE",
"164 0 LINE"
);
},
{
closed = 1;
nodes = (
"312 572 LINE",
"359 611 LINE",
"585 611 LINE",
"618 572 LINE",
"547 166 LINE",
"501 126 LINE",
"273 126 LINE",
"240 166 LINE"
);
}
);
width = 729;
}
);
leftKerningGroup = C;
note = Oslash;
rightKerningGroup = O;
unicode = 00D8;
},
{
glyphname = Oslashacute;
lastChange = "2019-09-30 19:56:48 +0000";
layers = (
{
hints = (
{
horizontal = 1;
place = "{0, 126.04}";
type = Stem;
},
{
horizontal = 1;
place = "{610.96, 126.04}";
type = Stem;
},
{
horizontal = 1;
place = "{794.62, 155.5}";
type = Stem;
},
{
place = "{55, 156.16}";
type = Stem;
},
{
place = "{517.79, 155.71}";
type = Stem;
},
{
horizontal = 1;
place = "{0, 126.04}";
type = Stem;
},
{
horizontal = 1;
place = "{610.96, 126.04}";
type = Stem;
},
{
place = "{55, 156.16}";
type = Stem;
},
{
place = "{517.79, 155.71}";
type = Stem;
},
{
horizontal = 1;
place = "{0, 126.03}";
type = Stem;
},
{
horizontal = 1;
place = "{610.97, 126.03}";
type = Stem;
},
{
place = "{55, 156.18}";
type = Stem;
},
{
place = "{517.78, 155.72}";
type = Stem;
},
{
horizontal = 1;
place = "{794.62, 155.5}";
type = Stem;
},
{
place = "{459.753, 263.37}";
type = Stem;
}
);
layerId = "37B3F0A2-20CC-4AE3-B6A0-1D169A898E63";
paths = (
{
closed = 1;
nodes = (
"695.683 607.667 LINE",
"596.477 654.839 LINE",
"141.389 104.261 LINE",
"219.944 32.135 LINE"
);
},
{
closed = 1;
nodes = (
"564 0 LINE",
"695 111 LINE",
"786 626 LINE",
"694 737 LINE",
"294 737 LINE",
"163 626 LINE",
"73 111 LINE",
"164 0 LINE"
);
},
{
closed = 1;
nodes = (
"240 166 LINE",
"312 572 LINE",
"359 611 LINE",
"585 611 LINE",
"618 572 LINE",
"547 166 LINE",
"501 126 LINE",
"273 126 LINE"
);
},
{
closed = 1;
nodes = (
"569.203 795 LINE",
"741.203 950 LINE",
"570.753 950 LINE",
"439.753 795 LINE"
);
}
);
width = 729;
}
);
leftKerningGroup = C;
note = Oslashacute;
rightKerningGroup = O;
unicode = 01FE;
},
{
glyphname = Otilde;
lastChange = "2019-09-30 19:56:48 +0000";
layers = (
{
hints = (
{
horizontal = 1;
place = "{0, 126.03}";
type = Stem;
},
{
horizontal = 1;
place = "{610.97, 126.03}";
type = Stem;
},
{
horizontal = 1;
place = "{859.12, 84.94}";
type = Stem;
},
{
place = "{158.37, 97.44}";
type = Stem;
},
{
place = "{517.78, 155.72}";
type = Stem;
},
{
horizontal = 1;
place = "{794.62, 86.94}";
type = Stem;
},
{
place = "{55, 156.18}";
type = Stem;
},
{
place = "{479.44, 97.68}";
type = Stem;
},
{
horizontal = 1;
place = "{0, 126.03}";
type = Stem;
},
{
horizontal = 1;
place = "{610.97, 126.03}";
type = Stem;
},
{
place = "{55, 156.18}";
type = Stem;
},
{
place = "{517.78, 155.72}";
type = Stem;
},
{
horizontal = 1;
place = "{859.12, 84.94}";
type = Stem;
},
{
place = "{327.057, 97.44}";
type = Stem;
},
{
place = "{648.117, 97.69}";
type = Stem;
},
{
horizontal = 1;
place = "{794.62, 86.94}";
type = Stem;
}
);
layerId = "37B3F0A2-20CC-4AE3-B6A0-1D169A898E63";
paths = (
{
closed = 1;
nodes = (
"564 0 LINE",
"695 111 LINE",
"786 626 LINE",
"694 737 LINE",
"294 737 LINE",
"163 626 LINE",
"73 111 LINE",
"164 0 LINE"
);
},
{
closed = 1;
nodes = (
"240 166 LINE",
"312 572 LINE",
"359 611 LINE",
"585 611 LINE",
"618 572 LINE",
"547 166 LINE",
"501 126 LINE",
"273 126 LINE"
);
},
{
closed = 1;
nodes = (
"393.307 800 LINE",
"398.307 825 LINE",
"428.307 859 LINE",
"454.307 859 LINE",
"500.307 795 LINE",
"648.307 795 LINE",
"727.307 864 LINE",
"742.307 939 LINE",
"641.307 939 LINE",
"637.307 913 LINE",
"607.307 882 LINE",
"581.307 882 LINE",
"534.307 944 LINE",
"386.307 944 LINE",
"308.307 876 LINE",
"293.307 800 LINE"
);
}
);
width = 729;
}
);
leftKerningGroup = C;
note = Otilde;
rightKerningGroup = O;
unicode = 00D5;
},
{
glyphname = uni022C;
lastChange = "2019-09-30 19:56:48 +0000";
layers = (
{
background = {
paths = (
{
closed = 0;
nodes = (
"718.055 800 LINE",
"771.055 1100 LINE"
);
},
{
closed = 0;
nodes = (
"346.055 1100 LINE",
"293.055 800 LINE"
);
}
);
};
hints = (
{
horizontal = 1;
place = "{0, 126.03}";
type = Stem;
},
{
horizontal = 1;
place = "{610.97, 126.03}";
type = Stem;
},
{
horizontal = 1;
place = "{859.12, 84.94}";
type = Stem;
},
{
horizontal = 1;
place = "{984.19, 104.06}";
type = Stem;
},
{
place = "{55, 156.18}";
type = Stem;
},
{
place = "{517.78, 155.72}";
type = Stem;
},
{
place = "{158.37, 97.44}";
type = Stem;
},
{
place = "{479.44, 97.68}";
type = Stem;
},
{
horizontal = 1;
place = "{794.62, 86.94}";
type = Stem;
},
{
horizontal = 1;
place = "{794.62, 104.07}";
type = Stem;
},
{
place = "{32, 423}";
type = Stem;
},
{
horizontal = 1;
place = "{0, 126.03}";
type = Stem;
},
{
horizontal = 1;
place = "{610.97, 126.03}";
type = Stem;
},
{
place = "{55, 156.18}";
type = Stem;
},
{
place = "{517.78, 155.72}";
type = Stem;
},
{
horizontal = 1;
place = "{859.12, 84.94}";
type = Stem;
},
{
place = "{327.057, 97.44}";
type = Stem;
},
{
place = "{648.117, 97.69}";
type = Stem;
},
{
horizontal = 1;
place = "{794.62, 86.94}";
type = Stem;
}
);
layerId = "37B3F0A2-20CC-4AE3-B6A0-1D169A898E63";
paths = (
{
closed = 1;
nodes = (
"750.414 984 LINE",
"768.414 1088 LINE",
"343.414 1088 LINE",
"325.414 984 LINE"
);
},
{
closed = 1;
nodes = (
"564 0 LINE",
"695 111 LINE",
"786 626 LINE",
"694 737 LINE",
"294 737 LINE",
"163 626 LINE",
"73 111 LINE",
"164 0 LINE"
);
},
{
closed = 1;
nodes = (
"240 166 LINE",
"312 572 LINE",
"359 611 LINE",
"585 611 LINE",
"618 572 LINE",
"547 166 LINE",
"501 126 LINE",
"273 126 LINE"
);
},
{
closed = 1;
nodes = (
"393.307 800 LINE",
"398.307 825 LINE",
"428.307 859 LINE",
"454.307 859 LINE",
"500.307 795 LINE",
"648.307 795 LINE",
"727.307 864 LINE",
"742.307 939 LINE",
"641.307 939 LINE",
"637.307 913 LINE",
"607.307 882 LINE",
"581.307 882 LINE",
"534.307 944 LINE",
"386.307 944 LINE",
"308.307 876 LINE",
"293.307 800 LINE"
);
}
);
width = 729;
}
);
leftKerningGroup = C;
note = uni022C;
rightKerningGroup = O;
unicode = 022C;
},
{
glyphname = OE;
lastChange = "2019-09-30 19:56:48 +0000";
layers = (
{
background = {
paths = (
{
closed = 1;
nodes = (
"1055 0 LINE",
"1078 133 LINE",
"702 133 LINE",
"735 318 LINE",
"1076 318 LINE",
"1099 446 LINE",
"758 446 LINE",
"785 604 LINE",
"1161 604 LINE",
"1185 737 LINE",
"296 737 LINE",
"165 626 LINE",
"75 111 LINE",
"166.06 0 LINE"
);
},
{
closed = 1;
nodes = (
"240 166 LINE",
"312 572 LINE",
"359 611 LINE",
"585 611 LINE",
"618 572 LINE",
"547 166 LINE",
"501 126 LINE",
"273 126 LINE"
);
}
);
};
hints = (
{
horizontal = 1;
place = "{0, 133.19}";
type = Stem;
},
{
horizontal = 1;
place = "{318.44, 127.68}";
type = Stem;
},
{
horizontal = 1;
place = "{603.81, 133.19}";
type = Stem;
},
{
place = "{55, 156.18}";
type = Stem;
},
{
place = "{517.78, 161.14}";
type = Stem;
},
{
horizontal = 1;
place = "{0, 126.03}";
type = Stem;
},
{
horizontal = 1;
place = "{610.97, 126.03}";
type = Stem;
},
{
place = "{55, 156.18}";
type = Stem;
},
{
place = "{517.78, 155.72}";
type = Stem;
},
{
horizontal = 1;
place = "{0, 133.19}";
type = Stem;
},
{
horizontal = 1;
place = "{318.44, 127.68}";
type = Stem;
},
{
horizontal = 1;
place = "{603.81, 133.19}";
type = Stem;
},
{
place = "{75, 156.2}";
type = Stem;
}
);
layerId = "37B3F0A2-20CC-4AE3-B6A0-1D169A898E63";
paths = (
{
closed = 1;
nodes = (
"164 0 LINE",
"1053.673 0 LINE",
"1076.703 133 LINE",
"699.703 133 LINE",
"731.703 318 LINE",
"1074.703 318 LINE",
"1097.703 446 LINE",
"754.703 446 LINE",
"782.703 604 LINE",
"1159.703 604 LINE",
"1183.703 737 LINE",
"294 737 LINE",
"163 626 LINE",
"73 111 LINE"
);
},
{
closed = 1;
nodes = (
"312 572 LINE",
"359 611 LINE",
"585 611 LINE",
"618 572 LINE",
"547 166 LINE",
"501 126 LINE",
"273 126 LINE",
"240 166 LINE"
);
}
);
width = 729;
}
);
leftKerningGroup = C;
note = OE;
rightKerningGroup = AE;
unicode = 0152;
},
{
glyphname = P;
lastChange = "2019-09-30 19:56:48 +0000";
layers = (
{
hints = (
{
horizontal = 1;
place = "{242.56, 126.08}";
type = Stem;
},
{
horizontal = 1;
place = "{611.07, 125.93}";
type = Stem;
},
{
place = "{75, 156.2}";
type = Stem;
},
{
place = "{486.75, 153.22}";
type = Stem;
}
);
layerId = "37B3F0A2-20CC-4AE3-B6A0-1D169A898E63";
paths = (
{
closed = 1;
nodes = (
"231.2 0 LINE",
"274 243 LINE",
"574 243 LINE",
"704 354 LINE",
"752 626 LINE",
"661 737 LINE",
"203 737 LINE",
"73 0 LINE"
);
},
{
closed = 1;
nodes = (
"339 611 LINE",
"555 611 LINE",
"587 572 LINE",
"559 408 LINE",
"512 369 LINE",
"296 369 LINE"
);
}
);
width = 657;
}
);
leftKerningGroup = B;
note = P;
rightKerningGroup = P;
unicode = 0050;
},
{
glyphname = Thorn;
lastChange = "2019-09-30 19:56:34 +0000";
layers = (
{
hints = (
{
horizontal = 1;
place = "{130.69, 126.07}";
type = Stem;
},
{
horizontal = 1;
place = "{499.23, 125.89}";
type = Stem;
},
{
place = "{75, 156.2}";
type = Stem;
},
{
place = "{483.75, 156.22}";
type = Stem;
}
);
layerId = "37B3F0A2-20CC-4AE3-B6A0-1D169A898E63";
paths = (
{
closed = 1;
nodes = (
"231 -2 LINE",
"254 131 LINE",
"554 131 LINE",
"685 242 LINE",
"733 514 LINE",
"641 625 LINE",
"341 625 LINE",
"361 735 LINE",
"203 735 LINE",
"73 -2 LINE"
);
},
{
closed = 1;
nodes = (
"319 499 LINE",
"532 499 LINE",
"565 460 LINE",
"536 296 LINE",
"490 257 LINE",
"276 257 LINE"
);
}
);
width = 657;
}
);
leftKerningGroup = B;
note = Thorn;
rightKerningGroup = Thorn;
unicode = 00DE;
},
{
glyphname = Q;
lastChange = "2019-09-30 19:56:34 +0000";
layers = (
{
hints = (
{
horizontal = 1;
place = "{0, 125.96}";
type = Stem;
},
{
horizontal = 1;
place = "{610.97, 126.03}";
type = Stem;
},
{
place = "{55, 156.18}";
type = Stem;
},
{
place = "{309.81, 118.88}";
type = Stem;
},
{
place = "{517.78, 155.72}";
type = Stem;
}
);
layerId = "37B3F0A2-20CC-4AE3-B6A0-1D169A898E63";
paths = (
{
closed = 1;
nodes = (
"411.307 -89 LINE",
"427 0 LINE",
"564.44 0 LINE",
"695.083 111.06 LINE",
"785.87 625.94 LINE",
"694.393 737 LINE",
"294.013 737 LINE",
"163.37 625.94 LINE",
"72.583 111.06 LINE",
"164.06 0 LINE",
"302 0 LINE",
"286.307 -89 LINE"
);
},
{
closed = 1;
nodes = (
"311.831 571.5 LINE",
"358.903 610.87 LINE",
"584.996 611.06 LINE",
"618.461 571.5 LINE",
"547.063 165.56 LINE",
"500.548 126.12 LINE",
"447.217 126 LINE",
"462.91 215 LINE",
"341.91 215 LINE",
"326.217 126 LINE",
"273.457 125.94 LINE",
"240.492 165.5 LINE"
);
}
);
width = 729;
}
);
leftKerningGroup = C;
note = Q;
rightKerningGroup = O;
unicode = 0051;
},
